<?xml version="1.0" encoding="UTF-8"?>
<svg version="1.1" xmlns="http://www.w3.org/2000/svg" width="1774" height="480">
<path d="M0 0 C585.42 0 1170.84 0 1774 0 C1774 158.4 1774 316.8 1774 480 C1188.58 480 603.16 480 0 480 C0 321.6 0 163.2 0 0 Z " fill="#000000" transform="translate(0,0)"/>
<path d="M0 0 C0 0.66 0 1.32 0 2 C0.556875 2.03738281 1.11375 2.07476562 1.6875 2.11328125 C2.450625 2.17902344 3.21375 2.24476563 4 2.3125 C4.7425 2.37050781 5.485 2.42851562 6.25 2.48828125 C10.04878303 3.19515707 13.40683822 4.58024434 17 6 C18.57864067 40.3091238 7.21319281 69.68616451 -14.6875 95.9375 C-15.13899414 96.48148437 -15.59048828 97.02546875 -16.05566406 97.5859375 C-18.78461814 100.7974139 -21.62634904 103.47736009 -25 106 C-26.45474511 103.09050978 -25.33093255 101.06006967 -24.47265625 98.0703125 C-23.85161663 95.70398652 -23.85161663 95.70398652 -24 92 C-24.29132813 92.69448242 -24.58265625 93.38896484 -24.8828125 94.10449219 C-42.66796521 136.23237356 -42.66796521 136.23237356 -60 144 C-71.9988602 143.23132302 -86.28566842 130.52652686 -94.2109375 122.0546875 C-94.80132812 121.37664062 -95.39171875 120.69859375 -96 120 C-96.81726563 119.07445312 -97.63453125 118.14890625 -98.4765625 117.1953125 C-110.74239942 102.75200417 -122.84291516 82.2847474 -124 63 C-121.07323765 65.15203114 -118.83465071 67.20774655 -116.5625 70.0625 C-108.21355956 80.03425239 -96.01303436 87.32343055 -85 94 C-84.43265137 94.38816895 -83.86530273 94.77633789 -83.28076172 95.17626953 C-80.27565055 97.13030311 -78.24693411 97.99511306 -74.64453125 98.06640625 C-69.87090517 96.66962177 -65.93646029 94.48831636 -61.6875 91.9375 C-60.84517822 91.43943848 -60.00285645 90.94137695 -59.13500977 90.42822266 C-52.99689775 86.7388287 -47.3500924 82.77378083 -42 78 C-40.81470703 76.99259766 -40.81470703 76.99259766 -39.60546875 75.96484375 C-34.68153932 71.69226876 -30.12417753 67.14343648 -25.6875 62.375 C-25.19588379 61.8488208 -24.70426758 61.3226416 -24.19775391 60.78051758 C-16.63873482 52.6393042 -16.63873482 52.6393042 -14.1875 42.0625 C-14.13980469 40.91910156 -14.09210938 39.77570313 -14.04296875 38.59765625 C-14.02878906 37.74042969 -14.01460938 36.88320312 -14 36 C-15.32 39.63 -16.64 43.26 -18 47 C-22.35755554 45.25697778 -25.31663225 43.50873866 -29.125 40.875 C-46.87039846 29.13154592 -66.88287606 23.61476343 -88 23 C-84.66447344 19.36583725 -80.72378501 17.69645398 -76.3125 15.625 C-75.4683252 15.22651855 -74.62415039 14.82803711 -73.75439453 14.41748047 C-66.01715149 10.85303467 -58.17361805 8.33400154 -50 6 C-48.32956107 5.44880329 -46.66212324 4.88828672 -45 4.3125 C-30.23104515 -0.61048495 -15.4003727 -0.14067232 0 0 Z " fill="#DC440E" transform="translate(275,198)"/>
<path d="M0 0 C19.26653417 -0.71671144 36.966979 0.81751569 54.21630859 10.11474609 C54.21630859 10.77474609 54.21630859 11.43474609 54.21630859 12.11474609 C53.53753662 12.27031982 52.85876465 12.42589355 52.15942383 12.58618164 C32.06300793 17.22119927 13.60807002 22.64870628 -4.78369141 32.11474609 C-5.4151709 32.43765625 -6.04665039 32.76056641 -6.69726562 33.09326172 C-9.99098655 34.82105467 -13.0616051 36.56464346 -15.78369141 39.11474609 C-16.996811 43.96722448 -15.5180996 46.77320604 -13.57275391 51.21484375 C-12.30591408 54.26513692 -11.34483099 57.40571284 -10.34619141 60.55224609 C-8.56482138 66.01431445 -6.58939385 71.1009457 -3.78369141 76.11474609 C-3.35443359 76.92814453 -2.92517578 77.74154297 -2.48291016 78.57958984 C0.89731632 84.93004228 4.58253905 91.06565653 8.38427734 97.16943359 C10.02211437 99.80254473 11.62888856 102.45102579 13.21630859 105.11474609 C7.9348205 104.57515134 4.12715866 102.81668414 -0.40869141 100.23974609 C-1.45766602 99.64625366 -1.45766602 99.64625366 -2.52783203 99.04077148 C-9.51522841 94.9304914 -15.08771189 89.82780501 -20.78369141 84.11474609 C-21.87230469 83.11507812 -21.87230469 83.11507812 -22.98291016 82.09521484 C-37.44153117 68.60239563 -45.70309137 49.88018818 -50.78369141 31.11474609 C-51.04150391 30.18146484 -51.29931641 29.24818359 -51.56494141 28.28662109 C-52.59041926 24.21169595 -53.12863416 21.11844141 -51.78369141 17.11474609 C-37.76650605 3.45962825 -18.66373737 0.7693349 0 0 Z " fill="#DC440F" transform="translate(186.78369140625,184.88525390625)"/>
<path d="M0 0 C2.92676235 2.15203114 5.16534929 4.20774655 7.4375 7.0625 C19.45192979 21.41221537 38.27821799 31.27350894 55 39 C55.95519531 39.45761719 56.91039062 39.91523438 57.89453125 40.38671875 C66.4973686 44.06259378 77.75180083 44.86915046 86.6875 41.6875 C89.54663415 40.23095996 92.31721005 38.7605809 95 37 C94.43211096 42.21646651 92.72864788 46.20706057 90.375 50.8125 C90.0145459 51.52100098 89.6540918 52.22950195 89.28271484 52.95947266 C83.82788395 63.42075934 74.98774739 75.96822783 64 81 C52.0011398 80.23132302 37.71433158 67.52652686 29.7890625 59.0546875 C29.19867188 58.37664062 28.60828125 57.69859375 28 57 C27.18273437 56.07445312 26.36546875 55.14890625 25.5234375 54.1953125 C13.25760058 39.75200417 1.15708484 19.2847474 0 0 Z " fill="#E84911" transform="translate(151,261)"/>
<path d="M0 0 C2.80316746 1.74419309 4.79619441 3.13627053 6.8125 5.75 C8.18154053 12.17254584 9.68290643 20.71740374 6.8359375 26.85546875 C4.01548951 30.35939954 0.85763007 32.49394306 -3.58984375 33.05078125 C-4.84474609 33.05658203 -4.84474609 33.05658203 -6.125 33.0625 C-6.95902344 33.07925781 -7.79304688 33.09601563 -8.65234375 33.11328125 C-11.1875 32.75 -11.1875 32.75 -16.1875 29.75 C-16.1875 35.03 -16.1875 40.31 -16.1875 45.75 C-18.8275 45.75 -21.4675 45.75 -24.1875 45.75 C-24.1875 30.57 -24.1875 15.39 -24.1875 -0.25 C-21.5475 -0.25 -18.9075 -0.25 -16.1875 -0.25 C-16.1875 0.74 -16.1875 1.73 -16.1875 2.75 C-15.5275 2.75 -14.8675 2.75 -14.1875 2.75 C-14.1875 2.09 -14.1875 1.43 -14.1875 0.75 C-9.5483066 -2.21908377 -5.01554825 -1.96688167 0 0 Z " fill="#F1F0F1" transform="translate(443.1875,241.25)"/>
<path d="M0 0 C2.64 0 5.28 0 8 0 C8 5.61 8 11.22 8 17 C8.66 17 9.32 17 10 17 C10 16.34 10 15.68 10 15 C13.66430014 12.65484791 16.72175983 12.63118619 21 13 C25.17049359 14.63548768 28.10821038 16.57269378 31 20 C33.00120635 26.00361906 33.38442151 34.49464473 31.0234375 40.47265625 C28.83570323 43.63346252 26.53048364 45.59553753 23 47 C20.5625 47.30078125 20.5625 47.30078125 18 47.3125 C17.154375 47.32925781 16.30875 47.34601563 15.4375 47.36328125 C12.54669465 46.93244007 11.17173725 45.90529726 9 44 C8.67 44.66 8.34 45.32 8 46 C5.36 46 2.72 46 0 46 C0 30.82 0 15.64 0 0 Z " fill="#EFEFEF" transform="translate(784,227)"/>
<path d="M0 0 C0.2475 0.886875 0.495 1.77375 0.75 2.6875 C1.16424795 4.12569887 1.58138431 5.56306637 2 7 C2.43699219 8.50626953 2.43699219 8.50626953 2.8828125 10.04296875 C4.84132762 16.62018686 7.07022413 22.80281609 10 29 C10.53560547 30.23943359 10.53560547 30.23943359 11.08203125 31.50390625 C16.2217815 43.31329897 22.97020745 54.23563015 30 65 C24.71851191 64.46040524 20.91085006 62.70193805 16.375 60.125 C15.67568359 59.72933838 14.97636719 59.33367676 14.25585938 58.92602539 C7.26333056 54.81272619 1.71120285 49.70274181 -4 44 C-4.81855469 43.27554688 -5.63710937 42.55109375 -6.48046875 41.8046875 C-9.99369073 38.63346058 -11.77808908 36.8460354 -13 32.1875 C-13.02731049 30.79193387 -13.02487721 29.39561163 -13 28 C-13.06960937 27.14277344 -13.13921875 26.28554687 -13.2109375 25.40234375 C-13.69678213 17.17768827 -11.4901533 11.10001166 -6.14453125 4.8203125 C-1.4500502 0 -1.4500502 0 0 0 Z " fill="#C03509" transform="translate(170,225)"/>
<path d="M0 0 C2.97 0 5.94 0 9 0 C9 15.18 9 30.36 9 46 C6.03 46 3.06 46 0 46 C0 39.73 0 33.46 0 27 C-6.6 27 -13.2 27 -20 27 C-20 32.94 -20 38.88 -20 45 C-22.64 45 -25.28 45 -28 45 C-28 30.48 -28 15.96 -28 1 C-25.36 1 -22.72 1 -20 1 C-20 6.61 -20 12.22 -20 18 C-13.4 18 -6.8 18 0 18 C0 12.06 0 6.12 0 0 Z " fill="#E5E5E5" transform="translate(369,228)"/>
<path d="M0 0 C3.86565664 1.63366011 5.53479103 4.0484362 7.375 7.8125 C7.58125 8.534375 7.7875 9.25625 8 10 C5.09399739 11.25664978 3.20395416 12 0 12 C-0.5775 11.34 -1.155 10.68 -1.75 10 C-3.95335552 7.64021782 -3.95335552 7.64021782 -7.625 7.6875 C-10.86582325 7.78172655 -10.86582325 7.78172655 -13 9 C-13.2502157 11.91634129 -13.2502157 11.91634129 -13 15 C-10.17970408 16.88019728 -8.39621804 17.53708592 -5.1875 18.375 C0.86058536 20.12947374 5.57097943 22.55850582 9 28 C9.79893471 32.03462028 9.92775262 36.19603657 8.015625 39.9140625 C5.72689727 42.78203614 3.39355553 44.69659286 0 46 C-6.14024308 46.63621796 -11.97169617 46.9442104 -17.625 44.3125 C-23.89244558 38.2099872 -23.89244558 38.2099872 -24.25 34.1875 C-24.12625 33.1046875 -24.12625 33.1046875 -24 32 C-20.04 31.505 -20.04 31.505 -16 31 C-15.54625 31.969375 -15.0925 32.93875 -14.625 33.9375 C-13.34213779 37.07079582 -13.34213779 37.07079582 -11 38 C-5.67032792 38.34092041 -5.67032792 38.34092041 -1 36 C-0.33319632 33.04279372 -0.33319632 33.04279372 -1 30 C-3.93166684 27.36149984 -7.2804286 26.60620063 -11 25.5625 C-15.91952033 24.15692276 -19.2509046 22.41541746 -22.3125 18.1875 C-23.33529387 14.93315587 -23.35124367 12.39535546 -23 9 C-17.61054662 -1.00898485 -10.46726463 -1.21871307 0 0 Z " fill="#EFEFEF" transform="translate(537,228)"/>
<path d="M0 0 C4.78013423 2.11070862 7.64548707 4.42431128 9.85546875 9.3046875 C9.85546875 12.2746875 9.85546875 15.2446875 9.85546875 18.3046875 C2.26546875 18.3046875 -5.32453125 18.3046875 -13.14453125 18.3046875 C-11.60410377 23.10772785 -11.60410377 23.10772785 -9.14453125 25.3046875 C-4.30490407 25.85043416 -4.30490407 25.85043416 -0.14453125 23.7421875 C1.85546875 22.3046875 1.85546875 22.3046875 5.60546875 22.6171875 C6.67796875 22.8440625 7.75046875 23.0709375 8.85546875 23.3046875 C8.56087866 26.83976853 8.10665462 28.06672194 5.48046875 30.5546875 C0.28151053 34.02065965 -5.07986086 33.93026955 -11.14453125 33.3046875 C-15.58097195 31.12679843 -18.38672038 28.39033324 -21.14453125 24.3046875 C-22.6846588 19.30185707 -23.21127963 14.02657013 -21.2734375 9.08203125 C-16.66150382 0.99224594 -9.25610795 -3.00106961 0 0 Z " fill="#EDEDED" transform="translate(571.14453125,240.6953125)"/>
<path d="M0 0 C4.7592742 2.14791214 7.62470168 4.43326048 9.8359375 9.31640625 C9.8359375 12.28640625 9.8359375 15.25640625 9.8359375 18.31640625 C2.2459375 18.31640625 -5.3440625 18.31640625 -13.1640625 18.31640625 C-11.62363502 23.1194466 -11.62363502 23.1194466 -9.1640625 25.31640625 C-4.12873628 25.78264016 -2.07327405 25.31346844 1.8359375 22.31640625 C4.53403526 22.57336794 6.41944443 23.10815971 8.8359375 24.31640625 C8.60783056 27.39584993 7.5690305 28.64262592 5.5859375 31.06640625 C1.47939961 34.28585222 -3.0824747 33.94907909 -8.09765625 33.7265625 C-12.18717686 33.17955656 -14.27107698 32.28357089 -17.1640625 29.31640625 C-21.74632037 22.78271364 -21.80534202 17.44909647 -20.6015625 9.69140625 C-16.99241115 1.21774656 -8.86571669 -2.80054228 0 0 Z " fill="#EEEEEE" transform="translate(476.1640625,240.68359375)"/>
<path d="M0 0 C4.75299172 1.70390269 7.1982362 3.83604251 10 8 C10.45410156 10.86254883 10.45410156 10.86254883 10.390625 13.95703125 C10.37128906 15.62475586 10.37128906 15.62475586 10.3515625 17.32617188 C10.31804688 18.47666016 10.28453125 19.62714844 10.25 20.8125 C10.23195313 21.98232422 10.21390625 23.15214844 10.1953125 24.35742188 C10.1482644 27.2391178 10.08253709 30.11913797 10 33 C7.69 33 5.38 33 3 33 C3 32.34 3 31.68 3 31 C2.401875 31.495 1.80375 31.99 1.1875 32.5 C-3.52874154 34.71940779 -7.87789425 34.78329053 -13 34 C-16.1875 32.125 -16.1875 32.125 -18 29 C-18.66799102 25.52532401 -18.7493108 22.46556246 -18 19 C-15.73382807 16.55491976 -13.92915586 15.46457793 -11 14 C-8.7927077 13.92907158 -6.58332548 13.91584975 -4.375 13.9375 C-3.18648437 13.94652344 -1.99796875 13.95554688 -0.7734375 13.96484375 C0.14179687 13.97644531 1.05703125 13.98804688 2 14 C1.67 12.02 1.34 10.04 1 8 C-0.43655854 7.91868537 -1.8744483 7.86066441 -3.3125 7.8125 C-4.11300781 7.77769531 -4.91351562 7.74289063 -5.73828125 7.70703125 C-8.47851584 8.06198392 -9.29171079 8.89366282 -11 11 C-12.98 10.34 -14.96 9.68 -17 9 C-16.66032174 5.82966958 -16.00130809 5.00117393 -13.5625 2.8125 C-8.99776842 -0.41621258 -5.49258654 -0.50943046 0 0 Z " fill="#F1F1F1" transform="translate(768,240)"/>
<path d="M0 0 C2.97 0 5.94 0 9 0 C11.64 6.93 14.28 13.86 17 21 C19.26183971 14.46410759 19.26183971 14.46410759 21.51733398 7.92602539 C21.79907471 7.11641357 22.08081543 6.30680176 22.37109375 5.47265625 C22.65911865 4.64000244 22.94714355 3.80734863 23.24389648 2.94946289 C24 1 24 1 25 0 C27.67058851 -0.14115161 30.32432238 -0.04247107 33 0 C31.47892573 7.34246963 28.73227207 14.15982956 25.94189453 21.09130859 C25.12546952 23.12383111 24.32209425 25.16118919 23.51953125 27.19921875 C22.99557199 28.51072868 22.47085779 29.82193731 21.9453125 31.1328125 C21.47625488 32.30730957 21.00719727 33.48180664 20.52392578 34.69189453 C18.56195048 38.95090853 16.32420201 42.67579799 13 46 C10.90625 46.265625 10.90625 46.265625 8.5 46.25 C7.7059375 46.25515625 6.911875 46.2603125 6.09375 46.265625 C4 46 4 46 2 44 C2.375 41.375 2.375 41.375 3 39 C6.465 38.505 6.465 38.505 10 38 C12.12454658 32.34640052 12.0818563 29.74697255 9.5703125 24.04296875 C9.30113007 23.41393143 9.03194763 22.7848941 8.75460815 22.13679504 C7.89755662 20.14453972 7.01256567 18.16632308 6.125 16.1875 C5.25084649 14.18857668 4.38257948 12.18721621 3.51681519 10.18464661 C2.73228007 8.37809413 1.9331412 6.57790464 1.13330078 4.77807617 C0 2 0 2 0 0 Z " fill="#F1F1F1" transform="translate(382,241)"/>
<path d="M0 0 C2.64 0 5.28 0 8 0 C8.66966095 1.55079377 9.3376661 3.10231277 10 4.65625 C10.76543186 6.45023092 11.53750462 8.24137972 12.3125 10.03125 C12.76625 11.0934375 13.22 12.155625 13.6875 13.25 C14.34298828 14.77367187 14.34298828 14.77367187 15.01171875 16.328125 C16 19 16 19 16 22 C16.66 22 17.32 22 18 22 C18.061875 20.9275 18.12375 19.855 18.1875 18.75 C18.98532548 12.1054236 22.03081711 5.93836578 25 0 C27.64 0 30.28 0 33 0 C32.37085779 3.77485325 31.27198243 6.99366074 29.75 10.5 C27.92818911 14.7578323 26.228911 19.03063179 24.625 23.375 C22.75651434 28.24956668 20.70803179 32.98988987 18.4375 37.6875 C17.87933594 38.84636719 17.32117188 40.00523437 16.74609375 41.19921875 C14.94816125 44.08315075 14.20600091 45.05564326 11 46 C8.640625 46.1953125 8.640625 46.1953125 6.25 46.125 C5.05117188 46.09792969 5.05117188 46.09792969 3.828125 46.0703125 C3.22484375 46.04710937 2.6215625 46.02390625 2 46 C2.33 43.69 2.66 41.38 3 39 C5.31 39 7.62 39 10 39 C12.31030757 29.75876971 8.55741587 22.38799042 5 14 C4.49984375 12.80246094 3.9996875 11.60492188 3.484375 10.37109375 C2.62893926 8.32837219 1.7632011 6.28990442 0.8828125 4.2578125 C0 2 0 2 0 0 Z " fill="#ECECEC" transform="translate(667,241)"/>
<path d="M0 0 C3.6578218 2.03993908 5.66946174 3.50419262 8 7 C8.22705078 9.72729492 8.22705078 9.72729492 8.1953125 12.98046875 C8.18886719 14.14384766 8.18242188 15.30722656 8.17578125 16.50585938 C8.15902344 17.72080078 8.14226563 18.93574219 8.125 20.1875 C8.11597656 21.41404297 8.10695313 22.64058594 8.09765625 23.90429688 C8.07406017 26.93639295 8.04113841 29.96809938 8 33 C5.36 33 2.72 33 0 33 C-0.01458252 32.31373535 -0.02916504 31.6274707 -0.04418945 30.92041016 C-0.11850151 27.82136099 -0.21521582 24.72340945 -0.3125 21.625 C-0.33505859 20.54476563 -0.35761719 19.46453125 -0.38085938 18.3515625 C-0.4340332 16.8046875 -0.4340332 16.8046875 -0.48828125 15.2265625 C-0.51446533 14.27346191 -0.54064941 13.32036133 -0.56762695 12.33837891 C-0.71031006 11.56671387 -0.85299316 10.79504883 -1 10 C-3.82717213 7.66703749 -3.82717213 7.66703749 -7.0625 8.25 C-10.099459 8.7593244 -10.099459 8.7593244 -12 11 C-12.37095708 13.42246595 -12.37095708 13.42246595 -12.4140625 16.2265625 C-12.47207031 17.7734375 -12.47207031 17.7734375 -12.53125 19.3515625 C-12.5621875 20.43179687 -12.593125 21.51203125 -12.625 22.625 C-12.68300781 24.25695312 -12.68300781 24.25695312 -12.7421875 25.921875 C-12.83666247 28.61441165 -12.92222431 31.30693757 -13 34 C-15.64 34 -18.28 34 -21 34 C-21 23.11 -21 12.22 -21 1 C-18.36 1 -15.72 1 -13 1 C-12.67 1.66 -12.34 2.32 -12 3 C-10.700625 2.2575 -10.700625 2.2575 -9.375 1.5 C-5.75527463 -0.10876683 -3.89651898 -0.56824235 0 0 Z " fill="#F0F0F0" transform="translate(607,240)"/>
<path d="M0 0 C2.625 1.625 2.625 1.625 4.625 3.625 C4.25 5.75 4.25 5.75 3.625 7.625 C1.25 8.25 1.25 8.25 -1.375 8.625 C-2.035 7.965 -2.695 7.305 -3.375 6.625 C-6.95843976 6.45822718 -6.95843976 6.45822718 -10.375 6.625 C-10.705 7.945 -11.035 9.265 -11.375 10.625 C-10.56675781 10.79515625 -9.75851562 10.9653125 -8.92578125 11.140625 C1.84369907 13.58291969 1.84369907 13.58291969 5.625 17.625 C7.05162219 20.47824437 6.93533868 22.45954549 6.625 25.625 C4.39943662 29.12231388 2.44859309 31.09287483 -1.375 32.625 C-6.29631253 33.34688505 -11.29447284 33.81982695 -15.71484375 31.28125 C-17.40919063 29.81212305 -18.9284242 28.33644179 -20.375 26.625 C-20.045 25.305 -19.715 23.985 -19.375 22.625 C-16.625 21.875 -16.625 21.875 -13.375 21.625 C-12.735625 22.285 -12.09625 22.945 -11.4375 23.625 C-10.756875 24.285 -10.07625 24.945 -9.375 25.625 C-5.68067489 25.47887105 -5.68067489 25.47887105 -2.375 24.625 C-2.705 23.305 -3.035 21.985 -3.375 20.625 C-4.47908203 20.38716797 -4.47908203 20.38716797 -5.60546875 20.14453125 C-16.15456691 17.62222376 -16.15456691 17.62222376 -19.375 12.625 C-20.05990685 9.78752877 -20.10150456 7.45665164 -19.375 4.625 C-14.22173868 -1.92103465 -7.55220128 -3.07682274 0 0 Z " fill="#EEEEEE" transform="translate(840.375,241.375)"/>
<path d="M0 0 C2.64 0 5.28 0 8 0 C8 12.21 8 24.42 8 37 C14.6 37 21.2 37 28 37 C28 39.31 28 41.62 28 44 C18.76 44 9.52 44 0 44 C0 29.48 0 14.96 0 0 Z " fill="#F3F3F3" transform="translate(719,229)"/>
<path d="M0 0 C2.64 0 5.28 0 8 0 C8 3.3 8 6.6 8 10 C10.64 10 13.28 10 16 10 C16 12.31 16 14.62 16 17 C13.36 17 10.72 17 8 17 C8.33 22.61 8.66 28.22 9 34 C11.31 34.66 13.62 35.32 16 36 C16 38.31 16 40.62 16 43 C6.07794677 43.58365019 6.07794677 43.58365019 2 40 C-0.55232076 35.37558608 -0.23019216 30.81359487 -0.125 25.6875 C-0.11597656 24.85154297 -0.10695313 24.01558594 -0.09765625 23.15429688 C-0.07420989 21.10274031 -0.03834266 19.05133223 0 17 C-1.65 17 -3.3 17 -5 17 C-5 14.69 -5 12.38 -5 10 C-3.68 9.67 -2.36 9.34 -1 9 C-0.67 6.03 -0.34 3.06 0 0 Z " fill="#F3F3F3" transform="translate(624,231)"/>
<path d="M0 0 C0.99 0 1.98 0 3 0 C3 1.32 3 2.64 3 4 C4.65 4 6.3 4 8 4 C8 4.99 8 5.98 8 7 C8.680625 6.505 9.36125 6.01 10.0625 5.5 C13.74788284 3.61810238 15.90846373 3.41549482 20 4 C22.91963173 5.98783437 24.61102978 7.4314697 25.48046875 10.9375 C25.76091862 14.93959545 25.24214679 16.65814571 22.875 20 C19.45304872 22.38048785 18.08260971 22.66654852 14 22 C10.625 20.5 10.625 20.5 8 19 C8 19.66 8 20.32 8 21 C5.66705225 21.04241723 3.33297433 21.04092937 1 21 C0 20 0 20 -0.09765625 17.05859375 C-0.08605469 15.86363281 -0.07445312 14.66867187 -0.0625 13.4375 C-0.05347656 12.23996094 -0.04445313 11.04242188 -0.03515625 9.80859375 C-0.02355469 8.88175781 -0.01195312 7.95492188 0 7 C-0.99 7 -1.98 7 -3 7 C-3 6.34 -3 5.68 -3 5 C-2.01 5 -1.02 5 0 5 C0 3.35 0 1.7 0 0 Z " fill="#555555" transform="translate(466,308)"/>
<path d="M0 0 C0 2.64 0 5.28 0 8 C-3.02734375 8.68359375 -3.02734375 8.68359375 -6.0546875 9.3671875 C-8.20719964 9.90474428 -8.20719964 9.90474428 -10 12 C-10.37051993 14.3245339 -10.37051993 14.3245339 -10.4140625 17.0078125 C-10.47207031 18.48701172 -10.47207031 18.48701172 -10.53125 19.99609375 C-10.57765625 21.54490234 -10.57765625 21.54490234 -10.625 23.125 C-10.68300781 24.68541016 -10.68300781 24.68541016 -10.7421875 26.27734375 C-10.83664766 28.85138311 -10.92221214 31.42541155 -11 34 C-13.97 34 -16.94 34 -20 34 C-20 23.11 -20 12.22 -20 1 C-17.36 1 -14.72 1 -12 1 C-11.67 1.99 -11.34 2.98 -11 4 C-10.113125 3.34 -9.22625 2.68 -8.3125 2 C-5.01888014 0.01139933 -3.71748127 -0.43735074 0 0 Z " fill="#E4E4E4" transform="translate(664,240)"/>
<path d="M0 0 C1.32 0 2.64 0 4 0 C4 1.32 4 2.64 4 4 C5.32 4 6.64 4 8 4 C8.33 5.65 8.66 7.3 9 9 C9.70125 8.175 10.4025 7.35 11.125 6.5 C14 4 14 4 17 3.375 C21.04381805 4.21746209 22.53235541 5.73399981 25 9 C25 10.65 25 12.3 25 14 C21.04 14 17.08 14 13 14 C13.66 15.32 14.32 16.64 15 18 C16.65 18 18.3 18 20 18 C20.33 17.34 20.66 16.68 21 16 C21.99 16.33 22.98 16.66 24 17 C22.25 20.875 22.25 20.875 20 22 C15.84666137 22.18878812 12.08496815 21.68082803 8 21 C6.9275 21.020625 5.855 21.04125 4.75 21.0625 C2 21 2 21 0 19 C-0.1953125 16.1796875 -0.1953125 16.1796875 -0.125 12.875 C-0.10695313 11.77929688 -0.08890625 10.68359375 -0.0703125 9.5546875 C-0.04710937 8.71164062 -0.02390625 7.86859375 0 7 C-0.99 7 -1.98 7 -3 7 C-3 6.34 -3 5.68 -3 5 C-2.01 5 -1.02 5 0 5 C0 3.35 0 1.7 0 0 Z " fill="#A09FA0" transform="translate(540,308)"/>
<path d="M0 0 C0 2.64 0 5.28 0 8 C-0.62648438 8.10957031 -1.25296875 8.21914062 -1.8984375 8.33203125 C-2.71570313 8.49058594 -3.53296875 8.64914063 -4.375 8.8125 C-5.59316406 9.03873047 -5.59316406 9.03873047 -6.8359375 9.26953125 C-9.35820641 9.87544942 -9.35820641 9.87544942 -11 13 C-11.3650791 15.22131423 -11.3650791 15.22131423 -11.4140625 17.66796875 C-11.47207031 19.00698242 -11.47207031 19.00698242 -11.53125 20.37304688 C-11.57765625 21.76620117 -11.57765625 21.76620117 -11.625 23.1875 C-11.68300781 24.59805664 -11.68300781 24.59805664 -11.7421875 26.03710938 C-11.83643187 28.3578771 -11.92204025 30.67863748 -12 33 C-14.64 33 -17.28 33 -20 33 C-20 22.44 -20 11.88 -20 1 C-17.36 1 -14.72 1 -12 1 C-11.67 1.99 -11.34 2.98 -11 4 C-10.29875 3.34 -9.5975 2.68 -8.875 2 C-5.56539771 -0.30233203 -3.93774177 -0.36630156 0 0 Z " fill="#F0F0EF" transform="translate(511,240)"/>
<path d="M0 0 C11 0 11 0 15 3 C15.25 5.9375 15.25 5.9375 15 9 C15 10.32 15 11.64 15 13 C15.33 13.33 15.66 13.66 16 14 C16.4603413 19.29392491 16.4603413 19.29392491 14.90234375 21.68359375 C10.83715841 24.49666862 4.67427104 23.13883973 0 23 C0 15.41 0 7.82 0 0 Z " fill="#C9CACA" transform="translate(340,306)"/>
<path d="M0 0 C2.21875 1.19140625 2.21875 1.19140625 4 3 C5.04848114 7.98028539 4.67010284 12.63299021 2.4375 17.1875 C0 19 0 19 -3.4375 19.625 C-7 19 -7 19 -9.9375 17.125 C-12.82482914 12.75025888 -12.9033534 9.10179588 -12 4 C-9.32950467 -0.67336684 -4.97975744 -1.07959585 0 0 Z " fill="#090909" transform="translate(439,248)"/>
<path d="M0 0 C2.37648982 1.70141304 2.93016813 2.62407177 3.46875 5.5234375 C3.55256065 13.17115903 3.55256065 13.17115903 0.875 17.1875 C-2.51266526 19.32320201 -4.07353555 19.75187617 -8 19 C-10.84780619 16.76793569 -11.84997666 15.45007001 -13 12 C-13.38887761 7.80012182 -13.45908323 5.70392762 -11.125 2.125 C-7.35065309 -1.64934691 -5.12174487 -1.07826208 0 0 Z " fill="#0D0D0D" transform="translate(805,248)"/>
<path d="M0 0 C0.66 0 1.32 0 2 0 C2 7.59 2 15.18 2 23 C-9 24 -9 24 -11.6875 22.125 C-13.43821692 17.95662638 -13.81443663 14.45446973 -13 10 C-11.375 7.4375 -11.375 7.4375 -9 6 C-4.89222251 5.49700684 -3.49124017 5.67250655 0 8 C0 5.36 0 2.72 0 0 Z " fill="#BFBFC0" transform="translate(404,306)"/>
<path d="M0 0 C1.67542976 0.28604898 3.34385343 0.61781233 5 1 C5.25394531 1.79664063 5.50789063 2.59328125 5.76953125 3.4140625 C7.93072799 10.08798153 7.93072799 10.08798153 10.75 16.5 C12 19 12 19 12 23 C10.68 22.67 9.36 22.34 8 22 C7.67 20.35 7.34 18.7 7 17 C3.7 17 0.4 17 -3 17 C-3.66 18.98 -4.32 20.96 -5 23 C-5.99 23 -6.98 23 -8 23 C-7.35692944 17.89562747 -5.83831927 13.45238886 -4 8.6875 C-3.72671875 7.95982422 -3.4534375 7.23214844 -3.171875 6.48242188 C-1.14074248 1.14074248 -1.14074248 1.14074248 0 0 Z " fill="#AEAEAE" transform="translate(432,306)"/>
<path d="M0 0 C0.33 0 0.66 0 1 0 C1.20625 1.258125 1.4125 2.51625 1.625 3.8125 C2.464819 7.10227375 2.67599928 7.77082876 5.5625 9.8125 C7.48280414 10.47587779 9.41058004 11.12099875 11.359375 11.6953125 C12.16890625 11.94023437 12.9784375 12.18515625 13.8125 12.4375 C14.58207031 12.64246094 15.35164062 12.84742188 16.14453125 13.05859375 C18 14 18 14 18.76171875 16.09765625 C18.84035156 16.72542969 18.91898438 17.35320312 19 18 C16 20 16 20 12.4375 19.875 C9 19 9 19 7.5625 16.9375 C7.376875 16.298125 7.19125 15.65875 7 15 C5.02 15.66 3.04 16.32 1 17 C0.67 18.65 0.34 20.3 0 22 C-0.66 21.01 -1.32 20.02 -2 19 C-3.32 19.33 -4.64 19.66 -6 20 C-5.505 18.515 -5.505 18.515 -5 17 C-4.77439324 14.60745424 -4.59151405 12.21071877 -4.4375 9.8125 C-4.35371094 8.54019531 -4.26992188 7.26789063 -4.18359375 5.95703125 C-4.12300781 4.98121094 -4.06242188 4.00539062 -4 3 C-3.01 2.67 -2.02 2.34 -1 2 C-0.67 1.34 -0.34 0.68 0 0 Z " fill="#191919" transform="translate(820,248)"/>
<path d="M0 0 C4.62 0 9.24 0 14 0 C14 0.99 14 1.98 14 3 C10.37 3 6.74 3 3 3 C3 5.31 3 7.62 3 10 C6.3 10 9.6 10 13 10 C13 10.99 13 11.98 13 13 C10.03 13 7.06 13 4 13 C4 15.31 4 17.62 4 20 C7.63 20 11.26 20 15 20 C15 21.32 15 22.64 15 24 C10.05 24 5.1 24 0 24 C0 16.08 0 8.16 0 0 Z " fill="#AAAAAA" transform="translate(583,306)"/>
<path d="M0 0 C4.04381805 0.84246209 5.53235541 2.35899981 8 5.625 C8 7.275 8 8.925 8 10.625 C4.04 10.625 0.08 10.625 -4 10.625 C-3.67 12.275 -3.34 13.925 -3 15.625 C-0.02934491 15.28272428 -0.02934491 15.28272428 3 14.625 C3.33 13.965 3.66 13.305 4 12.625 C4.99 12.955 5.98 13.285 7 13.625 C5.25 17.5 5.25 17.5 3 18.625 C-0.97357645 19.15481019 -2.54170381 18.94381474 -5.875 16.625 C-8.24266331 13.2824165 -8.75726358 11.56486585 -8.484375 7.5625 C-7.3378965 2.97658599 -4.43992713 0.92498482 0 0 Z " fill="#B3B3B3" transform="translate(615,311.375)"/>
<path d="M0 0 C1.32 0.33 2.64 0.66 4 1 C4.33 0.67 4.66 0.34 5 0 C9.03160191 -0.26293056 10.55892734 -0.29404844 14 2 C14.66 1.34 15.32 0.68 16 0 C18.71269629 -0.34778158 20.32286679 -0.43965521 22.6484375 1.0703125 C24.72420477 4.03398022 24.2854277 6.62946032 24.1875 10.1875 C24.16042969 11.45980469 24.13335938 12.73210937 24.10546875 14.04296875 C24.07066406 15.01878906 24.03585937 15.99460937 24 17 C23.01 17 22.02 17 21 17 C20.505 10.565 20.505 10.565 20 4 C17.525 3.505 17.525 3.505 15 3 C14.67 7.62 14.34 12.24 14 17 C13.01 17 12.02 17 11 17 C10.67 12.71 10.34 8.42 10 4 C8.35 4 6.7 4 5 4 C3.18884044 5.81115956 3.61800552 8.61278227 3.4375 11.0625 C3.31181641 12.71958984 3.31181641 12.71958984 3.18359375 14.41015625 C3.12300781 15.26480469 3.06242187 16.11945313 3 17 C2.01 17 1.02 17 0 17 C0 11.39 0 5.78 0 0 Z " fill="#C2C2C3" transform="translate(494,312)"/>
<path d="M0 0 C1.7109375 1.06640625 1.7109375 1.06640625 3 3 C3.29296875 6.35546875 3.29296875 6.35546875 3.1875 10.1875 C3.16042969 11.45980469 3.13335938 12.73210937 3.10546875 14.04296875 C3.07066406 15.01878906 3.03585937 15.99460937 3 17 C1.23186888 17.24915939 -0.53974982 17.47366632 -2.3125 17.6875 C-3.29863281 17.81511719 -4.28476562 17.94273437 -5.30078125 18.07421875 C-8 18 -8 18 -9.83203125 16.67578125 C-11.48266303 14.30748347 -11.42346072 12.82307144 -11 10 C-10 8.1875 -10 8.1875 -8 7 C-5.28125957 6.75332927 -2.74116148 6.86518878 0 7 C-0.33 6.01 -0.66 5.02 -1 4 C-3.97 3.505 -3.97 3.505 -7 3 C-7 3.66 -7 4.32 -7 5 C-7.99 4.67 -8.98 4.34 -10 4 C-9.67 3.01 -9.34 2.02 -9 1 C-5.95016004 -0.52491998 -3.3576631 -0.23562548 0 0 Z " fill="#B9BABA" transform="translate(652,312)"/>
<path d="M0 0 C0.66 0.33 1.32 0.66 2 1 C1.67 2.32 1.34 3.64 1 5 C-1.10390835 5.60506561 -3.20814347 6.20899496 -5.3125 6.8125 C-6.26938721 7.08815796 -6.26938721 7.08815796 -7.24560547 7.36938477 C-11.0251503 8.45337069 -14.81512168 9.46690142 -18.625 10.4375 C-23.81819327 11.826467 -28.6530159 13.84573783 -33.56640625 16.01171875 C-36 17 -36 17 -38 17 C-38 16.01 -38 15.02 -38 14 C-40.31 14.33 -42.62 14.66 -45 15 C-37.82759402 10.21839601 -29.24949293 8.03662799 -21 5.8125 C-19.61941406 5.42288086 -19.61941406 5.42288086 -18.2109375 5.02539062 C-12.14951018 3.37343825 -6.26793595 2.41723923 0 2 C0 1.34 0 0.68 0 0 Z " fill="#150502" transform="translate(241,195)"/>
<path d="M0 0 C1.7109375 1.06640625 1.7109375 1.06640625 3 3 C3.29296875 6.35546875 3.29296875 6.35546875 3.1875 10.1875 C3.16042969 11.45980469 3.13335938 12.73210937 3.10546875 14.04296875 C3.07066406 15.01878906 3.03585937 15.99460937 3 17 C1.35 16.67 -0.3 16.34 -2 16 C-2 16.66 -2 17.32 -2 18 C-7.42857143 18.36190476 -7.42857143 18.36190476 -9.875 16.8125 C-11.40659584 14.34492892 -11.42822025 12.85480169 -11 10 C-10 8.1875 -10 8.1875 -8 7 C-5.28125957 6.75332927 -2.74116148 6.86518878 0 7 C-0.33 6.01 -0.66 5.02 -1 4 C-3.97 3.505 -3.97 3.505 -7 3 C-7 3.66 -7 4.32 -7 5 C-7.99 4.67 -8.98 4.34 -10 4 C-9.67 3.01 -9.34 2.02 -9 1 C-5.95016004 -0.52491998 -3.3576631 -0.23562548 0 0 Z " fill="#C3C3C4" transform="translate(532,312)"/>
<path d="M0 0 C2.4375 1.625 2.4375 1.625 4 4 C4 5.98 4 7.96 4 10 C0.04 10 -3.92 10 -8 10 C-7.34 11.65 -6.68 13.3 -6 15 C-5.0925 14.67 -4.185 14.34 -3.25 14 C0 13 0 13 4 13 C4 13.66 4 14.32 4 15 C-0.01927691 17.67951794 -3.28035092 17.6767467 -8 17 C-10.0625 15.5625 -10.0625 15.5625 -11 13 C-11.62304044 8.64670464 -11.7644591 5.25371292 -9.4375 1.4375 C-6.04481874 -0.56331202 -3.87285839 -0.55326548 0 0 Z " fill="#BAB9BA" transform="translate(680,312)"/>
<path d="M0 0 C1.32 0 2.64 0 4 0 C4 1.32 4 2.64 4 4 C5.32 4 6.64 4 8 4 C8.12117187 4.81984375 8.24234375 5.6396875 8.3671875 6.484375 C8.53476562 7.56203125 8.70234375 8.6396875 8.875 9.75 C9.03742187 10.81734375 9.19984375 11.8846875 9.3671875 12.984375 C9.93223882 15.67708871 10.63422914 17.63572439 12 20 C10.37675914 20.22162329 8.751279 20.42689803 7.125 20.625 C5.76761719 20.79902344 5.76761719 20.79902344 4.3828125 20.9765625 C3.59648438 20.98429687 2.81015625 20.99203125 2 21 C0 19 0 19 -0.1953125 16.1796875 C-0.16050781 14.54386719 -0.16050781 14.54386719 -0.125 12.875 C-0.10695313 11.77929688 -0.08890625 10.68359375 -0.0703125 9.5546875 C-0.04710937 8.71164062 -0.02390625 7.86859375 0 7 C-0.99 7 -1.98 7 -3 7 C-3 6.34 -3 5.68 -3 5 C-2.01 5 -1.02 5 0 5 C0 3.35 0 1.7 0 0 Z " fill="#2D2D2D" transform="translate(540,308)"/>
<path d="M0 0 C3.60605595 3.01731212 7.04002844 6.00213092 10.25 9.4375 C13.92830054 13.20796753 18.15105406 15.81104914 22.64453125 18.51953125 C25 20 25 20 27 22 C23.890625 23.265625 23.890625 23.265625 20 24 C17.46200354 22.67418096 15.84782509 21.59028907 13.75 19.75 C13.19932861 19.29705566 12.64865723 18.84411133 12.08129883 18.37744141 C10.36115689 16.94616885 8.67722563 15.48124943 7 14 C6.45069824 13.51692383 5.90139648 13.03384766 5.33544922 12.53613281 C2.17666504 9.73995688 -0.92890923 6.89261055 -4 4 C-2.68 3.34 -1.36 2.68 0 2 C0 1.34 0 0.68 0 0 Z " fill="#1A0701" transform="translate(160,263)"/>
<path d="M0 0 C2.64 0 5.28 0 8 0 C6.42503263 7.30212142 3.76671785 14.07264539 1 21 C0.34 19.68 -0.32 18.36 -1 17 C-2.65 17 -4.3 17 -6 17 C-4.33846988 11.14340094 -2.52958084 5.5409866 0 0 Z " fill="#E9E9E9" transform="translate(407,241)"/>
<path d="M0 0 C0.99 0 1.98 0 3 0 C3 5.61 3 11.22 3 17 C1.35 17 -0.3 17 -2 17 C-2.33 17.33 -2.66 17.66 -3 18 C-6.5 17.6875 -6.5 17.6875 -10 17 C-11.50156874 13.99686252 -11.09281204 11.20932478 -11.0625 7.875 C-11.05347656 6.59367187 -11.04445313 5.31234375 -11.03515625 3.9921875 C-11.02355469 3.00476563 -11.01195312 2.01734375 -11 1 C-10.34 1 -9.68 1 -9 1 C-8.67 4.96 -8.34 8.92 -8 13 C-6.02 13.66 -4.04 14.32 -2 15 C-1.93941406 14.00097656 -1.87882812 13.00195312 -1.81640625 11.97265625 C-1.73261719 10.68230469 -1.64882813 9.39195312 -1.5625 8.0625 C-1.48128906 6.77472656 -1.40007812 5.48695313 -1.31640625 4.16015625 C-1 1 -1 1 0 0 Z " fill="#A5A5A6" transform="translate(458,312)"/>
<path d="M0 0 C7.59 0 15.18 0 23 0 C21.68 0.33 20.36 0.66 19 1 C19 1.66 19 2.32 19 3 C15.40016946 6.08556903 11.9345955 7.85981067 7.25 8.5625 C4 8 4 8 1.5625 6.25 C0 4 0 4 0 0 Z " fill="#191919" transform="translate(463,259)"/>
<path d="M0 0 C7.59 0 15.18 0 23 0 C23 0.33 23 0.66 23 1 C21.02 1 19.04 1 17 1 C17 1.99 17 2.98 17 4 C13.77499528 6.75305281 11.59553848 7.91785676 7.375 8.5 C4 8 4 8 1.5625 6.25 C0 4 0 4 0 0 Z " fill="#191919" transform="translate(558,259)"/>
<path d="M0 0 C0.99 0.103125 1.98 0.20625 3 0.3125 C5.31332486 3.78248729 5.33957563 5.23759248 5 9.3125 C4.01 10.7975 4.01 10.7975 3 12.3125 C0 12.6875 0 12.6875 -3 12.3125 C-5.44897847 8.63903229 -5.31537716 6.64893601 -5 2.3125 C-3 0.3125 -3 0.3125 0 0 Z " fill="#111111" transform="translate(483,314.6875)"/>
<path d="M0 0 C0.66 0 1.32 0 2 0 C2.33 3.96 2.66 7.92 3 12 C4.65 12.33 6.3 12.66 8 13 C9.81115956 11.18884044 9.38199448 8.38721773 9.5625 5.9375 C9.64628906 4.83277344 9.73007812 3.72804688 9.81640625 2.58984375 C9.87699219 1.73519531 9.93757813 0.88054687 10 0 C10.99 0 11.98 0 13 0 C13 5.28 13 10.56 13 16 C3.60207612 17.34256055 3.60207612 17.34256055 1.1875 15.96875 C-0.6363819 12.9449458 -0.28343191 10.29802621 -0.1875 6.8125 C-0.16042969 5.54019531 -0.13335937 4.26789063 -0.10546875 2.95703125 C-0.07066406 1.98121094 -0.03585937 1.00539063 0 0 Z " fill="#C1C1C1" transform="translate(360,313)"/>
<path d="M0 0 C1.32 0.33 2.64 0.66 4 1 C4.99 4.63 5.98 8.26 7 12 C7.66 12 8.32 12 9 12 C9.18175781 11.07767578 9.18175781 11.07767578 9.3671875 10.13671875 C9.53476562 9.32847656 9.70234375 8.52023437 9.875 7.6875 C10.03742187 6.88699219 10.19984375 6.08648437 10.3671875 5.26171875 C11 3 11 3 13 0 C13.99 0 14.98 0 16 0 C14.13236819 5.72210596 12.14710968 11.37661751 10 17 C8.68 17 7.36 17 6 17 C4.99580363 14.5433053 3.99649499 12.08481647 3 9.625 C2.71382812 8.92632812 2.42765625 8.22765625 2.1328125 7.5078125 C0 2.2265625 0 2.2265625 0 0 Z " fill="#BABABA" transform="translate(624,312)"/>
<path d="M0 0 C2.5 0.25 2.5 0.25 4.5 2.25 C4.765625 4.125 4.765625 4.125 4.75 6.25 C4.75515625 6.95125 4.7603125 7.6525 4.765625 8.375 C4.5 10.25 4.5 10.25 2.5 12.25 C0 12.5 0 12.5 -2.5 12.25 C-4.5 10.25 -4.5 10.25 -4.765625 8.375 C-4.76046875 7.67375 -4.7553125 6.9725 -4.75 6.25 C-4.75515625 5.54875 -4.7603125 4.8475 -4.765625 4.125 C-4.31971142 0.97737476 -3.03899237 0.30389924 0 0 Z " fill="#0E0E0E" transform="translate(398.5,314.75)"/>
<path d="M0 0 C0.99 0 1.98 0 3 0 C3 1.32 3 2.64 3 4 C4.32 4 5.64 4 7 4 C7 4.99 7 5.98 7 7 C5.68 7 4.36 7 3 7 C3.33 10.63 3.66 14.26 4 18 C4.99 18.33 5.98 18.66 7 19 C7 19.66 7 20.32 7 21 C5.00045254 21.04254356 2.99958364 21.04080783 1 21 C0 20 0 20 -0.09765625 17.05859375 C-0.08605469 15.86363281 -0.07445312 14.66867187 -0.0625 13.4375 C-0.05347656 12.23996094 -0.04445313 11.04242188 -0.03515625 9.80859375 C-0.02355469 8.88175781 -0.01195312 7.95492188 0 7 C-0.99 7 -1.98 7 -3 7 C-3 6.01 -3 5.02 -3 4 C-2.01 4 -1.02 4 0 4 C0 2.68 0 1.36 0 0 Z " fill="#B9BABA" transform="translate(660,308)"/>
<path d="M0 0 C1.32 0 2.64 0 4 0 C4 7.59 4 15.18 4 23 C2.68 23 1.36 23 0 23 C0 15.41 0 7.82 0 0 Z " fill="#9B9B9B" transform="translate(384,306)"/>
<path d="M0 0 C0.90492188 0.02320313 1.80984375 0.04640625 2.7421875 0.0703125 C4.10730469 0.09738281 4.10730469 0.09738281 5.5 0.125 C6.19867187 0.14820313 6.89734375 0.17140625 7.6171875 0.1953125 C7.75390625 2.55078125 7.75390625 2.55078125 7.6171875 5.1953125 C5.12159016 7.8335154 3.55162614 9.06492571 -0.0703125 9.5703125 C-2.3828125 9.1953125 -2.3828125 9.1953125 -4.3828125 7.1953125 C-4.6328125 4.6953125 -4.6328125 4.6953125 -4.3828125 2.1953125 C-2.3828125 0.1953125 -2.3828125 0.1953125 0 0 Z " fill="#141413" transform="translate(762.3828125,258.8046875)"/>
<path d="M0 0 C0.99 0.66 1.98 1.32 3 2 C3.33 3.65 3.66 5.3 4 7 C-0.95 7 -5.9 7 -11 7 C-10.67 5.35 -10.34 3.7 -10 2 C-6.31282562 -0.45811625 -4.35654296 -0.31118164 0 0 Z " fill="#252526" transform="translate(569,247)"/>
<path d="M0 0 C0.99 0 1.98 0 3 0 C3 1.65 3 3.3 3 5 C4.32 5 5.64 5 7 5 C7 5.66 7 6.32 7 7 C5.68 7 4.36 7 3 7 C3 10.96 3 14.92 3 19 C4.32 19 5.64 19 7 19 C7 19.66 7 20.32 7 21 C5.00045254 21.04254356 2.99958364 21.04080783 1 21 C0 20 0 20 -0.09765625 17.05859375 C-0.08605469 15.86363281 -0.07445312 14.66867187 -0.0625 13.4375 C-0.05347656 12.23996094 -0.04445313 11.04242188 -0.03515625 9.80859375 C-0.02355469 8.88175781 -0.01195312 7.95492188 0 7 C-0.99 7 -1.98 7 -3 7 C-3 6.34 -3 5.68 -3 5 C-2.01 5 -1.02 5 0 5 C0 3.35 0 1.7 0 0 Z " fill="#B7B7B8" transform="translate(466,308)"/>
<path d="M0 0 C0.99 0 1.98 0 3 0 C3 1.65 3 3.3 3 5 C4.32 5 5.64 5 7 5 C7 5.66 7 6.32 7 7 C5.68 7 4.36 7 3 7 C3.33 10.63 3.66 14.26 4 18 C4.99 18.33 5.98 18.66 7 19 C7 19.66 7 20.32 7 21 C4.625 21.125 4.625 21.125 2 21 C0 19 0 19 -0.1953125 16.1796875 C-0.16050781 14.54386719 -0.16050781 14.54386719 -0.125 12.875 C-0.10695313 11.77929688 -0.08890625 10.68359375 -0.0703125 9.5546875 C-0.04710937 8.71164062 -0.02390625 7.86859375 0 7 C-0.99 7 -1.98 7 -3 7 C-3 6.34 -3 5.68 -3 5 C-2.01 5 -1.02 5 0 5 C0 3.35 0 1.7 0 0 Z " fill="#D8D8D8" transform="translate(540,308)"/>
<path d="M0 0 C0.66 1.32 1.32 2.64 2 4 C2.66 3.34 3.32 2.68 4 2 C5.32 2 6.64 2 8 2 C8 6.29 8 10.58 8 15 C7.67 15 7.34 15 7 15 C7 11.04 7 7.08 7 3 C6.34 3 5.68 3 5 3 C5 7.29 5 11.58 5 16 C4.34 15.67 3.68 15.34 3 15 C2.01 16.32 1.02 17.64 0 19 C-0.66 18.67 -1.32 18.34 -2 18 C-1.34 17.34 -0.68 16.68 0 16 C0.27107215 12.88267032 0.43005812 10.76454776 -1.125 8 C-2 6 -2 6 -1.125 2.75 C-0.75375 1.8425 -0.3825 0.935 0 0 Z " fill="#3B3B3B" transform="translate(355,310)"/>
<path d="M0 0 C0.66 0 1.32 0 2 0 C2 0.99 2 1.98 2 3 C5.96 3 9.92 3 14 3 C14 3.66 14 4.32 14 5 C10.04 5 6.08 5 2 5 C2.66 6.65 3.32 8.3 4 10 C4.9075 9.67 5.815 9.34 6.75 9 C10 8 10 8 14 8 C14 8.66 14 9.32 14 10 C10.88962372 12.07358419 10.00438748 12.29487123 6.4375 12.3125 C5.65246094 12.32925781 4.86742187 12.34601563 4.05859375 12.36328125 C3.03958984 12.18345703 3.03958984 12.18345703 2 12 C-0.13586678 8.79619983 -0.23132175 7.98060033 -0.125 4.3125 C-0.10695313 3.50425781 -0.08890625 2.69601562 -0.0703125 1.86328125 C-0.04710937 1.24839844 -0.02390625 0.63351562 0 0 Z " fill="#BEBEBF" transform="translate(670,317)"/>
<path d="M0 0 C1.47906892 -0.02689216 2.95827483 -0.04634621 4.4375 -0.0625 C5.26121094 -0.07410156 6.08492188 -0.08570313 6.93359375 -0.09765625 C9 0 9 0 10 1 C10.1875 3.4375 10.1875 3.4375 10 6 C8 8 8 8 6.0546875 8.1953125 C4.03645833 8.13020833 2.01822917 8.06510417 0 8 C0 5.36 0 2.72 0 0 Z " fill="#1D1D1D" transform="translate(343,319)"/>
<path d="M0 0 C1.32 0 2.64 0 4 0 C4 5.94 4 11.88 4 18 C2.68 18 1.36 18 0 18 C0 12.06 0 6.12 0 0 Z " fill="#969696" transform="translate(377,312)"/>
<path d="M0 0 C3.625 0.375 3.625 0.375 6.0625 2.25 C7.625 4.375 7.625 4.375 7.625 6.375 C3.005 6.375 -1.615 6.375 -6.375 6.375 C-4.91785714 0.54642857 -4.91785714 0.54642857 0 0 Z " fill="#0E0D0E" transform="translate(470.375,246.625)"/>
<path d="M0 0 C0.99 0 1.98 0 3 0 C3 7.59 3 15.18 3 23 C2.01 23 1.02 23 0 23 C0 15.41 0 7.82 0 0 Z " fill="#CBCBCA" transform="translate(601,306)"/>
<path d="M0 0 C0.66 0.33 1.32 0.66 2 1 C-1.04106936 4.14851553 -4.3998261 6.62825397 -7.9375 9.1875 C-8.55818359 9.65091797 -9.17886719 10.11433594 -9.81835938 10.59179688 C-13.23820462 13.06472011 -14.66301922 14 -19 14 C-19 14.66 -19 15.32 -19 16 C-20.65 16.33 -22.3 16.66 -24 17 C-24 17.66 -24 18.32 -24 19 C-25.65 18.67 -27.3 18.34 -29 18 C-26.71391401 15.71391401 -24.67616137 14.81060513 -21.75 13.4375 C-10.15759588 7.81583489 -10.15759588 7.81583489 0 0 Z " fill="#B73205" transform="translate(228,280)"/>
<path d="M0 0 C1.32 0.33 2.64 0.66 4 1 C4.33 0.67 4.66 0.34 5 0 C6.99958364 -0.04080783 9.00045254 -0.04254356 11 0 C9 3 9 3 4 5 C3.67 8.96 3.34 12.92 3 17 C2.01 17 1.02 17 0 17 C0 11.39 0 5.78 0 0 Z " fill="#C7C7C8" transform="translate(494,312)"/>
<path d="M0 0 C0.33 0 0.66 0 1 0 C1 1.65 1 3.3 1 5 C-2.96 5 -6.92 5 -11 5 C-10.67 6.65 -10.34 8.3 -10 10 C-7.02934491 9.65772428 -7.02934491 9.65772428 -4 9 C-3.67 8.34 -3.34 7.68 -3 7 C-2.01 7.33 -1.02 7.66 0 8 C-1.75 11.875 -1.75 11.875 -4 13 C-7.64427515 13.39611686 -9.38363378 13.42671508 -12.4375 11.3125 C-12.953125 10.549375 -13.46875 9.78625 -14 9 C-13.67 7.35 -13.34 5.7 -13 4 C-8.71 4 -4.42 4 0 4 C0 2.68 0 1.36 0 0 Z " fill="#939394" transform="translate(622,317)"/>
<path d="M0 0 C6.4 -0.49230769 6.4 -0.49230769 9.4375 2 C10.2109375 2.99 10.2109375 2.99 11 4 C10.34 4 9.68 4 9 4 C9 5.32 9 6.64 9 8 C1.25 6.125 1.25 6.125 -1 5 C-0.67 3.35 -0.34 1.7 0 0 Z " fill="#151515" transform="translate(830,247)"/>
<path d="M0 0 C0.33 0.66 0.66 1.32 1 2 C1.99 2.66 2.98 3.32 4 4 C2.2097939 4.67057887 0.41778511 5.3363469 -1.375 6 C-2.37273437 6.37125 -3.37046875 6.7425 -4.3984375 7.125 C-7 8 -7 8 -9 8 C-9 7.01 -9 6.02 -9 5 C-11.31 5.33 -13.62 5.66 -16 6 C-13.31998165 4.2133211 -10.96871256 3.0677863 -8 1.875 C-7.13375 1.52179688 -6.2675 1.16859375 -5.375 0.8046875 C-3 0 -3 0 0 0 Z " fill="#220A03" transform="translate(212,204)"/>
<path d="M0 0 C6.15234375 -0.09765625 6.15234375 -0.09765625 8 0 C9 1 9 1 9.125 3.5 C9 6 9 6 8 7 C5.32941149 7.14115161 2.67567762 7.04247107 0 7 C0 4.69 0 2.38 0 0 Z " fill="#1C1C1C" transform="translate(343,309)"/>
<path d="M0 0 C0.66 0 1.32 0 2 0 C2 7.59 2 15.18 2 23 C1.34 23 0.68 23 0 23 C-0.05607422 21.86111328 -0.05607422 21.86111328 -0.11328125 20.69921875 C-0.21189453 19.20841797 -0.21189453 19.20841797 -0.3125 17.6875 C-0.37050781 16.70136719 -0.42851562 15.71523438 -0.48828125 14.69921875 C-1.05455738 11.71222024 -1.62585735 10.81552085 -4 9 C-6.09989652 7.82425289 -6.09989652 7.82425289 -8 7 C-2.25 6.875 -2.25 6.875 0 8 C0 5.36 0 2.72 0 0 Z " fill="#D8D8D8" transform="translate(404,306)"/>
<path d="M0 0 C3 0 3 0 4.6875 1.5 C5.120625 1.995 5.55375 2.49 6 3 C6 2.34 6 1.68 6 1 C7.98 1 9.96 1 12 1 C12.33 2.32 12.66 3.64 13 5 C11.72125 5.144375 10.4425 5.28875 9.125 5.4375 C6.74307106 5.70642746 5.15547309 5.92226346 3 7 C3 6.34 3 5.68 3 5 C1.35 5.33 -0.3 5.66 -2 6 C-1.34 4.02 -0.68 2.04 0 0 Z " fill="#131313" transform="translate(639,314)"/>
<path d="M0 0 C3.24978053 2.16652035 3.93702489 3.35939492 5.6875 6.75 C8.16511994 11.44936477 10.72822102 16.08225753 13.375 20.6875 C13.73295654 21.31172852 14.09091309 21.93595703 14.4597168 22.57910156 C15.3055013 24.05329509 16.15260263 25.526733 17 27 C15.24609375 26.90234375 15.24609375 26.90234375 13 26 C11.50225643 23.85909021 10.27623811 21.85524891 9.0625 19.5625 C8.71767578 18.93375977 8.37285156 18.30501953 8.01757812 17.65722656 C6.99524173 15.77975832 5.99416455 13.89251212 5 12 C4.46246094 10.98292969 3.92492187 9.96585937 3.37109375 8.91796875 C0 2.35826211 0 2.35826211 0 0 Z " fill="#D6430D" transform="translate(180,259)"/>
<path d="M0 0 C3.34812407 0.48826809 4.781313 0.87747654 7 3.4375 C7 5.4175 7 7.3975 7 9.4375 C3.04 9.4375 -0.92 9.4375 -5 9.4375 C-5 9.1075 -5 8.7775 -5 8.4375 C-2.03 8.4375 0.94 8.4375 4 8.4375 C3.67 7.1175 3.34 5.7975 3 4.4375 C-0.3 4.4375 -3.6 4.4375 -7 4.4375 C-4.73025981 1.64397362 -3.62512706 0.52866436 0 0 Z " fill="#B1B1B1" transform="translate(557,311.5625)"/>
<path d="M0 0 C0.763125 0.309375 1.52625 0.61875 2.3125 0.9375 C4.18789677 1.67893593 6.08684652 2.36228217 8 3 C8 3.66 8 4.32 8 5 C5.08444885 5.67189656 2.16773049 6.33769308 -0.75 7 C-1.9875 7.28617188 -1.9875 7.28617188 -3.25 7.578125 C-4.44882813 7.84882813 -4.44882813 7.84882813 -5.671875 8.125 C-6.4050293 8.29257813 -7.13818359 8.46015625 -7.89355469 8.6328125 C-10 9 -10 9 -14 9 C-14 8.34 -14 7.68 -14 7 C-9.05 5.68 -4.1 4.36 1 3 C0.67 2.01 0.34 1.02 0 0 Z " fill="#D33E0D" transform="translate(233,192)"/>
<path d="M0 0 C0.556875 0.495 1.11375 0.99 1.6875 1.5 C4.38162983 3.24754367 5.85375007 3.26218749 9 3 C9.33 2.34 9.66 1.68 10 1 C10.99 1.33 11.98 1.66 13 2 C11.25 5.875 11.25 5.875 9 7 C3.67924528 7.45283019 3.67924528 7.45283019 1.125 5.75 C0 4 0 4 0 0 Z " fill="#AAABAB" transform="translate(551,323)"/>
<path d="M0 0 C0 5.61 0 11.22 0 17 C-0.33 16.01 -0.66 15.02 -1 14 C-1.99 13.67 -2.98 13.34 -4 13 C-4.08121924 11.39667209 -4.13929134 9.79215974 -4.1875 8.1875 C-4.22230469 7.29417969 -4.25710938 6.40085937 -4.29296875 5.48046875 C-4 3 -4 3 -2.55078125 1.17578125 C-1 0 -1 0 0 0 Z " fill="#060606" transform="translate(494,312)"/>
<path d="M0 0 C1.134375 0.020625 2.26875 0.04125 3.4375 0.0625 C2.5625 4.9375 2.5625 4.9375 1.4375 6.0625 C-0.22867115 6.10313832 -1.89638095 6.105221 -3.5625 6.0625 C-3.94468767 4.40635343 -4.27645102 2.73792976 -4.5625 1.0625 C-3.5625 0.0625 -3.5625 0.0625 0 0 Z " fill="#222222" transform="translate(528.5625,320.9375)"/>
<path d="M0 0 C0.33 0 0.66 0 1 0 C1.58058538 3.010209 2.0272253 5.92898664 2 9 C0.4375 11.0625 0.4375 11.0625 -2 12 C-5.25 12.1875 -5.25 12.1875 -8 12 C-8.33 10.35 -8.66 8.7 -9 7 C-7.2984375 7.2784375 -7.2984375 7.2784375 -5.5625 7.5625 C-4.386875 7.706875 -3.21125 7.85125 -2 8 C-0.03177114 6.03177114 -0.33751619 2.65191291 0 0 Z " fill="#B6B7B8" transform="translate(403,318)"/>
<path d="M0 0 C2.31 0 4.62 0 7 0 C6.125 4.875 6.125 4.875 5 6 C3.33382885 6.04063832 1.66611905 6.042721 0 6 C-1.125 2.25 -1.125 2.25 0 0 Z " fill="#202020" transform="translate(645,321)"/>
<path d="M0 0 C0.99 0.33 1.98 0.66 3 1 C3.48539326 8.28089888 3.48539326 8.28089888 1.3125 11.5 C-1.37976221 13.24633224 -2.85160094 13.34982212 -6 13 C-5.195625 12.34 -4.39125 11.68 -3.5625 11 C-0.24851076 7.12020772 -0.25422975 4.99985175 0 0 Z " fill="#CACACA" transform="translate(488,316)"/>
<path d="M0 0 C2.56616632 3.84924948 2.55097676 6.4349304 3 11 C3.66 7.7 4.32 4.4 5 1 C5.88764619 4.55058475 6.02293812 7.40351314 5.96875 11.02734375 C6.00691792 13.43669375 6.41652105 15.66608421 7 18 C6.34 17.67 5.68 17.34 5 17 C5 16.01 5 15.02 5 14 C3.68 14.33 2.36 14.66 1 15 C0.67 10.05 0.34 5.1 0 0 Z " fill="#686868" transform="translate(450,249)"/>
<path d="M0 0 C0.66 0 1.32 0 2 0 C3.31626692 3.61973402 4 6.09567131 4 10 C2.02 10 0.04 10 -2 10 C-1.54177532 6.53058454 -1.10868317 3.32604951 0 0 Z " fill="#1F1F1F" transform="translate(433,310)"/>
<path d="M0 0 C1.22589844 0.01353516 1.22589844 0.01353516 2.4765625 0.02734375 C3.41628906 0.04474609 3.41628906 0.04474609 4.375 0.0625 C4.375 0.3925 4.375 0.7225 4.375 1.0625 C1.735 1.0625 -0.905 1.0625 -3.625 1.0625 C-2.965 3.3725 -2.305 5.6825 -1.625 8.0625 C-5.29910785 9.23821451 -8.79429183 9.13616746 -12.625 9.0625 C-12.625 8.7325 -12.625 8.4025 -12.625 8.0625 C-10.645 8.0625 -8.665 8.0625 -6.625 8.0625 C-6.625 5.7525 -6.625 3.4425 -6.625 1.0625 C-4.21954362 -0.14022819 -2.67503047 -0.03821472 0 0 Z " fill="#323232" transform="translate(670.625,239.9375)"/>
<path d="M0 0 C2.97 0 5.94 0 9 0 C9.33 0.66 9.66 1.32 10 2 C10.66 1.67 11.32 1.34 12 1 C12 7.27 12 13.54 12 20 C11.67 20 11.34 20 11 20 C11 15.05 11 10.1 11 5 C10.34 5 9.68 5 9 5 C8.34 5.66 7.68 6.32 7 7 C7.33 5.02 7.66 3.04 8 1 C5.36 1 2.72 1 0 1 C0 0.67 0 0.34 0 0 Z " fill="#1C1C1D" transform="translate(407,240)"/>
<path d="M0 0 C1.21816406 0.03480469 1.21816406 0.03480469 2.4609375 0.0703125 C3.68683594 0.09738281 3.68683594 0.09738281 4.9375 0.125 C5.87722656 0.15980469 5.87722656 0.15980469 6.8359375 0.1953125 C6.8359375 0.5253125 6.8359375 0.8553125 6.8359375 1.1953125 C4.5259375 1.1953125 2.2159375 1.1953125 -0.1640625 1.1953125 C-0.49831985 3.56906111 -0.49831985 3.56906111 -0.1640625 6.1953125 C1.7363842 8.03846921 1.7363842 8.03846921 3.8359375 9.1953125 C0.9609375 9.3203125 0.9609375 9.3203125 -2.1640625 9.1953125 C-4.1640625 7.1953125 -4.1640625 7.1953125 -4.4140625 4.6953125 C-4.08960287 1.45071617 -3.32727288 0.30029539 0 0 Z " fill="#D5D5D6" transform="translate(645.1640625,319.8046875)"/>
<path d="M0 0 C6.0546875 -0.1953125 6.0546875 -0.1953125 8 0 C8.66 0.66 9.32 1.32 10 2 C9.34 2 8.68 2 8 2 C7.67 2.99 7.34 3.98 7 5 C5.02 5 3.04 5 1 5 C0.67 3.35 0.34 1.7 0 0 Z " fill="#040404" transform="translate(611,322)"/>
<path d="M0 0 C6.0546875 -0.1953125 6.0546875 -0.1953125 8 0 C8.66 0.66 9.32 1.32 10 2 C9.34 2 8.68 2 8 2 C7.67 2.99 7.34 3.98 7 5 C4.625 5.125 4.625 5.125 2 5 C1.34 4.34 0.68 3.68 0 3 C0 2.01 0 1.02 0 0 Z " fill="#151515" transform="translate(553,322)"/>
<path d="M0 0 C0.99 0 1.98 0 3 0 C3.33 3.63 3.66 7.26 4 11 C4.99 11.33 5.98 11.66 7 12 C7 12.66 7 13.32 7 14 C4.625 14.125 4.625 14.125 2 14 C0 12 0 12 -0.1953125 9.1796875 C-0.17210937 8.08914063 -0.14890625 6.99859375 -0.125 5.875 C-0.10695313 4.77929688 -0.08890625 3.68359375 -0.0703125 2.5546875 C-0.04710937 1.71164062 -0.02390625 0.86859375 0 0 Z " fill="#C2C3C3" transform="translate(540,315)"/>
<path d="M0 0 C0.66 0 1.32 0 2 0 C2.33 3.63 2.66 7.26 3 11 C3.99 11.33 4.98 11.66 6 12 C6 12.66 6 13.32 6 14 C4.02 14 2.04 14 0 14 C0 9.38 0 4.76 0 0 Z " fill="#D8D8D9" transform="translate(661,315)"/>
<path d="M0 0 C1.98 0 3.96 0 6 0 C6.33 1.32 6.66 2.64 7 4 C5.72125 4.144375 4.4425 4.28875 3.125 4.4375 C0.74307106 4.70642746 -0.84452691 4.92226346 -3 6 C-2.67 4.68 -2.34 3.36 -2 2 C-1.34 2 -0.68 2 0 2 C0 1.34 0 0.68 0 0 Z " fill="#1A1B1B" transform="translate(525,315)"/>
<path d="M0 0 C0.99 0.33 1.98 0.66 3 1 C3 1.66 3 2.32 3 3 C-0.20380017 5.13586678 -1.01939967 5.23132175 -4.6875 5.125 C-5.49574219 5.10695313 -6.30398438 5.08890625 -7.13671875 5.0703125 C-8.05904297 5.03550781 -8.05904297 5.03550781 -9 5 C-9.33 3.68 -9.66 2.36 -10 1 C-7.98177083 1.32552083 -5.96354167 1.65104167 -3.9453125 1.9765625 C-2.98238281 1.98816406 -2.98238281 1.98816406 -2 2 C-1.34 1.34 -0.68 0.68 0 0 Z " fill="#C6C6C6" transform="translate(681,324)"/>
<path d="M0 0 C0.66 0 1.32 0 2 0 C2.06058594 0.83144531 2.12117188 1.66289062 2.18359375 2.51953125 C2.26738281 3.60621094 2.35117187 4.69289063 2.4375 5.8125 C2.55931641 7.43091797 2.55931641 7.43091797 2.68359375 9.08203125 C2.90212461 12.05989905 2.90212461 12.05989905 4 15 C2.68 14.67 1.36 14.34 0 14 C0 9.38 0 4.76 0 0 Z " fill="#DEDEDE" transform="translate(447,313)"/>
<path d="M0 0 C-0.33 1.32 -0.66 2.64 -1 4 C-3.31 4.33 -5.62 4.66 -8 5 C-8 3.68 -8 2.36 -8 1 C-5.07175348 0.02391783 -3.04386724 -0.08226668 0 0 Z " fill="#0D0300" transform="translate(221,202)"/>
<path d="M0 0 C0.66 0.66 1.32 1.32 2 2 C-2.95 3.485 -2.95 3.485 -8 5 C-7.67 3.68 -7.34 2.36 -7 1 C-7.66 0.67 -8.32 0.34 -9 0 C-5.67778618 -1.10740461 -3.35896892 -0.97233311 0 0 Z " fill="#250A02" transform="translate(228,201)"/>
<path d="M0 0 C0.33 0 0.66 0 1 0 C1.11138159 5.45769811 0.91657981 10.61509359 0 16 C-0.66 15.01 -1.32 14.02 -2 13 C-2.99 13.495 -2.99 13.495 -4 14 C-3.52188823 12.22888156 -3.0424722 10.45811517 -2.5625 8.6875 C-2.29566406 7.70136719 -2.02882813 6.71523437 -1.75390625 5.69921875 C-1.21920575 3.78482474 -0.62855462 1.88566385 0 0 Z " fill="#380F04" transform="translate(261,231)"/>
<path d="M0 0 C0.33 0 0.66 0 1 0 C1.33 4.95 1.66 9.9 2 15 C1.01 15 0.02 15 -1 15 C-1 15.66 -1 16.32 -1 17 C-2.32 16.67 -3.64 16.34 -5 16 C-4.01 16 -3.02 16 -2 16 C-2.33 14.35 -2.66 12.7 -3 11 C-2.01 10.67 -1.02 10.34 0 10 C0 6.7 0 3.4 0 0 Z " fill="#404040" transform="translate(446,313)"/>
<path d="M0 0 C3.63 0.33 7.26 0.66 11 1 C7.67692308 4.93846154 7.67692308 4.93846154 4.25 5.25 C3.5075 5.1675 2.765 5.085 2 5 C1.34 3.35 0.68 1.7 0 0 Z " fill="#191919" transform="translate(672,322)"/>
<path d="M0 0 C1.98 0 3.96 0 6 0 C6.33 1.32 6.66 2.64 7 4 C4.03 4 1.06 4 -2 4 C-1.34 2.68 -0.68 1.36 0 0 Z " fill="#1D1E1D" transform="translate(554,315)"/>
<path d="M0 0 C1.32 0 2.64 0 4 0 C4 0.66 4 1.32 4 2 C3.01 2 2.02 2 1 2 C0.9175 3.11375 0.835 4.2275 0.75 5.375 C0.5025 6.57125 0.255 7.7675 0 9 C-2.046875 10.2265625 -2.046875 10.2265625 -4 11 C-3.5247412 9.35303396 -3.04468109 7.70745272 -2.5625 6.0625 C-2.29566406 5.14597656 -2.02882813 4.22945313 -1.75390625 3.28515625 C-1 1 -1 1 0 0 Z " fill="#ACADAD" transform="translate(432,306)"/>
<path d="M0 0 C1.65 0 3.3 0 5 0 C5.66 1.32 6.32 2.64 7 4 C4.03 4 1.06 4 -2 4 C-1.34 2.68 -0.68 1.36 0 0 Z " fill="#181819" transform="translate(674,315)"/>
<path d="M0 0 C1.98 0 3.96 0 6 0 C6.33 1.32 6.66 2.64 7 4 C4.36 4 1.72 4 -1 4 C-0.67 2.68 -0.34 1.36 0 0 Z " fill="#161616" transform="translate(612,315)"/>
<path d="M0 0 C0.144375 0.598125 0.28875 1.19625 0.4375 1.8125 C0.8872439 3.56150404 1.42892341 5.28677023 2 7 C1.0625 9.1875 1.0625 9.1875 0 11 C-0.99 11 -1.98 11 -3 11 C-2.44894091 7.0507432 -1.61064629 3.65079826 0 0 Z " fill="#A8A8A8" transform="translate(427,318)"/>
<path d="M0 0 C0.66 0 1.32 0 2 0 C2 0.99 2 1.98 2 3 C6.29 3 10.58 3 15 3 C15 3.33 15 3.66 15 4 C10.71 4 6.42 4 2 4 C2 5.32 2 6.64 2 8 C1.34 8 0.68 8 0 8 C0 5.36 0 2.72 0 0 Z " fill="#DADADB" transform="translate(607,317)"/>
<path d="M0 0 C0.66 0.99 1.32 1.98 2 3 C2.99 3.33 3.98 3.66 5 4 C1.375 8.875 1.375 8.875 -2 10 C-1.34 6.7 -0.68 3.4 0 0 Z " fill="#BA2F06" transform="translate(251,294)"/>
<path d="M0 0 C2.5 1.6875 2.5 1.6875 5 4 C5.3125 6.75 5.3125 6.75 5 9 C4.34 9 3.68 9 3 9 C2.67 9.66 2.34 10.32 2 11 C1.34 7.37 0.68 3.74 0 0 Z " fill="#DE3F0F" transform="translate(151,261)"/>
<path d="M0 0 C1.5 1.125 1.5 1.125 3 3 C3.44481122 6.48435452 3.50533069 8.27310124 1.4765625 11.19140625 C0.98929688 11.78824219 0.50203125 12.38507813 0 13 C-0.19397476 11.02145742 -0.38001321 9.0421352 -0.5625 7.0625 C-0.66691406 5.96035156 -0.77132812 4.85820312 -0.87890625 3.72265625 C-0.91886719 2.82417969 -0.95882812 1.92570313 -1 1 C-0.67 0.67 -0.34 0.34 0 0 Z " fill="#181718" transform="translate(546,250)"/>
<path d="M0 0 C3 1 3 1 4 2 C4.04063832 3.66617115 4.042721 5.33388095 4 7 C3.01 7.495 3.01 7.495 2 8 C2.33 8.66 2.66 9.32 3 10 C2.01 10 1.02 10 0 10 C0 6.7 0 3.4 0 0 Z " fill="#040404" transform="translate(544,316)"/>
<path d="M0 0 C2 1.625 2 1.625 4 4 C4.25 7.25 4.25 7.25 4 10 C1 8 1 8 0 4 C-2.97 3.67 -5.94 3.34 -9 3 C-9 2.67 -9 2.34 -9 2 C-6.03 2 -3.06 2 0 2 C0 1.34 0 0.68 0 0 Z " fill="#B2B3B3" transform="translate(352,316)"/>
<path d="M0 0 C0.33 0.66 0.66 1.32 1 2 C1.66 2.33 2.32 2.66 3 3 C2.67 5.31 2.34 7.62 2 10 C1.67 10 1.34 10 1 10 C0.67 7.69 0.34 5.38 0 3 C-0.99 3 -1.98 3 -3 3 C-3 6.3 -3 9.6 -3 13 C-3.33 13 -3.66 13 -4 13 C-4 9.37 -4 5.74 -4 2 C-2.68 2 -1.36 2 0 2 C0 1.34 0 0.68 0 0 Z " fill="#262626" transform="translate(667,313)"/>
<path d="M0 0 C0 0.66 0 1.32 0 2 C-0.928125 2.2475 -1.85625 2.495 -2.8125 2.75 C-6.16458325 4.06454245 -7.1877803 4.97963384 -9 8 C-9.33 6.35 -9.66 4.7 -10 3 C-6.68152292 -0.06320961 -4.44849969 -0.3033068 0 0 Z " fill="#C6C6C6" transform="translate(618,312)"/>
<path d="M0 0 C1.125 1.6875 1.125 1.6875 2 4 C1.24101587 7.18773336 0.69126741 8.57304072 -2.125 10.3125 C-3.053125 10.6528125 -3.053125 10.6528125 -4 11 C-3.48964169 6.6109185 -2.47785723 3.66291938 0 0 Z " fill="#E8E8E8" transform="translate(395,254)"/>
<path d="M0 0 C0 1.98 0 3.96 0 6 C-0.99 5.67 -1.98 5.34 -3 5 C-3.6875 2.9375 -3.6875 2.9375 -4 1 C-6.64 0.67 -9.28 0.34 -12 0 C-12 -0.33 -12 -0.66 -12 -1 C-3.42857143 -2.42857143 -3.42857143 -2.42857143 0 0 Z " fill="#B5B5B5" transform="translate(355,309)"/>
<path d="M0 0 C3.3 0 6.6 0 10 0 C9.01 0.33 8.02 0.66 7 1 C7 1.66 7 2.32 7 3 C4.36 3.33 1.72 3.66 -1 4 C-0.67 2.68 -0.34 1.36 0 0 Z " fill="#0D0E0E" transform="translate(429,323)"/>
<path d="M0 0 C1.125 3.75 1.125 3.75 0 6 C2.97 6.33 5.94 6.66 9 7 C9 7.33 9 7.66 9 8 C8.30132812 8.06058594 7.60265625 8.12117188 6.8828125 8.18359375 C5.51769531 8.30927734 5.51769531 8.30927734 4.125 8.4375 C3.22007812 8.51871094 2.31515625 8.59992188 1.3828125 8.68359375 C-1.01110861 8.86989285 -1.01110861 8.86989285 -3 10 C-2.25 3.375 -2.25 3.375 0 0 Z " fill="#E6E5E5" transform="translate(430,314)"/>
<path d="M0 0 C0 0.33 0 0.66 0 1 C-1.98 1.33 -3.96 1.66 -6 2 C-6.33 2.99 -6.66 3.98 -7 5 C-7.99 5 -8.98 5 -10 5 C-10 7.64 -10 10.28 -10 13 C-10.33 13 -10.66 13 -11 13 C-11.6147541 5.00819672 -11.6147541 5.00819672 -9.4375 1.4375 C-6.17847619 -0.4844884 -3.71510114 -0.28577701 0 0 Z " fill="#9E9D9E" transform="translate(680,312)"/>
<path d="M0 0 C0.763125 0.309375 1.52625 0.61875 2.3125 0.9375 C4.18789677 1.67893593 6.08684652 2.36228217 8 3 C8 3.66 8 4.32 8 5 C5.36 5.33 2.72 5.66 0 6 C0.33 5.01 0.66 4.02 1 3 C0.67 2.01 0.34 1.02 0 0 Z " fill="#B12B06" transform="translate(233,192)"/>
<path d="M0 0 C0.33 0 0.66 0 1 0 C1.33 3.63 1.66 7.26 2 11 C3.32 11.33 4.64 11.66 6 12 C6 12.66 6 13.32 6 14 C4.02 14 2.04 14 0 14 C0 9.38 0 4.76 0 0 Z " fill="#CECECE" transform="translate(467,315)"/>
<path d="M0 0 C0 0.99 0 1.98 0 3 C-3.3 3.33 -6.6 3.66 -10 4 C-10 3.34 -10 2.68 -10 2 C-6.3558226 -0.4294516 -4.28758728 -0.16179575 0 0 Z " fill="#181818" transform="translate(569,247)"/>
<path d="M0 0 C-1.1875 1.5 -1.1875 1.5 -3 3 C-5.6875 3.1875 -5.6875 3.1875 -8 3 C-8.33 4.65 -8.66 6.3 -9 8 C-9.33 8 -9.66 8 -10 8 C-10.1875 5.125 -10.1875 5.125 -10 2 C-6.3558226 -0.4294516 -4.28758728 -0.16179575 0 0 Z " fill="#1F1F1F" transform="translate(533,235)"/>
<path d="M0 0 C2 3.875 2 3.875 2 5 C-0.97 5 -3.94 5 -7 5 C-4.49183541 2.49183541 -3.09162264 1.38589981 0 0 Z " fill="#CC4209" transform="translate(194,216)"/>
<path d="M0 0 C0.9590625 0.2784375 0.9590625 0.2784375 1.9375 0.5625 C2.9584375 0.7790625 2.9584375 0.7790625 4 1 C4.33 0.67 4.66 0.34 5 0 C6.99958364 -0.04080783 9.00045254 -0.04254356 11 0 C8.42595029 3.86107457 6.38979741 3.94319692 2 5 C2 3.68 2 2.36 2 1 C1.34 0.67 0.68 0.34 0 0 Z " fill="#9E9D9D" transform="translate(494,312)"/>
<path d="M0 0 C6.4 -0.49230769 6.4 -0.49230769 9.4375 2 C10.2109375 2.99 10.2109375 2.99 11 4 C10.34 4 9.68 4 9 4 C8.67 4.66 8.34 5.32 8 6 C7.67 5.34 7.34 4.68 7 4 C5.7934375 3.7834375 5.7934375 3.7834375 4.5625 3.5625 C2 3 2 3 0 0 Z " fill="#A5A4A4" transform="translate(479,312)"/>
<path d="M0 0 C0.66 0.33 1.32 0.66 2 1 C0 4 0 4 -2.625 4.6875 C-3.40875 4.790625 -4.1925 4.89375 -5 5 C-5 5.66 -5 6.32 -5 7 C-6.65 6.67 -8.3 6.34 -10 6 C-8.0331974 4.0331974 -6.4555341 3.0628363 -4 1.8125 C-3.29875 1.44769531 -2.5975 1.08289063 -1.875 0.70703125 C-1.25625 0.47371094 -0.6375 0.24039062 0 0 Z " fill="#8D2203" transform="translate(209,292)"/>
<path d="M0 0 C-1.15173355 2.46800047 -2.04783565 4.04783565 -4 6 C-4.45811675 7.97235333 -4.45811675 7.97235333 -4.625 10.125 C-4.74875 11.40375 -4.8725 12.6825 -5 14 C-5.33 14 -5.66 14 -6 14 C-6.62674095 4.87743733 -6.62674095 4.87743733 -4.125 1.375 C-2 0 -2 0 0 0 Z " fill="#373737" transform="translate(433,248)"/>
<path d="M0 0 C2.64 0 5.28 0 8 0 C7.34 1.32 6.68 2.64 6 4 C6 3.34 6 2.68 6 2 C3.13275314 2.57344937 2.1385485 2.8614515 0 5 C0 3.35 0 1.7 0 0 Z " fill="#F3F3F3" transform="translate(407,241)"/>
<path d="M0 0 C0.33 1.32 0.66 2.64 1 4 C0.13375 4.309375 0.13375 4.309375 -0.75 4.625 C-3.81410544 6.49750888 -5.15539968 8.96958519 -7 12 C-7.33 11.01 -7.66 10.02 -8 9 C-6.6015625 6.9921875 -6.6015625 6.9921875 -4.625 4.875 C-3.97789062 4.17117187 -3.33078125 3.46734375 -2.6640625 2.7421875 C-1.7838265 1.82062587 -0.90113574 0.90113574 0 0 Z " fill="#A12705" transform="translate(169,225)"/>
<path d="M0 0 C2 1.75 2 1.75 4 4 C4 5.32 4 6.64 4 8 C2.68 7.67 1.36 7.34 0 7 C0 4.69 0 2.38 0 0 Z " fill="#BFBFBF" transform="translate(440,321)"/>
<path d="M0 0 C-0.99 1.485 -0.99 1.485 -2 3 C-4.625 3.1875 -4.625 3.1875 -7 3 C-7 3.66 -7 4.32 -7 5 C-7.99 4.67 -8.98 4.34 -10 4 C-9.67 3.01 -9.34 2.02 -9 1 C-6.04335481 -0.4783226 -3.25770263 -0.06032783 0 0 Z " fill="#A5A5A6" transform="translate(532,312)"/>
<path d="M0 0 C0.66 0 1.32 0 2 0 C1.38461538 6.52307692 1.38461538 6.52307692 -0.5625 8.9375 C-1.036875 9.288125 -1.51125 9.63875 -2 10 C-2.6875 8.375 -2.6875 8.375 -3 6 C-1.5625 2.75 -1.5625 2.75 0 0 Z " fill="#AE2F0A" transform="translate(254,282)"/>
<path d="M0 0 C0.99 0.33 1.98 0.66 3 1 C2.67 2.32 2.34 3.64 2 5 C-0.31 5.33 -2.62 5.66 -5 6 C-4.01 5.34 -3.02 4.68 -2 4 C-2 3.34 -2 2.68 -2 2 C-1.34 2 -0.68 2 0 2 C0 1.34 0 0.68 0 0 Z " fill="#2A2A29" transform="translate(836,262)"/>
<path d="M0 0 C3.4375 0.8125 3.4375 0.8125 7 2 C7.33 2.99 7.66 3.98 8 5 C2.375 5.25 2.375 5.25 -1 3 C-0.67 2.01 -0.34 1.02 0 0 Z " fill="#ABAAAB" transform="translate(478,325)"/>
<path d="M0 0 C0.33 0 0.66 0 1 0 C1.042721 1.66611905 1.04063832 3.33382885 1 5 C0 6 0 6 -2.50390625 6.09765625 C-4.01791016 6.08025391 -4.01791016 6.08025391 -5.5625 6.0625 C-6.57441406 6.05347656 -7.58632813 6.04445313 -8.62890625 6.03515625 C-9.41136719 6.02355469 -10.19382812 6.01195312 -11 6 C-11 5.67 -11 5.34 -11 5 C-9.1128125 4.87625 -9.1128125 4.87625 -7.1875 4.75 C-3.6747358 4.34865264 -3.6747358 4.34865264 -1.0625 1.9375 C-0.711875 1.298125 -0.36125 0.65875 0 0 Z " fill="#DFE0E1" transform="translate(354,322)"/>
<path d="M0 0 C0 3.3 0 6.6 0 10 C-0.33 9.01 -0.66 8.02 -1 7 C-1.99 6.67 -2.98 6.34 -4 6 C-3.625 3.5625 -3.625 3.5625 -3 1 C-1 0 -1 0 0 0 Z " fill="#141514" transform="translate(494,319)"/>
<path d="M0 0 C1.65 0 3.3 0 5 0 C5 1.65 5 3.3 5 5 C4.01 5 3.02 5 2 5 C1.34 4.34 0.68 3.68 0 3 C0 2.01 0 1.02 0 0 Z " fill="#1A1A1A" transform="translate(463,260)"/>
<path d="M0 0 C2.31 0 4.62 0 7 0 C7 0.99 7 1.98 7 3 C5.02 3 3.04 3 1 3 C0.67 2.01 0.34 1.02 0 0 Z " fill="#DFDFDF" transform="translate(798,240)"/>
<path d="M0 0 C0.99 0.33 1.98 0.66 3 1 C2.34 2.32 1.68 3.64 1 5 C-1.31 5 -3.62 5 -6 5 C-5.38125 4.731875 -4.7625 4.46375 -4.125 4.1875 C-1.7004767 3.04443152 -1.7004767 3.04443152 0 0 Z " fill="#C1C1C2" transform="translate(619,324)"/>
<path d="M0 0 C1.16945792 0.80847729 2.33550461 1.62189112 3.5 2.4375 C4.47453125 3.11619141 4.47453125 3.11619141 5.46875 3.80859375 C5.9740625 4.20175781 6.479375 4.59492188 7 5 C7 5.33 7 5.66 7 6 C5.02 6 3.04 6 1 6 C0.67 4.02 0.34 2.04 0 0 Z " fill="#CACACA" transform="translate(551,323)"/>
<path d="M0 0 C0.66 0.33 1.32 0.66 2 1 C2 2.32 2 3.64 2 5 C-1.96 5 -5.92 5 -10 5 C-10 4.67 -10 4.34 -10 4 C-5.545 3.505 -5.545 3.505 -1 3 C-0.67 2.01 -0.34 1.02 0 0 Z " fill="#E7E8E9" transform="translate(562,316)"/>
<path d="M0 0 C0.99 0 1.98 0 3 0 C3 1.65 3 3.3 3 5 C4.32 5.33 5.64 5.66 7 6 C4.69 5.67 2.38 5.34 0 5 C0 3.35 0 1.7 0 0 Z " fill="#D5D5D5" transform="translate(466,308)"/>
<path d="M0 0 C0.66 0.33 1.32 0.66 2 1 C0.35 2.65 -1.3 4.3 -3 6 C-3.99 5.67 -4.98 5.34 -6 5 C-2.25 1.125 -2.25 1.125 0 0 Z " fill="#A52904" transform="translate(216,288)"/>
<path d="M0 0 C1.32 0 2.64 0 4 0 C4.33 2.31 4.66 4.62 5 7 C3.29115995 5.37660195 1.62553283 3.70680947 0 2 C0 1.34 0 0.68 0 0 Z " fill="#ED4E12" transform="translate(154,253)"/>
<path d="M0 0 C1.32 0.66 2.64 1.32 4 2 C-2.75 6 -2.75 6 -5 6 C-5 5.34 -5 4.68 -5 4 C-3.37373596 2.61767557 -1.7074998 1.28062485 0 0 Z " fill="#BA390C" transform="translate(182,213)"/>
<path d="M0 0 C-1 3 -1 3 -3 4 C-4.99960012 4.039992 -7.00047242 4.04346799 -9 4 C-7 1 -7 1 -5.0625 0.3125 C-3 0 -3 0 0 0 Z " fill="#A7A7A8" transform="translate(653,326)"/>
<path d="M0 0 C2.9375 0.8125 2.9375 0.8125 6 2 C6.33 2.99 6.66 3.98 7 5 C5.02 5 3.04 5 1 5 C0.67 3.35 0.34 1.7 0 0 Z " fill="#A4A5A6" transform="translate(394,325)"/>
<path d="M0 0 C1.85776765 3.13498292 2.20140476 5.37471432 2 9 C0.5 7.8125 0.5 7.8125 -1 6 C-1.25 3.375 -1.25 3.375 -1 1 C-0.67 0.67 -0.34 0.34 0 0 Z " fill="#D2D3D3" transform="translate(392,319)"/>
<path d="M0 0 C0.33 0 0.66 0 1 0 C1.33 4.29 1.66 8.58 2 13 C1.01 13.495 1.01 13.495 0 14 C-0.99 13.34 -1.98 12.68 -3 12 C-2.01 12 -1.02 12 0 12 C0 8.04 0 4.08 0 0 Z " fill="#323232" transform="translate(497,317)"/>
<path d="M0 0 C0.99 0.66 1.98 1.32 3 2 C2.34 2 1.68 2 1 2 C0.67 2.99 0.34 3.98 0 5 C-1.98 5 -3.96 5 -6 5 C-5.34 4.01 -4.68 3.02 -4 2 C-2.68 2 -1.36 2 0 2 C0 1.34 0 0.68 0 0 Z " fill="#222222" transform="translate(618,322)"/>
<path d="M0 0 C1.4606285 2.64738916 2 3.89448334 2 7 C1.01 7.66 0.02 8.32 -1 9 C-1 5.72724974 -0.70074844 3.153368 0 0 Z " fill="#1F2220" transform="translate(355,310)"/>
<path d="M0 0 C0.33 0 0.66 0 1 0 C0.67 2.64 0.34 5.28 0 8 C-0.99 7.67 -1.98 7.34 -3 7 C-1.125 1.125 -1.125 1.125 0 0 Z " fill="#280A01" transform="translate(251,289)"/>
<path d="M0 0 C1.98 0.495 1.98 0.495 4 1 C4 1.99 4 2.98 4 4 C2.35 3.67 0.7 3.34 -1 3 C-0.67 2.01 -0.34 1.02 0 0 Z " fill="#A7A7A9" transform="translate(568,325)"/>
<path d="M0 0 C1.98 0.66 3.96 1.32 6 2 C6 2.66 6 3.32 6 4 C4.02 4 2.04 4 0 4 C0 2.68 0 1.36 0 0 Z " fill="#CACACA" transform="translate(661,325)"/>
<path d="M0 0 C2.64 0 5.28 0 8 0 C8 0.33 8 0.66 8 1 C6.7934375 1.185625 6.7934375 1.185625 5.5625 1.375 C4.716875 1.58125 3.87125 1.7875 3 2 C2.67 2.66 2.34 3.32 2 4 C1.01 3.67 0.02 3.34 -1 3 C-0.67 2.01 -0.34 1.02 0 0 Z " fill="#CACACC" transform="translate(643,313)"/>
<path d="M0 0 C1.98 0 3.96 0 6 0 C5.67 0.99 5.34 1.98 5 3 C1.9375 4.1875 1.9375 4.1875 -1 5 C-0.67 3.35 -0.34 1.7 0 0 Z " fill="#ADADAD" transform="translate(395,312)"/>
<path d="M0 0 C0.99 0.33 1.98 0.66 3 1 C0.36 2.98 -2.28 4.96 -5 7 C-4 3 -4 3 -2.125 1.1875 C-1.42375 0.795625 -0.7225 0.40375 0 0 Z " fill="#E74B10" transform="translate(140,198)"/>
</svg>
