<?xml version="1.0" encoding="UTF-8"?>
<svg version="1.1" xmlns="http://www.w3.org/2000/svg" width="1774" height="404">
<path d="M0 0 C585.42 0 1170.84 0 1774 0 C1774 133.32 1774 266.64 1774 404 C1188.58 404 603.16 404 0 404 C0 270.68 0 137.36 0 0 Z " fill="#F9F8F8" transform="translate(0,0)"/>
<path d="M0 0 C1.17165784 32.70878149 -8.24022372 62.11583311 -30.40283203 86.54638672 C-38.26921721 94.97406113 -38.26921721 94.97406113 -43 97 C-42.11758356 92.12075615 -41.16663586 87.34257421 -39.625 82.625 C-34.42159296 65.87900983 -31.47696906 47.49247905 -32 30 C-32.20496094 30.62648437 -32.40992188 31.25296875 -32.62109375 31.8984375 C-32.89050781 32.71570313 -33.15992188 33.53296875 -33.4375 34.375 C-33.70433594 35.18710938 -33.97117187 35.99921875 -34.24609375 36.8359375 C-35 39 -35 39 -36 41 C-39.01178159 39.55700882 -41.88657075 37.9215709 -44.76733398 36.23413086 C-64.15911865 24.92819031 -84.38134647 17.8152502 -107 18 C-104.80963778 15.5787326 -102.79426069 14.24909619 -99.82421875 12.9140625 C-99.0034082 12.5430542 -98.18259766 12.1720459 -97.33691406 11.78979492 C-96.46260742 11.4054126 -95.58830078 11.02103027 -94.6875 10.625 C-93.78612305 10.22579346 -92.88474609 9.82658691 -91.95605469 9.4152832 C-61.6537498 -3.85479456 -32.19103823 -9.17512915 0 0 Z " fill="#E44E16" transform="translate(292,133)"/>
<path d="M0 0 C0.72799805 0.00465271 1.45599609 0.00930542 2.20605469 0.01409912 C20.10398635 0.1482157 35.21095968 2.85703993 51.875 9.375 C51.875 10.035 51.875 10.695 51.875 11.375 C50.74707031 11.58253906 49.61914062 11.79007813 48.45703125 12.00390625 C31.99810512 15.16819899 16.44890162 20.14493432 1.125 26.9375 C0.32779541 27.28901123 -0.46940918 27.64052246 -1.29077148 28.00268555 C-6.95501502 30.60130712 -12.0324558 33.79160994 -17.125 37.375 C-16.57300558 43.27402474 -15.3386981 48.38179553 -13.3125 53.9375 C-13.06435547 54.65357422 -12.81621094 55.36964844 -12.56054688 56.10742188 C-11.3219818 59.57099191 -9.97491388 62.78828354 -8.11328125 65.96484375 C-6.13628934 69.35563733 -4.66015881 72.76737679 -3.125 76.375 C1.3202194 84.77259926 6.23408084 92.72450339 11.875 100.375 C11.545 101.035 11.215 101.695 10.875 102.375 C-16.22297768 90.39752397 -37.59979079 72.04596845 -49.04150391 44.13964844 C-52.54731542 35.00634158 -55.0862709 26.25091926 -55.125 16.375 C-46.47271534 10.58285595 -38.1860518 6.31944432 -28.125 3.375 C-27.28743164 3.11460938 -26.44986328 2.85421875 -25.58691406 2.5859375 C-17.06660565 0.15403344 -8.78844904 -0.09980052 0 0 Z " fill="#E55017" transform="translate(189.125,115.625)"/>
<path d="M0 0 C0.33 0 0.66 0 1 0 C0.5437946 29.32156527 -9.44561525 62.98771834 -30.875 83.8828125 C-36.17334804 88.59085546 -36.17334804 88.59085546 -39 90 C-56.68003731 86.66591594 -74.43683987 67.64426872 -84.26098633 53.71166992 C-90.91930213 43.92307761 -96.28887691 33.43244343 -100.5 22.375 C-100.74331055 21.73643066 -100.98662109 21.09786133 -101.23730469 20.43994141 C-102.73938643 16.27687252 -103.50577485 12.36939963 -104 8 C-103.34 8 -102.68 8 -102 8 C-100.51953125 9.50390625 -100.51953125 9.50390625 -98.8125 11.5625 C-87.83990848 24.34892808 -74.75205726 33.05957868 -60 41 C-59.31164062 41.4228125 -58.62328125 41.845625 -57.9140625 42.28125 C-55.16942129 43.31189078 -53.79382346 42.89643544 -51 42 C-48.45345562 40.75091287 -46.01763663 39.47005627 -43.5625 38.0625 C-42.86310303 37.66426025 -42.16370605 37.26602051 -41.44311523 36.85571289 C-26.29929299 28.07041477 -12.28417062 17.42602228 -2.125 3 C-1.073125 1.515 -1.073125 1.515 0 0 Z " fill="#E85017" transform="translate(254,179)"/>
<path d="M0 0 C0.33 0 0.66 0 1 0 C0.85536901 9.29582792 -0.19981417 17.96036033 -2.375 27 C-2.68860474 28.30650513 -2.68860474 28.30650513 -3.00854492 29.6394043 C-3.62841958 32.10778727 -4.29596949 34.55438033 -5 37 C-5.31662598 38.1293396 -5.31662598 38.1293396 -5.63964844 39.28149414 C-6.75664046 42.77469838 -7.69559444 44.75840101 -10.59375 47.05859375 C-12.03234375 47.74115234 -12.03234375 47.74115234 -13.5 48.4375 C-14.4590625 48.91058594 -15.418125 49.38367188 -16.40625 49.87109375 C-26.67827346 54.34189914 -37.83876584 51.80166266 -48 48 C-50.9453125 45.859375 -50.9453125 45.859375 -53 44 C-48.17450324 40.67333178 -43.29404526 37.5670802 -38.1875 34.6875 C-24.21142406 26.62232497 -11.44673242 16.24807816 -2.125 3 C-1.073125 1.515 -1.073125 1.515 0 0 Z " fill="#D24411" transform="translate(254,179)"/>
<path d="M0 0 C2.64 0 5.28 0 8 0 C8.33 0.99 8.66 1.98 9 3 C9.55945313 2.51402344 10.11890625 2.02804688 10.6953125 1.52734375 C14.57784508 -1.04565666 18.50459992 -0.61882881 23 0 C27.78612693 2.12716752 30.21964582 4.9653803 32.3046875 9.65234375 C34.02014791 15.44443199 33.99764022 20.92797801 31.375 26.375 C24.74027358 33.70811867 24.74027358 33.70811867 20.53125 34.4140625 C15.16506442 34.58767439 13.51404867 34.3855365 9 31 C8.67 36.28 8.34 41.56 8 47 C5.36 47 2.72 47 0 47 C0 31.49 0 15.98 0 0 Z " fill="#0E0E0E" transform="translate(419,171)"/>
<path d="M0 0 C2.64 0 5.28 0 8 0 C8 5.28 8 10.56 8 16 C9.32 15.01 10.64 14.02 12 13 C17.24899867 12.11988089 21.73288147 12.36644073 26.5 14.75 C30.83931618 18.65538456 32.64627342 21.53811858 33.23828125 27.33203125 C33.42361195 33.52597849 32.70869067 36.98825585 29 42 C24.26620394 46.28295834 21.43527919 47.27454286 15.19921875 47.234375 C12.41443449 46.93759515 10.92670947 46.01047945 9 44 C8.67 44.66 8.34 45.32 8 46 C5.36 46 2.72 46 0 46 C0 30.82 0 15.64 0 0 Z " fill="#0F0E0E" transform="translate(784,158)"/>
<path d="M0 0 C2.67112699 2.3171898 3.6500838 4.28080933 4.68359375 7.640625 C4.97169922 8.54683594 5.25980469 9.45304688 5.55664062 10.38671875 C5.84732422 11.33160156 6.13800781 12.27648437 6.4375 13.25 C8.42052491 19.67589195 10.53311989 25.23794877 14 31 C15.00594193 33.33077783 16.00600157 35.66410369 17 38 C21.4452194 46.39759926 26.35908084 54.34950339 32 62 C31.505 62.99 31.505 62.99 31 64 C18.79120401 58.60363563 8.15503589 52.70675057 -2 44 C-2.68578125 43.43410156 -3.3715625 42.86820313 -4.078125 42.28515625 C-10.29608355 36.73340755 -12.00044457 30.15940529 -12.5 22 C-12.27079371 15.06923838 -9.04232101 8.87228112 -4.3125 3.875 C-2 2 -2 2 0 2 C0 1.34 0 0.68 0 0 Z " fill="#C53D0D" transform="translate(169,154)"/>
<path d="M0 0 C2.64 0 5.28 0 8 0 C8 6.27 8 12.54 8 19 C14.6 19 21.2 19 28 19 C28 12.73 28 6.46 28 0 C30.64 0 33.28 0 36 0 C37 1 37 1 37.12025452 2.82862854 C37.11803391 3.62582809 37.11581329 4.42302765 37.11352539 5.24438477 C37.11344986 6.14524307 37.11337433 7.04610138 37.11329651 7.97425842 C37.10813522 8.95341721 37.10297394 9.93257599 37.09765625 10.94140625 C37.0962413 11.93881332 37.09482635 12.9362204 37.09336853 13.96385193 C37.08775114 17.16343124 37.07519571 20.36294169 37.0625 23.5625 C37.05748724 25.72591045 37.05292395 27.88932199 37.04882812 30.05273438 C37.03777606 35.36851629 37.02049979 40.68424646 37 46 C34.03 46 31.06 46 28 46 C28 39.73 28 33.46 28 27 C21.4 27 14.8 27 8 27 C8 33.27 8 39.54 8 46 C5.03 46 2.06 46 -1 46 C-1.024644 39.60962203 -1.04283317 33.21927148 -1.05493164 26.82885742 C-1.05997308 24.65307127 -1.06680607 22.47728853 -1.07543945 20.30151367 C-1.08751338 17.18146933 -1.09323005 14.06146962 -1.09765625 10.94140625 C-1.10281754 9.96224747 -1.10797882 8.98308868 -1.11329651 7.97425842 C-1.11337204 7.07340012 -1.11344757 6.17254181 -1.11352539 5.24438477 C-1.115746 4.44718521 -1.11796661 3.64998566 -1.12025452 2.82862854 C-1 1 -1 1 0 0 Z " fill="#191919" transform="translate(341,158)"/>
<path d="M0 0 C3.21833257 1.29797214 4.49856858 2.44171786 7 5 C7.9375 7.8125 7.9375 7.8125 8 10 C5.8128711 11.32789969 4.52279544 12.04752686 1.9375 11.8125 C0 11 0 11 -1.3125 9.4375 C-3.08567567 7.64577947 -3.08567567 7.64577947 -6.5625 7.6875 C-10.06268472 7.63589512 -10.06268472 7.63589512 -12 10 C-12.16687448 12.58354218 -12.16687448 12.58354218 -12 15 C-11.45472656 15.24234375 -10.90945313 15.4846875 -10.34765625 15.734375 C-8.75885567 16.44050859 -7.17173263 17.15042382 -5.5859375 17.86328125 C-3.91584581 18.59741521 -2.23383106 19.30525143 -0.5390625 19.98046875 C4.11610773 21.87501477 7.57045469 23.35217418 10 28 C10.7192234 32.59555728 10.37019217 36.93681342 8 41 C2.39897158 46.29827012 -2.82400859 47.47421487 -10.34375 47.3125 C-15.64704268 46.68858321 -18.17746914 44.03898635 -21.375 40 C-23 37 -23 37 -23 33 C-20.09399739 31.74335022 -18.20395416 31 -15 31 C-14.5978125 32.1446875 -14.5978125 32.1446875 -14.1875 33.3125 C-12.72373166 36.70185318 -12.72373166 36.70185318 -10 39 C-5.63293092 39.38991688 -3.69486103 39.46324069 0 37 C0.25015873 33.41642759 0.25015873 33.41642759 0 30 C-0.94875 29.5875 -1.8975 29.175 -2.875 28.75 C-3.82439453 28.33621094 -3.82439453 28.33621094 -4.79296875 27.9140625 C-6.36265242 27.26396342 -7.95139032 26.65907299 -9.55078125 26.0859375 C-18.39998716 22.86089357 -18.39998716 22.86089357 -21 18 C-22.159908 13.82433119 -22.14098096 11.48928685 -20.9375 7.3125 C-16.0890713 -0.97674907 -8.88056628 -1.27968409 0 0 Z " fill="#101010" transform="translate(536,158)"/>
<path d="M0 0 C4.47915015 2.08512162 7.18908976 4.37211828 9 9 C9 12.3 9 15.6 9 19 C1.41 19 -6.18 19 -14 19 C-11.83333333 24.83333333 -11.83333333 24.83333333 -9 26 C-4.67583648 26.43391696 -4.67583648 26.43391696 -1 24.4375 C1 23 1 23 4.25 23.3125 C5.61125 23.6528125 5.61125 23.6528125 7 24 C7.33 24.99 7.66 25.98 8 27 C1.70081596 33.64913871 1.70081596 33.64913871 -3.5859375 34.3359375 C-9.54856963 34.41944775 -13.47137776 34.30771383 -18 30 C-22.35188932 24.61740006 -22.6141624 19.87024522 -22.38671875 13.03125 C-21.72558695 7.84904517 -19.42751562 5.35041983 -15.7578125 1.87890625 C-10.91979832 -1.41724788 -5.63431267 -0.70163139 0 0 Z " fill="#121212" transform="translate(477,171)"/>
<path d="M0 0 C4.87995132 2.26569169 7.63239735 5.17373306 10 10 C10 12.97 10 15.94 10 19 C2.41 19 -5.18 19 -13 19 C-11.45957252 23.80304035 -11.45957252 23.80304035 -9 26 C-4.13992531 26.53129202 -4.13992531 26.53129202 0.0625 24.4375 C2 23 2 23 5.25 23.3125 C6.61125 23.6528125 6.61125 23.6528125 8 24 C8 28 8 28 6.3125 30.125 C1.83173937 33.75804916 -2.14294534 34.40006291 -7.7890625 34.25 C-12.45922072 33.72192557 -15.21929559 31.86510488 -18.3125 28.4375 C-22.36436451 22.58480682 -21.44659823 16.02694354 -20.4375 9.1875 C-16.31817551 0.05334569 -9.51124681 -1.53449879 0 0 Z " fill="#111111" transform="translate(571,171)"/>
<path d="M0 0 C3.23986801 1.18414471 5.24791562 2.82144258 7.13232422 5.77441406 C8.22910278 8.58764799 8.22609744 10.84245109 8.1953125 13.859375 C8.18886719 14.97441406 8.18242188 16.08945313 8.17578125 17.23828125 C8.15902344 18.39714844 8.14226563 19.55601562 8.125 20.75 C8.11597656 21.92433594 8.10695313 23.09867188 8.09765625 24.30859375 C8.07410063 27.20593536 8.04120652 30.10286441 8 33 C5.69 33 3.38 33 1 33 C1 32.01 1 31.02 1 30 C-0.010625 30.66 -1.02125 31.32 -2.0625 32 C-5.84248434 34.14580929 -8.62047095 34.56771673 -13 34 C-15.75 32.6875 -15.75 32.6875 -18 31 C-18.598125 30.608125 -19.19625 30.21625 -19.8125 29.8125 C-21.45475535 27.30589974 -21.53018528 24.94603974 -21.421875 22 C-20.70271866 18.59066623 -18.67331411 17.06574272 -16 15 C-12.54817939 12.81990277 -9.79008973 12.78717196 -5.75 12.875 C-4.67234375 12.89304688 -3.5946875 12.91109375 -2.484375 12.9296875 C-1.25460937 12.96449219 -1.25460937 12.96449219 0 13 C-1.08784968 9.75016865 -1.08784968 9.75016865 -3 7 C-5.91608998 6.66638081 -5.91608998 6.66638081 -9 7 C-9.495 7.515625 -9.99 8.03125 -10.5 8.5625 C-10.995 9.036875 -11.49 9.51125 -12 10 C-15.1875 9.6875 -15.1875 9.6875 -18 9 C-18.33 7.68 -18.66 6.36 -19 5 C-13.62419766 -1.1437741 -7.83818778 -1.08559399 0 0 Z " fill="#090909" transform="translate(770,171)"/>
<path d="M0 0 C2.97 0 5.94 0 9 0 C11.87305529 5.43828322 14.13822397 10.87348531 16.16796875 16.6796875 C16.94206526 18.98334835 16.94206526 18.98334835 18 21 C20.31 14.4 22.62 7.8 25 1 C27.97 1 30.94 1 34 1 C31.77641606 8.94356193 28.97020325 16.58731276 25.92138672 24.2421875 C25.12254295 26.2561946 24.34053272 28.27625473 23.55859375 30.296875 C23.04268631 31.59936267 22.52579316 32.90146043 22.0078125 34.203125 C21.55035645 35.36489258 21.09290039 36.52666016 20.62158203 37.72363281 C18.76796076 41.46882965 16.88121647 43.98136776 14 47 C11.10546875 47.5859375 11.10546875 47.5859375 8.1875 47.375 C7.21167969 47.32085937 6.23585938 47.26671875 5.23046875 47.2109375 C4.49441406 47.14132813 3.75835937 47.07171875 3 47 C3.33 44.69 3.66 42.38 4 40 C6.31 40 8.62 40 11 40 C13.18515324 30.90217338 10.31492696 24.37383549 6.625 16.0625 C6.09690006 14.83356473 5.57084246 13.60374974 5.046875 12.37304688 C4.087971 10.13104983 3.11975726 7.8929946 2.13916016 5.66040039 C1 3 1 3 0 0 Z " fill="#101010" transform="translate(381,171)"/>
<path d="M0 0 C2.97 0 5.94 0 9 0 C11.79308415 6.62391498 14.53267983 13.24733426 17 20 C19.13575435 19.19942857 19.13575435 19.19942857 19.76196289 17.25 C19.9964917 16.5075 20.23102051 15.765 20.47265625 15 C20.73240234 14.195625 20.99214844 13.39125 21.25976562 12.5625 C21.52466797 11.716875 21.78957031 10.87125 22.0625 10 C22.59248557 8.33251543 23.12491012 6.66580343 23.66015625 5 C23.89355713 4.2575 24.12695801 3.515 24.36743164 2.75 C25 1 25 1 26 0 C28.67058851 -0.14115161 31.32432238 -0.04247107 34 0 C33.51876585 4.90858832 32.51052281 7.83453056 30 12 C29.34569081 13.81604184 28.74357039 15.65151029 28.1875 17.5 C26.00781642 24.28123779 23.09763614 30.59599212 20 37 C19.61457031 37.83402344 19.22914063 38.66804688 18.83203125 39.52734375 C17.19025118 43.00590458 16.26605336 44.82263109 13 47 C10.51953125 47.1953125 10.51953125 47.1953125 7.8125 47.125 C6.91144531 47.10695312 6.01039063 47.08890625 5.08203125 47.0703125 C4.39496094 47.04710937 3.70789063 47.02390625 3 47 C3.33 44.69 3.66 42.38 4 40 C4.94875 39.938125 5.8975 39.87625 6.875 39.8125 C10.11230207 39.33814401 10.11230207 39.33814401 11.4375 36.875 C12.34668616 32.22804853 11.75661474 28.51322948 9.640625 24.28125 C7.78902447 20.57804895 6.35554727 16.82171644 4.9375 12.9375 C4.42626657 11.55060226 3.91455869 10.1638793 3.40234375 8.77734375 C3.16370605 8.13007324 2.92506836 7.48280273 2.67919922 6.81591797 C1.82366091 4.52853698 0.92138469 2.26158061 0 0 Z " fill="#111111" transform="translate(666,171)"/>
<path d="M0 0 C3.12578143 1.6720747 5.39281175 3.7856235 7 7 C7.08510205 8.9593604 7.10717656 10.92162794 7.09765625 12.8828125 C7.09443359 14.04941406 7.09121094 15.21601563 7.08789062 16.41796875 C7.07951172 17.64128906 7.07113281 18.86460937 7.0625 20.125 C7.05798828 21.35605469 7.05347656 22.58710938 7.04882812 23.85546875 C7.0370133 26.90369392 7.02054028 29.95182314 7 33 C4.36 33 1.72 33 -1 33 C-1.01981934 32.31373535 -1.03963867 31.6274707 -1.06005859 30.92041016 C-1.15510945 27.82154221 -1.26486847 24.72336706 -1.375 21.625 C-1.4059375 20.54476562 -1.436875 19.46453125 -1.46875 18.3515625 C-1.50742187 17.3203125 -1.54609375 16.2890625 -1.5859375 15.2265625 C-1.63306885 13.79691162 -1.63306885 13.79691162 -1.68115234 12.33837891 C-1.78555796 9.81104824 -1.78555796 9.81104824 -4 8 C-7.5 7.58333333 -7.5 7.58333333 -11 8 C-13.15749784 11.23624676 -13.28360488 12.34394066 -13.4140625 16.10546875 C-13.47207031 17.57983398 -13.47207031 17.57983398 -13.53125 19.08398438 C-13.5621875 20.10814453 -13.593125 21.13230469 -13.625 22.1875 C-13.68300781 23.74114258 -13.68300781 23.74114258 -13.7421875 25.32617188 C-13.83648296 27.88393622 -13.92208202 30.44169287 -14 33 C-16.64 33 -19.28 33 -22 33 C-22 22.44 -22 11.88 -22 1 C-19.69 1 -17.38 1 -15 1 C-15 1.99 -15 2.98 -15 4 C-14.34 4 -13.68 4 -13 4 C-12.67 3.01 -12.34 2.02 -12 1 C-8.27533151 -0.86233425 -4.05504687 -0.57130829 0 0 Z " fill="#0B0B0B" transform="translate(608,171)"/>
<path d="M0 0 C2.6940403 1.01718905 3.85957516 1.9752738 6 4 C6.33 4.99 6.66 5.98 7 7 C3.54976303 9.09478673 3.54976303 9.09478673 1.1875 8.6875 C0.465625 8.460625 -0.25625 8.23375 -1 8 C-3.33094534 7.6503582 -5.66404762 7.31445513 -8 7 C-8.33 8.32 -8.66 9.64 -9 11 C-8.41992188 11.17015625 -7.83984375 11.3403125 -7.2421875 11.515625 C-1.025865 13.44412109 4.25502934 15.38254401 8 21 C8.4375 23.875 8.4375 23.875 8 27 C4.90527601 30.78244043 1.7759465 33.66231778 -3.18359375 34.265625 C-11.31794272 34.20923437 -11.31794272 34.20923437 -15 32 C-17.375 29.5625 -17.375 29.5625 -19 27 C-18.505 25.515 -18.505 25.515 -18 24 C-16.02 23.67 -14.04 23.34 -12 23 C-11.443125 23.99 -11.443125 23.99 -10.875 25 C-9.10364265 27.32791885 -9.10364265 27.32791885 -5.9375 27.3125 C-3.06978072 27.18075966 -3.06978072 27.18075966 -1 26 C-0.34786708 23.97536745 -0.34786708 23.97536745 0 22 C-0.79664063 21.84144531 -1.59328125 21.68289062 -2.4140625 21.51953125 C-14.03071471 18.96160662 -14.03071471 18.96160662 -18 14 C-18.72380725 11.16796051 -18.68767419 8.83665605 -18 6 C-13.4243844 -1.16846443 -7.96232907 -0.76820385 0 0 Z " fill="#111111" transform="translate(839,171)"/>
<path d="M0 0 C2.64 0 5.28 0 8 0 C8 12.54 8 25.08 8 38 C14.6 38 21.2 38 28 38 C28 40.64 28 43.28 28 46 C18.76 46 9.52 46 0 46 C0 30.82 0 15.64 0 0 Z " fill="#121211" transform="translate(719,158)"/>
<path d="M0 0 C2.64 0 5.28 0 8 0 C8 2.97 8 5.94 8 9 C10.64 9 13.28 9 16 9 C16 11.64 16 14.28 16 17 C13.36 17 10.72 17 8 17 C8.33 22.61 8.66 28.22 9 34 C12.465 34.495 12.465 34.495 16 35 C16 37.31 16 39.62 16 42 C8.03478327 43.44033331 8.03478327 43.44033331 4.0625 41.75 C1.58527058 39.64810837 0.10379579 38.0369534 -0.22705078 34.73168945 C-0.21657715 33.86761475 -0.20610352 33.00354004 -0.1953125 32.11328125 C-0.18564453 30.7065918 -0.18564453 30.7065918 -0.17578125 29.27148438 C-0.15902344 28.29501953 -0.14226563 27.31855469 -0.125 26.3125 C-0.11597656 25.32443359 -0.10695313 24.33636719 -0.09765625 23.31835938 C-0.0740843 20.87866235 -0.04118022 18.43945303 0 16 C-1.65 16 -3.3 16 -5 16 C-5 14.02 -5 12.04 -5 10 C-3.68 9.67 -2.36 9.34 -1 9 C-0.67 6.03 -0.34 3.06 0 0 Z " fill="#0F0F0F" transform="translate(624,162)"/>
<path d="M0 0 C2.64 0 5.28 0 8 0 C8.33 0.99 8.66 1.98 9 3 C9.33 2.505 9.66 2.01 10 1.5 C13.17572747 -0.88179561 16.10246066 -0.19168226 20 0 C20 2.64 20 5.28 20 8 C18.01432292 8.13020833 16.02864583 8.26041667 14.04296875 8.390625 C11.22013426 9.2326177 10.538027 10.52503862 9 13 C8.50348204 15.30746465 8.50348204 15.30746465 8.48828125 17.765625 C8.45283203 18.65507812 8.41738281 19.54453125 8.38085938 20.4609375 C8.34702148 21.84152344 8.34702148 21.84152344 8.3125 23.25 C8.27833984 24.18585938 8.24417969 25.12171875 8.20898438 26.0859375 C8.12667838 28.39050533 8.0574737 30.69470119 8 33 C5.36 33 2.72 33 0 33 C0 22.11 0 11.22 0 0 Z " fill="#101010" transform="translate(491,171)"/>
<path d="M0 0 C0 2.31 0 4.62 0 7 C-2.01822917 7.42317708 -4.03645833 7.84635417 -6.0546875 8.26953125 C-8.37046549 8.92308838 -8.37046549 8.92308838 -10 12 C-10.36576054 14.31923274 -10.36576054 14.31923274 -10.4140625 16.88671875 C-10.47207031 18.2934082 -10.47207031 18.2934082 -10.53125 19.72851562 C-10.5621875 20.70498047 -10.593125 21.68144531 -10.625 22.6875 C-10.68300781 24.16959961 -10.68300781 24.16959961 -10.7421875 25.68164062 C-10.83645867 28.12090707 -10.92206218 30.56016595 -11 33 C-13.64 33 -16.28 33 -19 33 C-19 22.44 -19 11.88 -19 1 C-16.69 1 -14.38 1 -12 1 C-12 1.99 -12 2.98 -12 4 C-11.34 4 -10.68 4 -10 4 C-9.67 3.01 -9.34 2.02 -9 1 C-6.04335481 -0.4783226 -3.25770263 -0.06032783 0 0 Z " fill="#0C0B0B" transform="translate(664,171)"/>
<path d="M0 0 C11.47731397 -0.37023593 11.47731397 -0.37023593 13.875 1.328125 C15.57889117 3.86029659 15.18275825 6.01494857 15 9 C15 10.32 15 11.64 15 13 C15.33 13.33 15.66 13.66 16 14 C15.75 17.4375 15.75 17.4375 15 21 C10.25368713 24.16420858 5.63243123 23.12112755 0 23 C0 15.41 0 7.82 0 0 Z " fill="#707071" transform="translate(340,233)"/>
<path d="M0 0 C1.07765625 0.01804688 2.1553125 0.03609375 3.265625 0.0546875 C4.49539063 0.08949219 4.49539063 0.08949219 5.75 0.125 C5.75 0.455 5.75 0.785 5.75 1.125 C2.78 1.125 -0.19 1.125 -3.25 1.125 C-3.25 1.785 -3.25 2.445 -3.25 3.125 C-2.5075 3.08375 -1.765 3.0425 -1 3 C1.83758952 3.12898134 3.33773938 3.69551222 5.75 5.125 C6.11666667 10.625 6.11666667 10.625 4.375 13 C2.75 14.125 2.75 14.125 0.75 14.125 C0.75 14.785 0.75 15.445 0.75 16.125 C2.07 15.795 3.39 15.465 4.75 15.125 C3.9375 17.5625 3.9375 17.5625 2.75 20.125 C-1.78448658 21.63649553 -5.62741316 21.89941645 -10 19.8125 C-10.7425 19.255625 -11.485 18.69875 -12.25 18.125 C-12.848125 17.733125 -13.44625 17.34125 -14.0625 16.9375 C-15.70475535 14.43089974 -15.78018528 12.07103974 -15.671875 9.125 C-14.95271866 5.71566623 -12.92331411 4.19074272 -10.25 2.125 C-6.79817939 -0.05509723 -4.04008973 -0.08782804 0 0 Z " fill="#191919" transform="translate(764.25,183.875)"/>
<path d="M0 0 C2.86901557 1.2589089 4.25448197 3.07786556 6.26171875 5.47265625 C18.24722758 19.17038063 35.16229573 32.59071976 54.07421875 33.91015625 C52.14167103 35.93473005 50.44263187 37.33121417 48.07421875 38.91015625 C31.61908493 37.81162159 15.4430395 21.88812068 4.07421875 10.91015625 C3.38714844 10.26304687 2.70007813 9.6159375 1.9921875 8.94921875 C0.63920259 7.65009975 -0.65352623 6.28843252 -1.92578125 4.91015625 C-1.92578125 4.25015625 -1.92578125 3.59015625 -1.92578125 2.91015625 C-2.91578125 3.24015625 -3.90578125 3.57015625 -4.92578125 3.91015625 C-4.92578125 3.25015625 -4.92578125 2.59015625 -4.92578125 1.91015625 C-1.92578125 -0.08984375 -1.92578125 -0.08984375 0 0 Z " fill="#FBEFE9" transform="translate(153.92578125,184.08984375)"/>
<path d="M0 0 C2.4375 1.3125 2.4375 1.3125 4 4 C4.88324196 9.41610635 4.96423078 13.55365383 1.875 18.1875 C-1 20 -1 20 -4 20.6875 C-7.38371356 19.91206564 -9.02474253 18.72746316 -11.078125 15.9140625 C-12.82016116 12.29712302 -12.87713484 8.87936057 -12 5 C-8.67935135 0.06933988 -5.83352544 -0.95457689 0 0 Z " fill="#F0F0F0" transform="translate(804,178)"/>
<path d="M0 0 C2.875 1.3125 2.875 1.3125 5 4 C6.0296418 9.39731588 5.95343523 13.56984715 2.875 18.1875 C-0.54984225 20.34663968 -2.03371841 20.82630866 -6 20 C-8.875 18.125 -8.875 18.125 -11 15 C-11.70630612 11.52542958 -11.70630612 8.47457042 -11 5 C-7.92883052 0.48357429 -5.43434422 -1.01893954 0 0 Z " fill="#EDEDEC" transform="translate(438,178)"/>
<path d="M0 0 C0.99 0 1.98 0 3 0 C3 7.92 3 15.84 3 24 C-8 24 -8 24 -10.625 22.125 C-12.96038452 18.51576938 -13.51106065 16.34401556 -13 12 C-10.875 9.125 -10.875 9.125 -8 7 C-4.75 6.625 -4.75 6.625 -2 7 C-1.67 7.33 -1.34 7.66 -1 8 C-0.67 5.36 -0.34 2.72 0 0 Z " fill="#767677" transform="translate(403,232)"/>
<path d="M0 0 C0.33 0 0.66 0 1 0 C1 10.89 1 21.78 1 33 C0.67 33 0.34 33 0 33 C-0.33 30.69 -0.66 28.38 -1 26 C-1.99 26.99 -2.98 27.98 -4 29 C-4.309375 28.0409375 -4.309375 28.0409375 -4.625 27.0625 C-5.88678741 24.70872837 -5.88678741 24.70872837 -8.875 24.0625 C-12.58690366 23.98826193 -13.17900997 24.79610154 -16 27 C-19.35781526 27.41972691 -21.29150017 27.36382423 -24.3125 25.8125 C-26 24 -26 24 -27 19 C-19.41 19 -11.82 19 -4 19 C-4 16.36 -4 13.72 -4 11 C-3.01 10.34 -2.02 9.68 -1 9 C-0.42006301 6.80545319 -0.42006301 6.80545319 -0.3125 4.375 C-0.24675781 3.55773437 -0.18101562 2.74046875 -0.11328125 1.8984375 C-0.07589844 1.27195313 -0.03851563 0.64546875 0 0 Z " fill="#E1E1E1" transform="translate(490,171)"/>
<path d="M0 0 C3.24985922 2.68113385 3.89575014 4.35133418 4.5625 8.5 C4 12 4 12 1.9375 14.9375 C-1.74062512 17.52001338 -3.59231863 17.72125695 -8 17 C-10.4375 15.5625 -10.4375 15.5625 -12 13 C-12.76726228 8.68909336 -12.73340143 5.25289411 -10.5 1.4375 C-6.9652424 -0.59498562 -3.97659297 -0.92895819 0 0 Z " fill="#79797A" transform="translate(487,239)"/>
<path d="M0 0 C0 1.32 0 2.64 0 4 C-1.08152344 4.24492187 -2.16304687 4.48984375 -3.27734375 4.7421875 C-19.86800648 8.70473863 -35.37831467 15.24825465 -51 22 C-51.66 21.34 -52.32 20.68 -53 20 C-53 19.01 -53 18.02 -53 17 C-14.36409496 0 -14.36409496 0 0 0 Z " fill="#FBEAE2" transform="translate(238,127)"/>
<path d="M0 0 C0.2475 1.093125 0.495 2.18625 0.75 3.3125 C2.09454901 7.27891957 2.58332981 7.91071213 6 10 C8.50317821 10.95223226 8.50317821 10.95223226 11.125 11.625 C15.86754967 12.93377483 15.86754967 12.93377483 18 14 C17.625 16.4375 17.625 16.4375 17 19 C14.20129973 20.39935013 12.09501208 20.25265405 9 20 C7.125 18.625 7.125 18.625 6 17 C6 16.34 6 15.68 6 15 C3.04199472 15.70768358 3.04199472 15.70768358 0 17 C-0.68268138 18.32520503 -1.3507041 19.65812182 -2 21 C-3.66321482 21.35015049 -5.33034549 21.68197057 -7 22 C-7.680625 22.70125 -8.36125 23.4025 -9.0625 24.125 C-9.701875 24.74375 -10.34125 25.3625 -11 26 C-13.25 25.75 -13.25 25.75 -15 25 C-13.63875 24.2265625 -13.63875 24.2265625 -12.25 23.4375 C-8.63561274 20.96539551 -6.4581596 18.12673323 -5 14 C-4.36015473 10.5699434 -3.87922325 7.16283688 -3.4921875 3.6953125 C-3.32976563 2.80585938 -3.16734375 1.91640625 -3 1 C-1 0 -1 0 0 0 Z " fill="#E8E8E7" transform="translate(821,179)"/>
<path d="M0 0 C1.32 0 2.64 0 4 0 C12 16.85106383 12 16.85106383 12 23 C11.01 23 10.02 23 9 23 C7.5393715 20.35261084 7 19.10551666 7 16 C2.05 16.495 2.05 16.495 -3 17 C-3.99 19.475 -3.99 19.475 -5 22 C-5.99 22 -6.98 22 -8 22 C-7.17349537 14.14820601 -3.64180346 6.91942657 0 0 Z " fill="#737273" transform="translate(432,233)"/>
<path d="M0 0 C1.32 0.33 2.64 0.66 4 1 C4.33 0.67 4.66 0.34 5 0 C7.34068512 0.1800527 9.64388603 0.52003476 11.96875 0.84375 C12.6390625 0.8953125 13.309375 0.946875 14 1 C14.33 0.67 14.66 0.34 15 0 C20.27573169 -0.45875928 20.27573169 -0.45875928 22.68359375 1.06640625 C24.70789836 4.03979136 24.28491652 6.64803329 24.1875 10.1875 C24.16042969 11.45980469 24.13335938 12.73210937 24.10546875 14.04296875 C24.07066406 15.01878906 24.03585937 15.99460938 24 17 C23.01 17 22.02 17 21 17 C20.505 10.565 20.505 10.565 20 4 C18.35 4 16.7 4 15 4 C14.67 8.29 14.34 12.58 14 17 C12.68 17 11.36 17 10 17 C10 12.38 10 7.76 10 3 C8.02 3.33 6.04 3.66 4 4 C3.67 8.29 3.34 12.58 3 17 C2.01 17 1.02 17 0 17 C0 11.39 0 5.78 0 0 Z " fill="#888889" transform="translate(494,239)"/>
<path d="M0 0 C6.24734982 -0.36042403 6.24734982 -0.36042403 9.21875 1.0625 C11.89566829 3.97423569 11.39193135 6.31987066 11.25 10.1875 C11.21390625 11.45980469 11.1778125 12.73210937 11.140625 14.04296875 C11.07101562 15.50669922 11.07101562 15.50669922 11 17 C9.04196493 17.05389087 7.08351091 17.09274217 5.125 17.125 C3.48917969 17.15980469 3.48917969 17.15980469 1.8203125 17.1953125 C-1 17 -1 17 -3 15 C-3.25 12 -3.25 12 -3 9 C-1 7 -1 7 1.1640625 6.8046875 C2.38222656 6.83949219 2.38222656 6.83949219 3.625 6.875 C4.85089844 6.90207031 4.85089844 6.90207031 6.1015625 6.9296875 C7.04128906 6.96449219 7.04128906 6.96449219 8 7 C7.67 6.01 7.34 5.02 7 4 C6.071875 4 5.14375 4 4.1875 4 C2.125 4 0.0625 4 -2 4 C-1.34 2.68 -0.68 1.36 0 0 Z " fill="#7E7E7F" transform="translate(644,239)"/>
<path d="M0 0 C7.40053524 -0.36396075 7.40053524 -0.36396075 9.75 1.0625 C11.67816053 4.05114883 11.2839325 6.68378595 11.1875 10.1875 C11.16042969 11.45980469 11.13335938 12.73210937 11.10546875 14.04296875 C11.07066406 15.01878906 11.03585937 15.99460938 11 17 C10.360625 16.814375 9.72125 16.62875 9.0625 16.4375 C8.0415625 16.2209375 8.0415625 16.2209375 7 16 C6.67 16.33 6.34 16.66 6 17 C2.5625 17.1875 2.5625 17.1875 -1 17 C-3 15 -3 15 -3.25 12 C-3 9 -3 9 -1 7 C1.1640625 6.8046875 1.1640625 6.8046875 3.625 6.875 C4.85089844 6.90207031 4.85089844 6.90207031 6.1015625 6.9296875 C7.04128906 6.96449219 7.04128906 6.96449219 8 7 C7.67 6.01 7.34 5.02 7 4 C6.071875 4 5.14375 4 4.1875 4 C2.125 4 0.0625 4 -2 4 C-1.34 2.68 -0.68 1.36 0 0 Z " fill="#818182" transform="translate(524,239)"/>
<path d="M0 0 C2.9375 2.25 2.9375 2.25 5 5 C5 6.32 5 7.64 5 9 C0.71 9 -3.58 9 -8 9 C-7.34 10.32 -6.68 11.64 -6 13 C-2.4780279 13.08004482 0.61981469 13.04005702 4 12 C2.125 15.875 2.125 15.875 1 17 C-6.12408759 17.70072993 -6.12408759 17.70072993 -9.5 15 C-11.57342659 10.85314682 -11.58651804 8.61882953 -11 4 C-8.16650967 -0.53358453 -5.10426635 -0.80593679 0 0 Z " fill="#747375" transform="translate(618,239)"/>
<path d="M0 0 C2.4375 1.125 2.4375 1.125 4 3 C4 4.98 4 6.96 4 9 C0.04 9 -3.92 9 -8 9 C-7.34 10.32 -6.68 11.64 -6 13 C-2.4780279 13.08004482 0.61981469 13.04005702 4 12 C2.125 15.875 2.125 15.875 1 17 C-6.12408759 17.70072993 -6.12408759 17.70072993 -9.5 15 C-11.57342659 10.85314682 -11.58651804 8.61882953 -11 4 C-8.14969659 -0.56048545 -5.12186168 -0.64023271 0 0 Z " fill="#818182" transform="translate(560,239)"/>
<path d="M0 0 C2.4375 1.6875 2.4375 1.6875 4 4 C4 5.65 4 7.3 4 9 C0.04 9 -3.92 9 -8 9 C-7.34 10.32 -6.68 11.64 -6 13 C-2.65747276 13.07427838 -0.1964086 13.06546953 3 12 C2.125 15.875 2.125 15.875 1 17 C-6.12408759 17.70072993 -6.12408759 17.70072993 -9.5 15 C-11.57342659 10.85314682 -11.58651804 8.61882953 -11 4 C-8.16250305 -0.53999512 -5.10870514 -0.72981502 0 0 Z " fill="#787879" transform="translate(680,239)"/>
<path d="M0 0 C1.32 0 2.64 0 4 0 C4.33 4.29 4.66 8.58 5 13 C6.65 13.33 8.3 13.66 10 14 C10.33 9.38 10.66 4.76 11 0 C12.32 0 13.64 0 15 0 C15 5.61 15 11.22 15 17 C14.01 17 13.02 17 12 17 C12 16.34 12 15.68 12 15 C11.01 15.66 10.02 16.32 9 17 C3.84134144 17.53736027 3.84134144 17.53736027 1.32421875 15.9296875 C-0.71301491 12.96097532 -0.28498518 10.35446167 -0.1875 6.8125 C-0.16042969 5.54019531 -0.13335937 4.26789063 -0.10546875 2.95703125 C-0.07066406 1.98121094 -0.03585937 1.00539062 0 0 Z " fill="#8B8B8C" transform="translate(446,239)"/>
<path d="M0 0 C4.62 0 9.24 0 14 0 C14 0.66 14 1.32 14 2 C10.37 2 6.74 2 3 2 C3 4.64 3 7.28 3 10 C6.3 10 9.6 10 13 10 C13 10.66 13 11.32 13 12 C9.7 12 6.4 12 3 12 C3 14.64 3 17.28 3 20 C6.96 20 10.92 20 15 20 C15 20.99 15 21.98 15 23 C10.05 23 5.1 23 0 23 C0 15.41 0 7.82 0 0 Z " fill="#707070" transform="translate(583,233)"/>
<path d="M0 0 C7.59 0 15.18 0 23 0 C23 0.33 23 0.66 23 1 C21.35 1 19.7 1 18 1 C18 1.66 18 2.32 18 3 C18.66 3 19.32 3 20 3 C20 3.66 20 4.32 20 5 C18.88625 4.9071875 18.88625 4.9071875 17.75 4.8125 C14.95946084 4.74023953 14.95946084 4.74023953 13.125 6.5 C9.98579567 8.71590894 7.74516679 8.46814585 4 8 C1.5625 6.25 1.5625 6.25 0 4 C0 2.68 0 1.36 0 0 Z " fill="#D8D8D8" transform="translate(558,190)"/>
<path d="M0 0 C0.99 0 1.98 0 3 0 C3.33 4.29 3.66 8.58 4 13 C5.65 13 7.3 13 9 13 C10.81115956 11.18884044 10.38199448 8.38721773 10.5625 5.9375 C10.64628906 4.83277344 10.73007812 3.72804687 10.81640625 2.58984375 C10.87699219 1.73519531 10.93757813 0.88054687 11 0 C11.99 0 12.98 0 14 0 C14 5.61 14 11.22 14 17 C12.68 16.67 11.36 16.34 10 16 C9.67 16.33 9.34 16.66 9 17 C3.72426831 17.45875928 3.72426831 17.45875928 1.31640625 15.93359375 C-0.70789836 12.96020864 -0.28491652 10.35196671 -0.1875 6.8125 C-0.16042969 5.54019531 -0.13335937 4.26789063 -0.10546875 2.95703125 C-0.07066406 1.98121094 -0.03585937 1.00539062 0 0 Z " fill="#7C7C7E" transform="translate(359,239)"/>
<path d="M0 0 C1.32 0.33 2.64 0.66 4 1 C4.33 0.67 4.66 0.34 5 0 C6.66617115 -0.04063832 8.33388095 -0.042721 10 0 C10.33 0.99 10.66 1.98 11 3 C11.66 3 12.32 3 13 3 C13 7.29 13 11.58 13 16 C12.34 16 11.68 16 11 16 C10.67 12.04 10.34 8.08 10 4 C8.02 4 6.04 4 4 4 C3.67 8.29 3.34 12.58 3 17 C2.01 17 1.02 17 0 17 C0 11.39 0 5.78 0 0 Z " fill="#6D6C6D" transform="translate(494,239)"/>
<path d="M0 0 C1.51400391 0.01740234 1.51400391 0.01740234 3.05859375 0.03515625 C4.07050781 0.04417969 5.08242188 0.05320313 6.125 0.0625 C7.29869141 0.07990234 7.29869141 0.07990234 8.49609375 0.09765625 C8.6328125 2.453125 8.6328125 2.453125 8.49609375 5.09765625 C6.03608153 7.69824059 4.42290531 8.94318766 0.87109375 9.53515625 C-1.50390625 9.09765625 -1.50390625 9.09765625 -3.37890625 7.91015625 C-4.50390625 6.09765625 -4.50390625 6.09765625 -4.25390625 3.47265625 C-3.19664879 0.12467429 -3.19664879 0.12467429 0 0 Z " fill="#F2F2F1" transform="translate(761.50390625,189.90234375)"/>
<path d="M0 0 C0.99 0 1.98 0 3 0 C3 1.65 3 3.3 3 5 C4.32 5 5.64 5 7 5 C7 5.99 7 6.98 7 8 C5.68 8 4.36 8 3 8 C3 11.63 3 15.26 3 19 C4.32 19 5.64 19 7 19 C7 19.99 7 20.98 7 22 C4.625 22.125 4.625 22.125 2 22 C0 20 0 20 -0.1953125 17.1796875 C-0.17210937 16.08914062 -0.14890625 14.99859375 -0.125 13.875 C-0.10695313 12.77929688 -0.08890625 11.68359375 -0.0703125 10.5546875 C-0.04710937 9.71164063 -0.02390625 8.86859375 0 8 C-0.99 8 -1.98 8 -3 8 C-3 7.01 -3 6.02 -3 5 C-2.01 5 -1.02 5 0 5 C0 3.35 0 1.7 0 0 Z " fill="#767576" transform="translate(660,234)"/>
<path d="M0 0 C1.32 0 2.64 0 4 0 C4 7.92 4 15.84 4 24 C2.68 24 1.36 24 0 24 C0 16.08 0 8.16 0 0 Z " fill="#949495" transform="translate(384,232)"/>
<path d="M0 0 C0.99 0 1.98 0 3 0 C3 1.65 3 3.3 3 5 C4.32 5 5.64 5 7 5 C7 5.99 7 6.98 7 8 C5.68 8 4.36 8 3 8 C3 11.63 3 15.26 3 19 C4.32 19 5.64 19 7 19 C7 19.99 7 20.98 7 22 C4.625 22.125 4.625 22.125 2 22 C0 20 0 20 -0.1953125 17.1796875 C-0.17210937 16.08914062 -0.14890625 14.99859375 -0.125 13.875 C-0.10695313 12.77929688 -0.08890625 11.68359375 -0.0703125 10.5546875 C-0.04710937 9.71164063 -0.02390625 8.86859375 0 8 C-0.99 8 -1.98 8 -3 8 C-3 7.01 -3 6.02 -3 5 C-2.01 5 -1.02 5 0 5 C0 3.35 0 1.7 0 0 Z " fill="#808080" transform="translate(540,234)"/>
<path d="M0 0 C0.99 0 1.98 0 3 0 C3 1.65 3 3.3 3 5 C4.32 5 5.64 5 7 5 C7 5.99 7 6.98 7 8 C5.68 8 4.36 8 3 8 C3 11.63 3 15.26 3 19 C4.32 19 5.64 19 7 19 C7 19.99 7 20.98 7 22 C4.625 22.125 4.625 22.125 2 22 C0 20 0 20 -0.1953125 17.1796875 C-0.17210937 16.08914062 -0.14890625 14.99859375 -0.125 13.875 C-0.10695313 12.77929688 -0.08890625 11.68359375 -0.0703125 10.5546875 C-0.04710937 9.71164063 -0.02390625 8.86859375 0 8 C-0.99 8 -1.98 8 -3 8 C-3 7.01 -3 6.02 -3 5 C-2.01 5 -1.02 5 0 5 C0 3.35 0 1.7 0 0 Z " fill="#8B8A8B" transform="translate(466,234)"/>
<path d="M0 0 C3.625 0.375 3.625 0.375 7 1 C8.25 7.625 8.25 7.625 6 11 C3 11.3125 3 11.3125 0 11 C-2 9 -2 9 -2.25 5.5 C-2 2 -2 2 0 0 Z " fill="#F2F1F0" transform="translate(480,242)"/>
<path d="M0 0 C0.99 0 1.98 0 3 0 C4.65 3.63 6.3 7.26 8 11 C9.32 7.37 10.64 3.74 12 0 C12.99 0 13.98 0 15 0 C14.34496718 4.05819183 13.05440879 7.53971282 11.4375 11.3125 C10.98246094 12.38113281 10.52742187 13.44976562 10.05859375 14.55078125 C9.70925781 15.35902344 9.35992188 16.16726562 9 17 C8.01 17 7.02 17 6 17 C4.99580363 14.5433053 3.99649499 12.08481647 3 9.625 C2.71382812 8.92632812 2.42765625 8.22765625 2.1328125 7.5078125 C0 2.2265625 0 2.2265625 0 0 Z " fill="#7B7A7B" transform="translate(624,239)"/>
<path d="M0 0 C3.0625 0.1875 3.0625 0.1875 5.0625 2.1875 C5.3125 5.6875 5.3125 5.6875 5.0625 9.1875 C3.0625 11.1875 3.0625 11.1875 -0.0625 11.3125 C-1.485625 11.250625 -1.485625 11.250625 -2.9375 11.1875 C-4.56401522 7.93446956 -4.05203156 4.79524398 -3.9375 1.1875 C-2.9375 0.1875 -2.9375 0.1875 0 0 Z " fill="#F6F6F6" transform="translate(397.9375,241.8125)"/>
<path d="M0 0 C0.66 0 1.32 0 2 0 C2.99 3.3 3.98 6.6 5 10 C2.36 10 -0.28 10 -3 10 C-4.07525194 12.65228812 -5.09456151 15.28368454 -6 18 C-6.99 18 -7.98 18 -9 18 C-8.45660208 13.43545749 -7.20536179 10.0271824 -5 6 C-4.34 6 -3.68 6 -3 6 C-2.67 5.01 -2.34 4.02 -2 3 C-1.34 2.01 -0.68 1.02 0 0 Z " fill="#828283" transform="translate(433,237)"/>
<path d="M0 0 C2.97 0 5.94 0 9 0 C12 5.75 12 5.75 12 8 C11.01 8.33 10.02 8.66 9 9 C7.62804426 10.29355827 6.28817344 11.62298702 5 13 C4.16209211 11.21046815 3.32980604 9.41830305 2.5 7.625 C1.80390625 6.12839844 1.80390625 6.12839844 1.09375 4.6015625 C0 2 0 2 0 0 Z " fill="#1D1D1E" transform="translate(381,171)"/>
<path d="M0 0 C7.26 0 14.52 0 22 0 C22 0.33 22 0.66 22 1 C20.741875 1.185625 19.48375 1.37125 18.1875 1.5625 C17.12595703 1.71912109 17.12595703 1.71912109 16.04296875 1.87890625 C14 2 14 2 11 1 C11.66 2.32 12.32 3.64 13 5 C9.51131349 7.32579101 8.10281481 7.41865457 4 7 C1.625 5.75 1.625 5.75 0 4 C0 2.68 0 1.36 0 0 Z " fill="#F7F5F5" transform="translate(464,191)"/>
<path d="M0 0 C0.66 0 1.32 0 2 0 C2.12375 0.94875 2.2475 1.8975 2.375 2.875 C2.71687177 6.08667191 2.71687177 6.08667191 5 8 C5.01171875 10.4609375 5.01171875 10.4609375 4.6875 13.375 C4.58824219 14.33148438 4.48898437 15.28796875 4.38671875 16.2734375 C4.25910156 17.17320312 4.13148438 18.07296875 4 19 C3.92394531 19.73476562 3.84789062 20.46953125 3.76953125 21.2265625 C3 23 3 23 0.4375 24.25 C-0.366875 24.4975 -1.17125 24.745 -2 25 C-1.855625 23.865625 -1.71125 22.73125 -1.5625 21.5625 C-1.37474666 20.04169792 -1.18726097 18.52086278 -1 17 C-0.85691406 15.88431641 -0.85691406 15.88431641 -0.7109375 14.74609375 C-0.10772324 9.79111949 0.09075591 4.99157504 0 0 Z " fill="#F9F1EB" transform="translate(254,178)"/>
<path d="M0 0 C2 2 2 2 2 6 C-2.62 6 -7.24 6 -12 6 C-11 2 -11 2 -9.375 0.1875 C-5.95519197 -1.52240401 -3.64445478 -0.87736874 0 0 Z " fill="#E6E6E6" transform="translate(570,178)"/>
<path d="M0 0 C6.0546875 -0.1953125 6.0546875 -0.1953125 8 0 C8.66 0.66 9.32 1.32 10 2 C9.44444444 6.55555556 9.44444444 6.55555556 8 8 C5.32941149 8.14115161 2.67567762 8.04247107 0 8 C0 5.36 0 2.72 0 0 Z " fill="#EAE9E9" transform="translate(343,245)"/>
<path d="M0 0 C2 1.3125 2 1.3125 3 3 C3 3.99 3 4.98 3 6 C-1.62 6 -6.24 6 -11 6 C-10.67 4.35 -10.34 2.7 -10 1 C-6.82137696 -0.58931152 -3.46088698 -0.40341627 0 0 Z " fill="#EDEDED" transform="translate(475,178)"/>
<path d="M0 0 C7.42857143 -0.28571429 7.42857143 -0.28571429 11 2 C10.625 4.4375 10.625 4.4375 10 7 C7.23749964 8.38125018 5.05268901 8.19079306 2 8 C0 6 0 6 -0.125 2.875 C-0.08375 1.92625 -0.0425 0.9775 0 0 Z " fill="#F0F0F0" transform="translate(828,191)"/>
<path d="M0 0 C0.99 0 1.98 0 3 0 C3 7.92 3 15.84 3 24 C2.01 24 1.02 24 0 24 C0 16.08 0 8.16 0 0 Z " fill="#717172" transform="translate(601,232)"/>
<path d="M0 0 C3.375 -0.125 3.375 -0.125 7 0 C7.66 0.66 8.32 1.32 9 2 C8.44444444 6.55555556 8.44444444 6.55555556 7 8 C4.66702567 8.04092937 2.33294775 8.04241723 0 8 C0 5.36 0 2.72 0 0 Z " fill="#EBEBEB" transform="translate(343,235)"/>
<path d="M0 0 C3 1 3 1 4 3 C4.49055907 7.33327174 4.47744439 9.32000344 1.9375 12.9375 C-1.64865463 15.45543836 -3.70892835 15.4206933 -8 15 C-8 14.01 -8 13.02 -8 12 C-4.535 11.505 -4.535 11.505 -1 11 C-0.06213918 5.94990405 -0.06213918 5.94990405 -1 1 C-0.67 0.67 -0.34 0.34 0 0 Z " fill="#7C7C7D" transform="translate(487,241)"/>
<path d="M0 0 C1.875 1.3125 1.875 1.3125 3 3 C3 3.99 3 4.98 3 6 C1.06280622 6.05406122 -0.87481921 6.09282025 -2.8125 6.125 C-3.89144531 6.14820313 -4.97039063 6.17140625 -6.08203125 6.1953125 C-9 6 -9 6 -12 4 C-11.01 4 -10.02 4 -9 4 C-8.67 3.01 -8.34 2.02 -8 1 C-5.20129973 -0.39935013 -3.09501208 -0.25265405 0 0 Z " fill="#E4E4E4" transform="translate(767,177)"/>
<path d="M0 0 C1.32 0.66 2.64 1.32 4 2 C4.22417836 4.7648665 4.32233508 6.46277487 2.875 8.875 C0.07848948 10.55290631 -1.93690532 9.74875648 -5 9 C-5.33 7.68 -5.66 6.36 -6 5 C-4.02 3.35 -2.04 1.7 0 0 Z " fill="#100F0F" transform="translate(757,171)"/>
<path d="M0 0 C3.25524265 3.02272532 5.61820737 6.25718301 8 10 C7.67 10.66 7.34 11.32 7 12 C4.87254097 11.04713807 2.74810071 10.08753373 0.625 9.125 C-0.55835938 8.59132812 -1.74171875 8.05765625 -2.9609375 7.5078125 C-6 6 -6 6 -8 4 C-6.68 3.67 -5.36 3.34 -4 3 C-4 3.66 -4 4.32 -4 5 C-2.68 4.67 -1.36 4.34 0 4 C0 2.68 0 1.36 0 0 Z " fill="#E96235" transform="translate(193,206)"/>
<path d="M0 0 C1.32 0.66 2.64 1.32 4 2 C4.33 1.67 4.66 1.34 5 1 C6.99958364 0.95919217 9.00045254 0.95745644 11 1 C11.33 2.32 11.66 3.64 12 5 C7.05 5.33 2.1 5.66 -3 6 C-2 2 -2 2 0 0 Z " fill="#EFEFEF" transform="translate(640,241)"/>
<path d="M0 0 C0.33 -0.33 0.66 -0.66 1 -1 C2.99958364 -1.04080783 5.00045254 -1.04254356 7 -1 C7.33 0.32 7.66 1.64 8 3 C6.37675914 3.22162329 4.751279 3.42689803 3.125 3.625 C1.76761719 3.79902344 1.76761719 3.79902344 0.3828125 3.9765625 C-0.40351562 3.98429688 -1.18984375 3.99203125 -2 4 C-2.66 3.34 -3.32 2.68 -4 2 C-4.33 5.3 -4.66 8.6 -5 12 C-5.33 12 -5.66 12 -6 12 C-6 8.04 -6 4.08 -6 0 C-3.49046058 -1.25476971 -2.62766637 -0.67810745 0 0 Z " fill="#ECEBEB" transform="translate(524,243)"/>
<path d="M0 0 C5.28 0 10.56 0 16 0 C16 0.66 16 1.32 16 2 C14.35 1.67 12.7 1.34 11 1 C11 1.99 11 2.98 11 4 C10.071875 4.144375 9.14375 4.28875 8.1875 4.4375 C4.99274889 4.92100111 4.99274889 4.92100111 2 6 C1.34 5.34 0.68 4.68 0 4 C0 2.68 0 1.36 0 0 Z " fill="#F7F6F5" transform="translate(559,191)"/>
<path d="M0 0 C0.33 0 0.66 0 1 0 C1.103125 0.7425 1.20625 1.485 1.3125 2.25 C2.0752706 5.30108241 2.69507009 6.85403077 5 9 C8.45570193 9.35996895 10.70024471 9.09991843 14 8 C13.125 11.875 13.125 11.875 12 13 C4.87591241 13.70072993 4.87591241 13.70072993 1.5 11 C-0.49316478 7.01367043 -0.2996041 4.41916048 0 0 Z " fill="#818181" transform="translate(669,243)"/>
<path d="M0 0 C6.34257749 0.46982055 6.34257749 0.46982055 8.9375 2.5625 C9.288125 3.036875 9.63875 3.51125 10 4 C8.68 4 7.36 4 6 4 C6 4.66 6 5.32 6 6 C3.125 6.625 3.125 6.625 0 7 C-0.66 6.34 -1.32 5.68 -2 5 C-1.46428571 1.46428571 -1.46428571 1.46428571 0 0 Z " fill="#DEDDDD" transform="translate(831,177)"/>
<path d="M0 0 C1.32 0 2.64 0 4 0 C7 5.75 7 5.75 7 8 C6.34 8 5.68 8 5 8 C4.67 8.66 4.34 9.32 4 10 C3.67 8.02 3.34 6.04 3 4 C2.34 4 1.68 4 1 4 C0.67 5.98 0.34 7.96 0 10 C-1.32 10 -2.64 10 -4 10 C-3.52449439 8.51965236 -3.04448784 7.04074979 -2.5625 5.5625 C-2.29566406 4.73878906 -2.02882813 3.91507813 -1.75390625 3.06640625 C-1 1 -1 1 0 0 Z " fill="#807F80" transform="translate(432,233)"/>
<path d="M0 0 C0.99 0 1.98 0 3 0 C3 5.28 3 10.56 3 16 C2.01 16 1.02 16 0 16 C0 10.72 0 5.44 0 0 Z " fill="#7A7B7C" transform="translate(377,240)"/>
<path d="M0 0 C0.33 0 0.66 0 1 0 C1.24887295 2.10192697 1.4734719 4.20673964 1.6875 6.3125 C1.81511719 7.48425781 1.94273437 8.65601563 2.07421875 9.86328125 C2 13 2 13 0.6796875 14.8203125 C-1.47810806 16.33578752 -3.72936397 17.66090696 -6 19 C-6.66 19.66 -7.32 20.32 -8 21 C-8.99 20.67 -9.98 20.34 -11 20 C-10.05125 19.2575 -9.1025 18.515 -8.125 17.75 C-5.63565533 15.6930767 -4.28407651 13.99617852 -3 11 C-2.34 10.67 -1.68 10.34 -1 10 C-0.53248212 7.64400765 -0.53248212 7.64400765 -0.375 4.9375 C-0.30023438 4.01839844 -0.22546875 3.09929687 -0.1484375 2.15234375 C-0.09945313 1.44207031 -0.05046875 0.73179687 0 0 Z " fill="#D5D5D5" transform="translate(454,183)"/>
<path d="M0 0 C0.804375 0.495 0.804375 0.495 1.625 1 C5.75373677 2.73841548 9.78275157 2.2976149 14 1 C12.125 4.875 12.125 4.875 11 6 C3.71608392 6.46993007 3.71608392 6.46993007 1 4.6875 C0 3 0 3 0 0 Z " fill="#7E7E80" transform="translate(550,250)"/>
<path d="M0 0 C3.96 0 7.92 0 12 0 C11 3 11 3 8 5 C4.9375 5.25 4.9375 5.25 2 5 C1.34 4.34 0.68 3.68 0 3 C0 2.01 0 1.02 0 0 Z " fill="#EBECEC" transform="translate(672,248)"/>
<path d="M0 0 C3.96 0 7.92 0 12 0 C11 3 11 3 8 5 C4.8125 5.125 4.8125 5.125 2 5 C1.34 3.35 0.68 1.7 0 0 Z " fill="#EDEDED" transform="translate(610,248)"/>
<path d="M0 0 C0.66 0 1.32 0 2 0 C2.66 2.64 3.32 5.28 4 8 C6.31 8 8.62 8 11 8 C10.67 8.99 10.34 9.98 10 11 C6.50355037 11.31785906 4.602598 11.39644605 1.625 9.4375 C-0.54455002 6.18317497 -0.29451507 3.82869586 0 0 Z " fill="#737375" transform="translate(391,245)"/>
<path d="M0 0 C0.99 0 1.98 0 3 0 C3 5.28 3 10.56 3 16 C2.34 16 1.68 16 1 16 C-0.06723961 12.53777385 -0.10173486 9.35960734 -0.0625 5.75 C-0.04896484 4.13351563 -0.04896484 4.13351563 -0.03515625 2.484375 C-0.02355469 1.66453125 -0.01195312 0.8446875 0 0 Z " fill="#767778" transform="translate(370,239)"/>
<path d="M0 0 C6.0546875 -0.1953125 6.0546875 -0.1953125 8 0 C10 2 10 2 10.1953125 5.2578125 C10.16050781 7.17207031 10.16050781 7.17207031 10.125 9.125 C10.10695313 10.40632812 10.08890625 11.68765625 10.0703125 13.0078125 C10.04710937 13.99523437 10.02390625 14.98265625 10 16 C9.67 16 9.34 16 9 16 C8.67 11.71 8.34 7.42 8 3 C6.3603125 3.2475 6.3603125 3.2475 4.6875 3.5 C1 4 1 4 -2 4 C-1.34 2.68 -0.68 1.36 0 0 Z " fill="#747476" transform="translate(524,239)"/>
<path d="M0 0 C0.99 0 1.98 0 3 0 C3 1.65 3 3.3 3 5 C4.32 5.33 5.64 5.66 7 6 C5.02 6 3.04 6 1 6 C1 10.62 1 15.24 1 20 C0.67 20 0.34 20 0 20 C0 16.04 0 12.08 0 8 C-0.99 8 -1.98 8 -3 8 C-3 7.01 -3 6.02 -3 5 C-2.01 5 -1.02 5 0 5 C0 3.35 0 1.7 0 0 Z " fill="#838384" transform="translate(660,234)"/>
<path d="M0 0 C2.95814719 2.61227152 4.71876108 5.66570307 6.6875 9.0625 C7.31011719 10.12597656 7.93273437 11.18945312 8.57421875 12.28515625 C10 15 10 15 10 17 C9.34 17 8.68 17 8 17 C8 16.34 8 15.68 8 15 C7.01 14.67 6.02 14.34 5 14 C4.67 12.02 4.34 10.04 4 8 C3.34 8 2.68 8 2 8 C0.3125 5.6875 0.3125 5.6875 -1 3 C-0.67 2.01 -0.34 1.02 0 0 Z " fill="#EB5E25" transform="translate(183,189)"/>
<path d="M0 0 C2 1 2 1 2.88671875 2.9609375 C3.15097656 3.75757813 3.41523438 4.55421875 3.6875 5.375 C3.95949219 6.16648438 4.23148438 6.95796875 4.51171875 7.7734375 C5 10 5 10 4 13 C1.36 9.7 -1.28 6.4 -4 3 C-3.34 2.34 -2.68 1.68 -2 1 C-1.34 1.33 -0.68 1.66 0 2 C0 1.34 0 0.68 0 0 Z " fill="#EE5A26" transform="translate(155,177)"/>
<path d="M0 0 C2.64 0 5.28 0 8 0 C7.67 2.31 7.34 4.62 7 7 C6.01 6.67 5.02 6.34 4 6 C4 5.34 4 4.68 4 4 C2.02 4.66 0.04 5.32 -2 6 C-1.34 4.02 -0.68 2.04 0 0 Z " fill="#252525" transform="translate(692,171)"/>
<path d="M0 0 C0 0.99 0 1.98 0 3 C-1.4117783 3.53394179 -2.82970244 4.05165104 -4.25 4.5625 C-5.03890625 4.85253906 -5.8278125 5.14257812 -6.640625 5.44140625 C-9.19103452 6.04522837 -10.55322229 5.8473932 -13 5 C-12.34 5 -11.68 5 -11 5 C-10.67 3.68 -10.34 2.36 -10 1 C-6.59437148 0.22157062 -3.49234244 -0.09978121 0 0 Z " fill="#FCF4F0" transform="translate(225,131)"/>
<path d="M0 0 C6.25882353 -0.36108597 6.25882353 -0.36108597 9.4375 1.1875 C11 3 11 3 11 8 C7.04 8 3.08 8 -1 8 C-1 7.67 -1 7.34 -1 7 C2.3 7 5.6 7 9 7 C6.4837263 2.75425988 6.4837263 2.75425988 2.8125 2.25 C1.884375 2.1675 0.95625 2.085 0 2 C0 1.34 0 0.68 0 0 Z " fill="#717172" transform="translate(553,239)"/>
<path d="M0 0 C0.99 0.495 0.99 0.495 2 1 C2.4140625 3.28515625 2.4140625 3.28515625 2.625 6.0625 C2.69976562 6.98160156 2.77453125 7.90070313 2.8515625 8.84765625 C2.92503906 9.91306641 2.92503906 9.91306641 3 11 C4.32 11.33 5.64 11.66 7 12 C7 12.99 7 13.98 7 15 C4.625 15.125 4.625 15.125 2 15 C0 13 0 13 -0.1953125 9.9609375 C-0.17210937 8.77757812 -0.14890625 7.59421875 -0.125 6.375 C-0.10695313 5.18648437 -0.08890625 3.99796875 -0.0703125 2.7734375 C-0.04710937 1.85820312 -0.02390625 0.94296875 0 0 Z " fill="#6E6D6E" transform="translate(466,241)"/>
<path d="M0 0 C0.33 0 0.66 0 1 0 C1 2.31 1 4.62 1 7 C0.1646875 7.3403125 0.1646875 7.3403125 -0.6875 7.6875 C-3.63246684 9.35896766 -5.68156544 11.55276352 -8 14 C-8.99 13.67 -9.98 13.34 -11 13 C-10.31164062 12.34644531 -10.31164062 12.34644531 -9.609375 11.6796875 C-5.82679799 8.00836276 -2.81792474 4.44365055 0 0 Z " fill="#E55B24" transform="translate(254,179)"/>
<path d="M0 0 C2.31 0 4.62 0 7 0 C6.42655063 2.86724686 6.1385485 3.8614515 4 6 C1.375 5.625 1.375 5.625 -1 5 C-0.67 3.35 -0.34 1.7 0 0 Z " fill="#E8E7E7" transform="translate(645,248)"/>
<path d="M0 0 C0.66 0 1.32 0 2 0 C2.33 1.32 2.66 2.64 3 4 C5.64 4 8.28 4 11 4 C10.34 5.32 9.68 6.64 9 8 C5.625 8.125 5.625 8.125 2 8 C0 6 0 6 -0.125 2.875 C-0.08375 1.92625 -0.0425 0.9775 0 0 Z " fill="#818182" transform="translate(521,248)"/>
<path d="M0 0 C0.99 0 1.98 0 3 0 C2.27991594 4.60853797 0.68704061 8.67237409 -1 13 C-2.32 12.67 -3.64 12.34 -5 12 C-3.35 8.04 -1.7 4.08 0 0 Z " fill="#818181" transform="translate(636,239)"/>
<path d="M0 0 C2 2 2 2 2.125 5.125 C2.08375 6.07375 2.0425 7.0225 2 8 C-1 6 -1 6 -1.75 3.9375 C-2.1625 3.298125 -2.575 2.65875 -3 2 C-6.56206661 1.18129815 -6.56206661 1.18129815 -10 1 C-10 3.64 -10 6.28 -10 9 C-10.33 9 -10.66 9 -11 9 C-11 6.03 -11 3.06 -11 0 C-3.2797546 -1.33619632 -3.2797546 -1.33619632 0 0 Z " fill="#767778" transform="translate(353,234)"/>
<path d="M0 0 C2.0343459 1.41519715 2.90410393 2.54982123 3.421875 4.98046875 C3.66273952 6.98176954 3.83532741 8.9909944 4 11 C3.34 10.67 2.68 10.34 2 10 C2 9.34 2 8.68 2 8 C1.34 8 0.68 8 0 8 C-0.33 6.68 -0.66 5.36 -1 4 C-3.97 6.475 -3.97 6.475 -7 9 C-5.71480435 6.13302508 -4.42870746 4.02392288 -2 2 C-1.34 2 -0.68 2 0 2 C0 1.34 0 0.68 0 0 Z " fill="#B0350F" transform="translate(169,154)"/>
<path d="M0 0 C0.33 0 0.66 0 1 0 C1.33 2.97 1.66 5.94 2 9 C4.31622777 6.89459074 4.31622777 6.89459074 6 3 C6.66 5.97 7.32 8.94 8 12 C6.02 12.99 6.02 12.99 4 14 C4 13.01 4 12.02 4 11 C2.68 11 1.36 11 0 11 C0 7.37 0 3.74 0 0 Z " fill="#E7E7E6" transform="translate(543,242)"/>
<path d="M0 0 C2.31 0 4.62 0 7 0 C6.125 3.875 6.125 3.875 5 5 C3.00041636 5.04080783 0.99954746 5.04254356 -1 5 C-0.67 3.35 -0.34 1.7 0 0 Z " fill="#ECEBEB" transform="translate(525,248)"/>
<path d="M0 0 C0.66 0 1.32 0 2 0 C2.66 2.97 3.32 5.94 4 9 C2.02 9 0.04 9 -2 9 C-1.34 6.03 -0.68 3.06 0 0 Z " fill="#EAE9E9" transform="translate(433,237)"/>
<path d="M0 0 C1.32 0.33 2.64 0.66 4 1 C3.34 3.97 2.68 6.94 2 10 C0.68 10.33 -0.64 10.66 -2 11 C-2 8.03 -2 5.06 -2 2 C-1.34 2 -0.68 2 0 2 C0 1.34 0 0.68 0 0 Z " fill="#ECEBEA" transform="translate(667,240)"/>
<path d="M0 0 C0.33 1.32 0.66 2.64 1 4 C-0.98 4.66 -2.96 5.32 -5 6 C-2.36 6.33 0.28 6.66 3 7 C3 7.33 3 7.66 3 8 C-0.3 8 -3.6 8 -7 8 C-6.67 5.69 -6.34 3.38 -6 1 C-4.02 0.67 -2.04 0.34 0 0 Z " fill="#2D2D2C" transform="translate(676,210)"/>
<path d="M0 0 C0.33 0.66 0.66 1.32 1 2 C-6.20969846 10.98012737 -6.20969846 10.98012737 -12 13 C-12.66 12.67 -13.32 12.34 -14 12 C-12.98679688 11.20335937 -12.98679688 11.20335937 -11.953125 10.390625 C-11.06109375 9.68421875 -10.1690625 8.9778125 -9.25 8.25 C-8.36828125 7.55390625 -7.4865625 6.8578125 -6.578125 6.140625 C-4.24152752 4.20054103 -2.1061438 2.18487814 0 0 Z " fill="#DD501E" transform="translate(239,196)"/>
<path d="M0 0 C1.37478516 0.01740234 1.37478516 0.01740234 2.77734375 0.03515625 C3.69644531 0.04417969 4.61554687 0.05320313 5.5625 0.0625 C6.27277344 0.07410156 6.98304688 0.08570313 7.71484375 0.09765625 C7.71484375 0.42765625 7.71484375 0.75765625 7.71484375 1.09765625 C4.74484375 1.09765625 1.77484375 1.09765625 -1.28515625 1.09765625 C-1.28515625 2.74765625 -1.28515625 4.39765625 -1.28515625 6.09765625 C1.68484375 6.59265625 1.68484375 6.59265625 4.71484375 7.09765625 C4.38484375 7.75765625 4.05484375 8.41765625 3.71484375 9.09765625 C0.91121612 9.32497741 -0.74702142 9.43847497 -3.16015625 7.91015625 C-4.28515625 6.09765625 -4.28515625 6.09765625 -4.03515625 3.47265625 C-2.9787267 0.12729601 -2.9787267 0.12729601 0 0 Z " fill="#D5D5D5" transform="translate(761.28515625,189.90234375)"/>
<path d="M0 0 C1.98 0 3.96 0 6 0 C6.66 1.32 7.32 2.64 8 4 C4.7 4 1.4 4 -2 4 C-1.34 2.68 -0.68 1.36 0 0 Z " fill="#E4E4E4" transform="translate(554,242)"/>
<path d="M0 0 C0.66 0.66 1.32 1.32 2 2 C1.625 5.125 1.625 5.125 1 8 C1.66 8.33 2.32 8.66 3 9 C1.02 10.32 -0.96 11.64 -3 13 C-2.68991116 11.39536551 -2.37683713 9.79130769 -2.0625 8.1875 C-1.88847656 7.29417969 -1.71445313 6.40085938 -1.53515625 5.48046875 C-1 3 -1 3 0 0 Z " fill="#D4562F" transform="translate(252,217)"/>
<path d="M0 0 C0 0.99 0 1.98 0 3 C-0.66 3 -1.32 3 -2 3 C-2.33 3.99 -2.66 4.98 -3 6 C-6.41557141 7.80266269 -9.16865501 8.218934 -13 8 C-8.98745115 4.48901975 -4.79016959 2.23462006 0 0 Z " fill="#BA4A25" transform="translate(216,214)"/>
<path d="M0 0 C1.62463842 -0.05395478 3.24978541 -0.09277195 4.875 -0.125 C5.77992188 -0.14820313 6.68484375 -0.17140625 7.6171875 -0.1953125 C10 0 10 0 12 2 C11.01 2.99 10.02 3.98 9 5 C5.13151386 3.88243734 2.71077243 2.97126708 0 0 Z " fill="#FAE8DF" transform="translate(183,214)"/>
<path d="M0 0 C0.66 0 1.32 0 2 0 C2.66 1.65 3.32 3.3 4 5 C5.98 5 7.96 5 10 5 C9.67 5.99 9.34 6.98 9 8 C5.625 8.125 5.625 8.125 2 8 C0 6 0 6 -0.125 2.875 C-0.08375 1.92625 -0.0425 0.9775 0 0 Z " fill="#737274" transform="translate(641,248)"/>
<path d="M0 0 C1.98 0 3.96 0 6 0 C6.33 1.32 6.66 2.64 7 4 C4.03 4 1.06 4 -2 4 C-1.34 2.68 -0.68 1.36 0 0 Z " fill="#E7E7E6" transform="translate(674,242)"/>
<path d="M0 0 C0.33 0 0.66 0 1 0 C0.979375 1.0725 0.95875 2.145 0.9375 3.25 C0.9857984 6.14790424 1.13155885 8.28612141 2 11 C1.484375 10.525625 0.96875 10.05125 0.4375 9.5625 C-2.66782675 7.57190593 -5.36632504 7.34939182 -9 7 C-9 6.67 -9 6.34 -9 6 C-7.02 6 -5.04 6 -3 6 C-2.690625 5.38125 -2.38125 4.7625 -2.0625 4.125 C-1.375 2.75 -0.6875 1.375 0 0 Z " fill="#727174" transform="translate(353,238)"/>
<path d="M0 0 C1.98 0 3.96 0 6 0 C6.33 1.32 6.66 2.64 7 4 C4.03 4 1.06 4 -2 4 C-1.34 2.68 -0.68 1.36 0 0 Z " fill="#E3E3E3" transform="translate(612,242)"/>
<path d="M0 0 C2.0625 0.4375 2.0625 0.4375 4 1 C2.625 3 2.625 3 0 5 C-3.3580469 5.35791096 -6.63536357 5.23115823 -10 5 C-9.34 4.01 -8.68 3.02 -8 2 C-5.67843403 1.59270772 -3.3431213 1.25561323 -1 1 C-0.67 0.67 -0.34 0.34 0 0 Z " fill="#212121" transform="translate(442,200)"/>
<path d="M0 0 C2.64 0.33 5.28 0.66 8 1 C8 1.33 8 1.66 8 2 C6.02 2.33 4.04 2.66 2 3 C1.67 5.31 1.34 7.62 1 10 C0.67 10 0.34 10 0 10 C0 8.35 0 6.7 0 5 C-0.66 5 -1.32 5 -2 5 C-2 6.65 -2 8.3 -2 10 C-2.33 10 -2.66 10 -3 10 C-3.36923077 4.58461538 -3.36923077 4.58461538 -1.5 1.625 C-1.005 1.08875 -0.51 0.5525 0 0 Z " fill="#979898" transform="translate(393,240)"/>
<path d="M0 0 C1.09651823 3.41139003 0.94215473 6.20655581 0.5625 9.75 C0.46066406 10.73484375 0.35882812 11.7196875 0.25390625 12.734375 C0.12822266 13.85585937 0.12822266 13.85585937 0 15 C-0.99 15.33 -1.98 15.66 -3 16 C-3.66 16.66 -4.32 17.32 -5 18 C-4.67 14.7 -4.34 11.4 -4 8 C-3.67 8 -3.34 8 -3 8 C-3 9.98 -3 11.96 -3 14 C-2.34 14 -1.68 14 -1 14 C-1.01160156 13.24074219 -1.02320313 12.48148438 -1.03515625 11.69921875 C-1.04417969 10.70535156 -1.05320312 9.71148437 -1.0625 8.6875 C-1.07410156 7.70136719 -1.08570313 6.71523437 -1.09765625 5.69921875 C-1 3 -1 3 0 0 Z " fill="#A6A6A6" transform="translate(550,180)"/>
<path d="M0 0 C0.33 0 0.66 0 1 0 C1.33 3.3 1.66 6.6 2 10 C3.32 10.33 4.64 10.66 6 11 C6 11.99 6 12.98 6 14 C4.33388095 14.042721 2.66617115 14.04063832 1 14 C0 13 0 13 -0.09765625 10.05859375 C-0.08605469 8.86363281 -0.07445312 7.66867188 -0.0625 6.4375 C-0.05347656 5.23996094 -0.04445313 4.04242188 -0.03515625 2.80859375 C-0.02355469 1.88175781 -0.01195312 0.95492187 0 0 Z " fill="#6E6D6E" transform="translate(541,242)"/>
<path d="M0 0 C0.33 0 0.66 0 1 0 C1 3.96 1 7.92 1 12 C0.01 12 -0.98 12 -2 12 C-2.309375 11.21625 -2.61875 10.4325 -2.9375 9.625 C-3.92875038 7.07669872 -3.92875038 7.07669872 -5 5 C-3.35 5 -1.7 5 0 5 C0 3.35 0 1.7 0 0 Z " fill="#EDECEB" transform="translate(358,239)"/>
<path d="M0 0 C-0.6875 1.9375 -0.6875 1.9375 -2 4 C-4.625 4.75 -4.625 4.75 -7 5 C-7.66 3.68 -8.32 2.36 -9 1 C-3.375 -1.125 -3.375 -1.125 0 0 Z " fill="#FAE3DA" transform="translate(215,134)"/>
<path d="M0 0 C0.66 0 1.32 0 2 0 C2.12375 0.94875 2.2475 1.8975 2.375 2.875 C2.71687177 6.08667191 2.71687177 6.08667191 5 8 C4.625 10.125 4.625 10.125 4 12 C2.68 12 1.36 12 0 12 C0 8.04 0 4.08 0 0 Z " fill="#F7DBCF" transform="translate(254,178)"/>
<path d="M0 0 C3.4375 0.4375 3.4375 0.4375 5.375 1.9375 C5.725625 2.4325 6.07625 2.9275 6.4375 3.4375 C6.1075 4.0975 5.7775 4.7575 5.4375 5.4375 C4.7775 4.7775 4.1175 4.1175 3.4375 3.4375 C-0.40708427 3.22391199 -3.87870978 3.25868713 -7.5625 4.4375 C-5.11203627 1.30090643 -4.03256326 0.49522707 0 0 Z " fill="#E1E0E0" transform="translate(800.5625,177.5625)"/>
<path d="M0 0 C0.66 0 1.32 0 2 0 C2 0.99 2 1.98 2 3 C4.64 3.33 7.28 3.66 10 4 C9.67 4.66 9.34 5.32 9 6 C3.58461538 6.36923077 3.58461538 6.36923077 0.625 4.5 C0.08875 4.005 -0.4475 3.51 -1 3 C-0.67 2.01 -0.34 1.02 0 0 Z " fill="#DFE0DF" transform="translate(465,192)"/>
<path d="M0 0 C-1.875 3.875 -1.875 3.875 -3 5 C-5.67058851 5.14115161 -8.32432238 5.04247107 -11 5 C-8.19499369 0.79249053 -4.97384386 0 0 0 Z " fill="#898989" transform="translate(622,251)"/>
<path d="M0 0 C0.66 0 1.32 0 2 0 C1.125 3.875 1.125 3.875 0 5 C-2.67058851 5.14115161 -5.32432238 5.04247107 -8 5 C-8 4.34 -8 3.68 -8 3 C-6.865625 2.690625 -5.73125 2.38125 -4.5625 2.0625 C-1.21224901 1.37075469 -1.21224901 1.37075469 0 0 Z " fill="#79797B" transform="translate(681,251)"/>
<path d="M0 0 C2.31 0.33 4.62 0.66 7 1 C5.06745228 3.0245738 3.36841312 4.42105792 1 6 C-1.1875 5.625 -1.1875 5.625 -3 5 C-2.34 4.34 -1.68 3.68 -1 3 C-0.67 2.01 -0.34 1.02 0 0 Z " fill="#F5E9E5" transform="translate(201,217)"/>
<path d="M0 0 C0.33 0.99 0.66 1.98 1 3 C-2.6441774 5.4294516 -4.71241272 5.16179575 -9 5 C-9 4.01 -9 3.02 -9 2 C-6.03 2 -3.06 2 0 2 C0 1.34 0 0.68 0 0 Z " fill="#E3E3E2" transform="translate(571,193)"/>
<path d="M0 0 C3.48331435 3.01887244 4.79157144 5.56909529 6 10 C5.01 10 4.02 10 3 10 C0.96564469 6.27034861 0 4.33094958 0 0 Z " fill="#D8582B" transform="translate(177,177)"/>
<path d="M0 0 C0.66 0 1.32 0 2 0 C3.38938077 1.96147874 4.7260411 3.96166576 6 6 C5.01 6.33 4.02 6.66 3 7 C2.67 7.66 2.34 8.32 2 9 C1.34 6.03 0.68 3.06 0 0 Z " fill="#EE6A3B" transform="translate(150,187)"/>
<path d="M0 0 C2.52588702 2.36292656 3.88820837 3.66462511 5 7 C4.01 7.33 3.02 7.66 2 8 C0.4375 6.8125 0.4375 6.8125 -1 5 C-0.6875 2.3125 -0.6875 2.3125 0 0 Z " fill="#EA5824" transform="translate(193,206)"/>
<path d="M0 0 C2.64 0.33 5.28 0.66 8 1 C8 1.99 8 2.98 8 4 C5.69 4 3.38 4 1 4 C0.67 2.68 0.34 1.36 0 0 Z " fill="#181818" transform="translate(770,200)"/>
<path d="M0 0 C0.99 0.33 1.98 0.66 3 1 C3.73046875 3.06640625 3.73046875 3.06640625 4.1875 5.5625 C4.34605469 6.38878906 4.50460938 7.21507812 4.66796875 8.06640625 C4.77753906 8.70449219 4.88710937 9.34257812 5 10 C1.64085078 7.76056718 1.18318364 6.73157917 0 3 C0 2.01 0 1.02 0 0 Z " fill="#BA390E" transform="translate(172,166)"/>
<path d="M0 0 C0.99 0.33 1.98 0.66 3 1 C3.125 4.375 3.125 4.375 3 8 C2.34 8.66 1.68 9.32 1 10 C0.63883954 8.5225254 0.28624952 7.04295325 -0.0625 5.5625 C-0.25972656 4.73878906 -0.45695312 3.91507813 -0.66015625 3.06640625 C-0.82837891 2.04353516 -0.82837891 2.04353516 -1 1 C-0.67 0.67 -0.34 0.34 0 0 Z " fill="#656465" transform="translate(487,241)"/>
<path d="M0 0 C0.99 0.33 1.98 0.66 3 1 C3.17700355 5.60209225 3.10814567 7.78370866 1 12 C0.67 8.04 0.34 4.08 0 0 Z " fill="#EF6F40" transform="translate(134,132)"/>
<path d="M0 0 C0.9590625 0.2784375 0.9590625 0.2784375 1.9375 0.5625 C2.9584375 0.7790625 2.9584375 0.7790625 4 1 C4.33 0.67 4.66 0.34 5 0 C6.66617115 -0.04063832 8.33388095 -0.042721 10 0 C9.67 0.99 9.34 1.98 9 3 C7.02 3.33 5.04 3.66 3 4 C2.67 3.01 2.34 2.02 2 1 C1.34 0.67 0.68 0.34 0 0 Z " fill="#848485" transform="translate(494,239)"/>
<path d="M0 0 C2.475 0.495 2.475 0.495 5 1 C4.67 2.65 4.34 4.3 4 6 C3.01 6 2.02 6 1 6 C0.67 4.02 0.34 2.04 0 0 Z " fill="#6B6B6C" transform="translate(629,250)"/>
<path d="M0 0 C0.556875 0.28875 1.11375 0.5775 1.6875 0.875 C4.08494645 2.0413253 6.51596939 3.0339881 9 4 C9 4.33 9 4.66 9 5 C5.625 5.125 5.625 5.125 2 5 C1.34 4.34 0.68 3.68 0 3 C0 2.01 0 1.02 0 0 Z " fill="#68686A" transform="translate(550,250)"/>
<path d="M0 0 C1.52519276 0.08937803 3.04681929 0.24537146 4.5625 0.4375 C5.80193359 0.59025391 5.80193359 0.59025391 7.06640625 0.74609375 C7.70449219 0.82988281 8.34257813 0.91367188 9 1 C9 1.33 9 1.66 9 2 C7.88625 2.103125 6.7725 2.20625 5.625 2.3125 C4.42875 2.539375 3.2325 2.76625 2 3 C1.34 3.99 0.68 4.98 0 6 C-0.38218767 4.34385343 -0.71395102 2.67542976 -1 1 C-0.67 0.67 -0.34 0.34 0 0 Z " fill="#888888" transform="translate(643,246)"/>
<path d="M0 0 C1.65 1.32 3.3 2.64 5 4 C0.38926889 5.29676812 -3.33840089 4.71109139 -8 4 C-8 3.67 -8 3.34 -8 3 C-5.36 3 -2.72 3 0 3 C0 2.01 0 1.02 0 0 Z " fill="#D6D6D5" transform="translate(792,201)"/>
<path d="M0 0 C0.598125 0.20625 1.19625 0.4125 1.8125 0.625 C1.1525 0.625 0.4925 0.625 -0.1875 0.625 C-0.47625 1.264375 -0.765 1.90375 -1.0625 2.5625 C-2.1875 4.625 -2.1875 4.625 -4.1875 5.625 C-4.5175 4.305 -4.8475 2.985 -5.1875 1.625 C-2.1875 -0.375 -2.1875 -0.375 0 0 Z " fill="#2D2E2E" transform="translate(825.1875,194.375)"/>
<path d="M0 0 C2.97 0.495 2.97 0.495 6 1 C6 1.66 6 2.32 6 3 C5.34 3 4.68 3 4 3 C4 3.66 4 4.32 4 5 C2.68 4.34 1.36 3.68 0 3 C0 2.01 0 1.02 0 0 Z " fill="#060505" transform="translate(832,185)"/>
<path d="M0 0 C1.2065625 0.0309375 1.2065625 0.0309375 2.4375 0.0625 C1.4375 3.0625 1.4375 3.0625 -0.625 4.25 C-1.264375 4.518125 -1.90375 4.78625 -2.5625 5.0625 C-3.125 3.125 -3.125 3.125 -3.5625 1.0625 C-2.5625 0.0625 -2.5625 0.0625 0 0 Z " fill="#F2F2F1" transform="translate(832.5625,177.9375)"/>
<path d="M0 0 C0.66 0.33 1.32 0.66 2 1 C2 2.66666667 2 4.33333333 2 6 C0.68 6.33 -0.64 6.66 -2 7 C-2.6875 5.1875 -2.6875 5.1875 -3 3 C-1.5625 1.25 -1.5625 1.25 0 0 Z " fill="#1B1B1B" transform="translate(754,173)"/>
<path d="M0 0 C2.97 0 5.94 0 9 0 C7.02 0.99 7.02 0.99 5 2 C3.29078411 3.5412312 3.29078411 3.5412312 2 5 C1.34 3.35 0.68 1.7 0 0 Z " fill="#404141" transform="translate(666,171)"/>
<path d="M0 0 C1.52519276 0.08937803 3.04681929 0.24537146 4.5625 0.4375 C5.80193359 0.59025391 5.80193359 0.59025391 7.06640625 0.74609375 C7.70449219 0.82988281 8.34257813 0.91367188 9 1 C9 1.33 9 1.66 9 2 C7.88625 2.103125 6.7725 2.20625 5.625 2.3125 C4.42875 2.539375 3.2325 2.76625 2 3 C1.34 3.99 0.68 4.98 0 6 C-0.38218767 4.34385343 -0.71395102 2.67542976 -1 1 C-0.67 0.67 -0.34 0.34 0 0 Z " fill="#878787" transform="translate(523,246)"/>
<path d="M0 0 C0.33 1.32 0.66 2.64 1 4 C-2.4352048 6.29013653 -3.985331 6.17842973 -8 6 C-4.375 3 -4.375 3 -1 3 C-0.67 2.01 -0.34 1.02 0 0 Z " fill="#BBBBBA" transform="translate(838,193)"/>
<path d="M0 0 C3.375 -0.125 3.375 -0.125 7 0 C9 2 9 2 9.125 4.625 C9.08375 5.40875 9.0425 6.1925 9 7 C8.443125 6.195625 7.88625 5.39125 7.3125 4.5625 C4.78135513 1.75771784 3.67420866 1.30618405 0 1 C0 0.67 0 0.34 0 0 Z " fill="#5F6062" transform="translate(674,240)"/>
<path d="M0 0 C0.99 0.66 1.98 1.32 3 2 C3.1875 5.125 3.1875 5.125 3 8 C-0.32901247 5.78065836 -0.75023244 4.65316671 -2 1 C-1.34 0.67 -0.68 0.34 0 0 Z " fill="#848586" transform="translate(352,234)"/>
<path d="M0 0 C0.33 0.66 0.66 1.32 1 2 C-0.65 3.98 -2.3 5.96 -4 8 C-4.66 7.34 -5.32 6.68 -6 6 C-4.02 4.02 -2.04 2.04 0 0 Z " fill="#EA6531" transform="translate(239,196)"/>
<path d="M0 0 C2.97 0.495 2.97 0.495 6 1 C6.33 1.99 6.66 2.98 7 4 C6.01 4.99 5.02 5.98 4 7 C4 5.68 4 4.36 4 3 C2.07977297 1.22590192 2.07977297 1.22590192 0 0 Z " fill="#1A191A" transform="translate(478,194)"/>
<path d="M0 0 C1.0625 1.875 1.0625 1.875 2 4 C1.67 4.66 1.34 5.32 1 6 C0.34 6 -0.32 6 -1 6 C-1.33 7.32 -1.66 8.64 -2 10 C-3 8 -3 8 -2.44140625 6.0546875 C-2.15136719 5.33539063 -1.86132812 4.61609375 -1.5625 3.875 C-1.27503906 3.15054688 -0.98757813 2.42609375 -0.69140625 1.6796875 C-0.46324219 1.12539062 -0.23507812 0.57109375 0 0 Z " fill="#C9C9C9" transform="translate(412,179)"/>
<path d="M0 0 C2.64 0 5.28 0 8 0 C8 0.33 8 0.66 8 1 C7.0925 1.0825 6.185 1.165 5.25 1.25 C1.59922161 2.09248732 0.36615417 3.17881618 -2 6 C-1.34 4.02 -0.68 2.04 0 0 Z " fill="#4A4A4A" transform="translate(692,171)"/>
<path d="M0 0 C-0.33 0.99 -0.66 1.98 -1 3 C-4.0625 4.1875 -4.0625 4.1875 -7 5 C-7.33 4.34 -7.66 3.68 -8 3 C-2.25 0 -2.25 0 0 0 Z " fill="#E95F2B" transform="translate(198,144)"/>
<path d="M0 0 C1.65 0 3.3 0 5 0 C4.34 1.32 3.68 2.64 3 4 C1.68 4 0.36 4 -1 4 C-0.67 2.68 -0.34 1.36 0 0 Z " fill="#FCF5F2" transform="translate(196,140)"/>
<path d="M0 0 C2.97 0.495 2.97 0.495 6 1 C6 1.99 6 2.98 6 4 C4.02 4 2.04 4 0 4 C-0.33 3.34 -0.66 2.68 -1 2 C-0.67 1.34 -0.34 0.68 0 0 Z " fill="#888889" transform="translate(449,252)"/>
<path d="M0 0 C0.33 0 0.66 0 1 0 C1.66 2.64 2.32 5.28 3 8 C2.01 8.66 1.02 9.32 0 10 C-1.2380014 6.42355152 -0.74926071 3.66305234 0 0 Z " fill="#888789" transform="translate(477,245)"/>
<path d="M0 0 C1.65 0 3.3 0 5 0 C5.33 0.99 5.66 1.98 6 3 C6.66 3 7.32 3 8 3 C8 3.66 8 4.32 8 5 C4.62496331 3.8141763 2.35277269 2.72426311 0 0 Z " fill="#EA632E" transform="translate(177,205)"/>
<path d="M0 0 C0.33 1.32 0.66 2.64 1 4 C1.99 4 2.98 4 4 4 C4 4.66 4 5.32 4 6 C2.35 6 0.7 6 -1 6 C-1.042721 4.33388095 -1.04063832 2.66617115 -1 1 C-0.67 0.67 -0.34 0.34 0 0 Z " fill="#F2F2F2" transform="translate(728,189)"/>
<path d="M0 0 C1.65 0 3.3 0 5 0 C5.33 0.99 5.66 1.98 6 3 C4.02 3.33 2.04 3.66 0 4 C0 2.68 0 1.36 0 0 Z " fill="#0A0A0A" transform="translate(407,172)"/>
</svg>
