<?xml version="1.0" encoding="UTF-8"?>
<svg version="1.1" xmlns="http://www.w3.org/2000/svg" width="1024" height="1024">
<path d="M0 0 C0.99 0.33 1.98 0.66 3 1 C4.25493094 21.16853294 4.25493094 21.16853294 4 31 C3.97317139 32.15218018 3.97317139 32.15218018 3.94580078 33.32763672 C2.09494659 105.42989088 -21.93202939 176.0483557 -68 232 C-68.45084961 232.54849609 -68.90169922 233.09699219 -69.36621094 233.66210938 C-82.09829082 249.07795627 -95.56832571 264.40044535 -111.28125 276.83984375 C-114.10045581 279.07981618 -116.82687799 281.40893886 -119.5625 283.75 C-124.71799748 288.05866807 -130.05793342 292.06056512 -135.5 296 C-136.27802979 296.56428711 -137.05605957 297.12857422 -137.85766602 297.70996094 C-141.16092858 300.07731714 -144.31859723 302.25553106 -148 304 C-147.24365145 299.63515052 -145.94970001 295.48824684 -144.59375 291.28125 C-144.09565457 289.71251313 -143.59846204 288.14348937 -143.10205078 286.57421875 C-142.8407135 285.74841309 -142.57937622 284.92260742 -142.31011963 284.07177734 C-124.04518191 226.08854705 -114.38243424 166.40034111 -109.75 105.875 C-109.66983643 104.83424316 -109.58967285 103.79348633 -109.50708008 102.72119141 C-109.01911875 95.80585567 -108.91721192 88.93120229 -109 82 C-109.1959375 82.82757813 -109.391875 83.65515625 -109.59375 84.5078125 C-111.62712604 92.62378757 -114.10731286 100.50021707 -116.9375 108.375 C-117.42283203 109.74615967 -117.42283203 109.74615967 -117.91796875 111.14501953 C-120.09790582 117.10416298 -122.75142816 122.55040606 -126 128 C-131.02049095 125.22517852 -135.69662725 122.18671011 -140.375 118.875 C-194.91526481 80.96510783 -263.47728251 56.52899145 -330.1875 56.9375 C-331.63085781 56.94252912 -333.07421733 56.94708951 -334.51757812 56.95117188 C-338.01175505 56.9620562 -341.50586612 56.9792415 -345 57 C-342.33399397 53.87227003 -338.96302467 52.21869471 -335.3671875 50.375 C-334.70713715 50.03171661 -334.04708679 49.68843323 -333.36703491 49.33474731 C-331.20687847 48.21549576 -329.04165762 47.1066096 -326.875 46 C-326.13181519 45.61906189 -325.38863037 45.23812378 -324.6229248 44.84564209 C-302.02921328 33.28661917 -278.86828618 23.62484012 -255 15 C-253.91058105 14.60570801 -252.82116211 14.21141602 -251.69873047 13.80517578 C-173.21993327 -14.25287872 -80.36330973 -28.06055898 0 0 Z " fill="#E05019" transform="translate(753,325)"/>
<path d="M0 0 C0 0.33 0 0.66 0 1 C-0.88743896 1.16491943 -1.77487793 1.32983887 -2.68920898 1.49975586 C-70.41080601 14.2206279 -143.6814516 36.14057738 -200.4375 76.3046875 C-203 78 -203 78 -205 78 C-184.45419251 140.65764974 -158.46303879 199.37262073 -121 254 C-120.09624463 255.32805047 -119.19260804 256.65618177 -118.2890625 257.984375 C-112.46046012 266.54401396 -112.46046012 266.54401396 -106.3125 274.875 C-104 278 -104 278 -104 280 C-137.83693842 271.09725184 -170.42128421 256.27903152 -199 236 C-200.07636719 235.2575 -201.15273438 234.515 -202.26171875 233.75 C-214.43623521 225.28615642 -225.98153949 215.91895383 -237 206 C-238.14275391 204.99453125 -238.14275391 204.99453125 -239.30859375 203.96875 C-249.42967606 195.00030265 -258.58619154 185.58511387 -267 175 C-268.4994999 173.20791476 -269.99950314 171.41625057 -271.5 169.625 C-276.36780477 163.66046279 -280.76123281 157.41885765 -285 151 C-285.38768555 150.41686035 -285.77537109 149.8337207 -286.17480469 149.23291016 C-309.3925139 114.04505521 -334.94932405 60.49385452 -331 17 C-329.3046875 15.06640625 -329.3046875 15.06640625 -326.875 13.5625 C-325.95203125 12.98371094 -325.0290625 12.40492188 -324.078125 11.80859375 C-323.06234375 11.21175781 -322.0465625 10.61492187 -321 10 C-319.98421875 9.37222656 -318.9684375 8.74445313 -317.921875 8.09765625 C-232.68775403 -42.90143272 -109.50233192 -48.94268541 0 0 Z " fill="#E1511A" transform="translate(582,307)"/>
<path d="M0 0 C0.33 0 0.66 0 1 0 C-1.4800152 82.33650469 -24.65941962 181.04435627 -96.53417969 264.65234375 C-99.70337821 267.56606391 -103.01618951 270.28435083 -106.3984375 272.9453125 C-108.12802827 274.31132563 -109.82211727 275.72356693 -111.4765625 277.1796875 C-112.24742187 277.84226562 -113.01828125 278.50484375 -113.8125 279.1875 C-114.47894531 279.77917969 -115.14539063 280.37085938 -115.83203125 280.98046875 C-118 282 -118 282 -120.6015625 281.5078125 C-147.28521364 269.66885923 -172.48116143 253.53112757 -195 235 C-196.64547662 233.70787894 -198.29131884 232.41622335 -199.9375 231.125 C-204.60959409 227.39172545 -209.02152996 223.41538358 -213.41796875 219.36328125 C-215.55821277 217.40435897 -217.72838609 215.504805 -219.9375 213.625 C-228.23901782 206.39960486 -235.90849205 198.40588227 -243 190 C-243.78375 189.10539063 -244.5675 188.21078125 -245.375 187.2890625 C-262.98525341 167.07097335 -277.43613695 144.63645018 -290 121 C-290.34482422 120.35562988 -290.68964844 119.71125977 -291.04492188 119.04736328 C-304.25135975 94.17266426 -314.03092432 67.26101878 -321.625 40.1875 C-322.15794678 38.30865112 -322.15794678 38.30865112 -322.70166016 36.3918457 C-323.01925293 35.22484131 -323.3368457 34.05783691 -323.6640625 32.85546875 C-324.08872803 31.30315552 -324.08872803 31.30315552 -324.52197266 29.71948242 C-324.9938863 27.03478062 -324.9058972 25.53689119 -324 23 C-323.236875 24.0725 -322.47375 25.145 -321.6875 26.25 C-311.30271855 40.04796137 -298.29817592 53.11910648 -284.75390625 63.8046875 C-282.2693483 65.78528547 -279.86693758 67.83792611 -277.47290039 69.92626953 C-269.41461762 76.91709147 -260.81099129 83.0005242 -252 89 C-251.17935059 89.56122559 -250.35870117 90.12245117 -249.51318359 90.70068359 C-236.94479474 99.27188917 -224.14108472 107.33811755 -211 115 C-210.32195312 115.40025391 -209.64390625 115.80050781 -208.9453125 116.21289062 C-197.76339765 122.80303522 -186.14176691 128.39025344 -174.37792969 133.86230469 C-172.40956901 134.80404604 -170.48308242 135.83274974 -168.5703125 136.8828125 C-165.54643116 138.1971439 -165.03225929 138.0398603 -162 137 C-159.9416618 136.02131173 -157.90785634 134.99051951 -155.890625 133.9296875 C-155.29543564 133.61679779 -154.70024628 133.30390808 -154.08702087 132.98153687 C-152.1378053 131.95254472 -150.19335731 130.91501059 -148.25 129.875 C-147.58271881 129.5188562 -146.91543762 129.1627124 -146.22793579 128.79577637 C-126.97939177 118.49254819 -108.5996175 106.92661561 -91 94 C-90.32001953 93.5040332 -89.64003906 93.00806641 -88.93945312 92.49707031 C-81.10022058 86.76670173 -73.45459268 80.89059414 -66.15917969 74.47631836 C-63.57255792 72.22130388 -61.17198157 70.344316 -58 69 C-58 68.34 -58 67.68 -58 67 C-56.58178711 65.59863281 -56.58178711 65.59863281 -54.58984375 63.953125 C-42.70178993 53.835855 -31.43500577 42.44818127 -22 30 C-21.22011719 29.01386719 -20.44023438 28.02773438 -19.63671875 27.01171875 C-13.80539242 19.61305236 -8.43449864 11.93859646 -3.15234375 4.140625 C-1 1 -1 1 0 0 Z " fill="#DF4F19" transform="translate(626,461)"/>
<path d="M0 0 C1.65 0.33 3.3 0.66 5 1 C5.495 2.485 5.495 2.485 6 4 C6.99 4.66 7.98 5.32 9 6 C9 5.34 9 4.68 9 4 C8.34 4 7.68 4 7 4 C7 3.01 7 2.02 7 1 C7.928125 1.165 8.85625 1.33 9.8125 1.5 C12.95621353 2.07748388 12.95621353 2.07748388 16 2 C16.99 2.33 17.98 2.66 19 3 C19 2.01 19 1.02 19 0 C27.26943544 -0.84381994 34.3509127 2.21127025 42 5 C43.25493094 25.16853294 43.25493094 25.16853294 43 35 C42.97317139 36.15218018 42.97317139 36.15218018 42.94580078 37.32763672 C41.09494659 109.42989088 17.06797061 180.0483557 -29 236 C-29.45084961 236.54849609 -29.90169922 237.09699219 -30.36621094 237.66210938 C-43.09829082 253.07795627 -56.56832571 268.40044535 -72.28125 280.83984375 C-75.10045581 283.07981618 -77.82687799 285.40893886 -80.5625 287.75 C-85.71799748 292.05866807 -91.05793342 296.06056512 -96.5 300 C-97.27802979 300.56428711 -98.05605957 301.12857422 -98.85766602 301.70996094 C-102.16092858 304.07731714 -105.31859723 306.25553106 -109 308 C-108.24365145 303.63515052 -106.94970001 299.48824684 -105.59375 295.28125 C-105.09565457 293.71251313 -104.59846204 292.14348937 -104.10205078 290.57421875 C-103.8407135 289.74841309 -103.57937622 288.92260742 -103.31011963 288.07177734 C-88.5666148 241.26756433 -78.53763273 192.89398804 -73.98754883 144.00878906 C-73.83322388 142.44209473 -73.83322388 142.44209473 -73.67578125 140.84375 C-73.59239502 139.92787109 -73.50900879 139.01199219 -73.4230957 138.06835938 C-73.28347412 137.38580078 -73.14385254 136.70324219 -73 136 C-72.34 135.67 -71.68 135.34 -71 135 C-70.505 137.475 -70.505 137.475 -70 140 C-69.34 140 -68.68 140 -68 140 C-68 139.34 -68 138.68 -68 138 C-67.360625 137.87625 -66.72125 137.7525 -66.0625 137.625 C-65.381875 137.41875 -64.70125 137.2125 -64 137 C-62.75453595 134.50907189 -63.2232422 133.58919267 -64 131 C-63.01 130.67 -62.02 130.34 -61 130 C-62.11854586 126.27385847 -62.11854586 126.27385847 -65 124 C-65.33 124.66 -65.66 125.32 -66 126 C-66 124.02 -66 122.04 -66 120 C-65.67 120.99 -65.34 121.98 -65 123 C-64.01 122.34 -63.02 121.68 -62 121 C-62.57344937 118.13275314 -62.8614515 117.1385485 -65 115 C-64.1875 112.0625 -64.1875 112.0625 -63 109 C-62.01 108.67 -61.02 108.34 -60 108 C-60.33 107.34 -60.66 106.68 -61 106 C-60.34 105.34 -59.68 104.68 -59 104 C-59.66 103.01 -60.32 102.02 -61 101 C-58 101 -58 101 -55 103 C-55.66 105.64 -56.32 108.28 -57 111 C-55.68 111.33 -54.36 111.66 -53 112 C-50.76656796 110.14944202 -49.29808458 108.59616917 -48 106 C-47.01 105.67 -46.02 105.34 -45 105 C-45 104.34 -45 103.68 -45 103 C-45.61875 103.185625 -46.2375 103.37125 -46.875 103.5625 C-49 104 -49 104 -51 103 C-49.49736177 99.99472353 -47.08347159 100.02782386 -44 99 C-43.67 98.34 -43.34 97.68 -43 97 C-43.66 96.67 -44.32 96.34 -45 96 C-45 94.68 -45 93.36 -45 92 C-45.66 92.99 -46.32 93.98 -47 95 C-46.01 96.485 -46.01 96.485 -45 98 C-45.99 98.33 -46.98 98.66 -48 99 C-48.99 98.01 -48.99 98.01 -50 97 C-50.66 97.66 -51.32 98.32 -52 99 C-52.99 98.01 -52.99 98.01 -54 97 C-53.625 94.875 -53.625 94.875 -53 93 C-52.34 93 -51.68 93 -51 93 C-51.99 91.35 -52.98 89.7 -54 88 C-54.66 88.99 -55.32 89.98 -56 91 C-56.66 91 -57.32 91 -58 91 C-58.66 89.35 -59.32 87.7 -60 86 C-60 86.66 -60 87.32 -60 88 C-61.32 87.67 -62.64 87.34 -64 87 C-64.33 87.66 -64.66 88.32 -65 89 C-65.99 88.34 -66.98 87.68 -68 87 C-68.29296875 83.9609375 -68.29296875 83.9609375 -68.1875 80.375 C-68.14689453 78.59222656 -68.14689453 78.59222656 -68.10546875 76.7734375 C-68.07066406 75.85820312 -68.03585937 74.94296875 -68 74 C-65.87000003 77.79039366 -65.83297544 80.65736138 -66 85 C-65.67 84.67 -65.34 84.34 -65 84 C-65.33 83.34 -65.66 82.68 -66 82 C-65.06553465 79.96855359 -64.06775224 77.96466413 -63 76 C-62.34 76 -61.68 76 -61 76 C-61 75.34 -61 74.68 -61 74 C-60.01 74.33 -59.02 74.66 -58 75 C-57.3125 77.0625 -57.3125 77.0625 -57 79 C-55.68 79 -54.36 79 -53 79 C-51.99983813 76.99967627 -51.50603992 75.16874252 -51 73 C-50.67 73.33 -50.34 73.66 -50 74 C-49.67 73.34 -49.34 72.68 -49 72 C-47.68 72.66 -46.36 73.32 -45 74 C-45 75.65 -45 77.3 -45 79 C-44.61936779 76.6739143 -44.28730055 74.33944736 -44 72 C-44.33 71.67 -44.66 71.34 -45 71 C-45.99 71 -46.98 71 -48 71 C-49.33981486 70.6937566 -50.67511887 70.36548445 -52 70 C-51.67 67.36 -51.34 64.72 -51 62 C-50.01 62.33 -49.02 62.66 -48 63 C-47.71125 62.360625 -47.4225 61.72125 -47.125 61.0625 C-46 59 -46 59 -44 58 C-42.515 58.495 -42.515 58.495 -41 59 C-41 59.99 -41 60.98 -41 62 C-40.01 59.69 -39.02 57.38 -38 55 C-37.34 55 -36.68 55 -36 55 C-36 55.66 -36 56.32 -36 57 C-35.34 57 -34.68 57 -34 57 C-32.84188612 54.05270463 -32.84188612 54.05270463 -33 51 C-32.34 50.67 -31.68 50.34 -31 50 C-30.34 49.01 -29.68 48.02 -29 47 C-29.020625 48.11375 -29.04125 49.2275 -29.0625 50.375 C-29.26380718 53.83215921 -29.26380718 53.83215921 -28 56 C-27.01 55.01 -27.01 55.01 -26 54 C-26 53.34 -26 52.68 -26 52 C-25.34 52 -24.68 52 -24 52 C-23.505 51.01 -23.505 51.01 -23 50 C-21.515 50.495 -21.515 50.495 -20 51 C-20 51.66 -20 52.32 -20 53 C-19.34 53 -18.68 53 -18 53 C-18 51.35 -18 49.7 -18 48 C-17.01 48.99 -16.02 49.98 -15 51 C-15.495 51.99 -15.495 51.99 -16 53 C-15.34 53 -14.68 53 -14 53 C-13.67 53.99 -13.34 54.98 -13 56 C-12.67 53.69 -12.34 51.38 -12 49 C-12.66 48.67 -13.32 48.34 -14 48 C-13.67 47.01 -13.34 46.02 -13 45 C-11.33333333 44.33333333 -9.66666667 43.66666667 -8 43 C-7.67 42.01 -7.34 41.02 -7 40 C-6.195625 40.165 -5.39125 40.33 -4.5625 40.5 C-2.2715557 41.03191839 -2.2715557 41.03191839 -1 41 C-0.67 40.67 -0.34 40.34 0 40 C-1.65 38.68 -3.3 37.36 -5 36 C-5 36.99 -5 37.98 -5 39 C-5.66 39 -6.32 39 -7 39 C-7.28875 38.38125 -7.5775 37.7625 -7.875 37.125 C-8.93720042 34.86674235 -8.93720042 34.86674235 -11 33 C-9.88625 32.87625 -8.7725 32.7525 -7.625 32.625 C-3.96896323 32.3534187 -3.96896323 32.3534187 -2 30 C-0.515 30.495 -0.515 30.495 1 31 C1.33 31 1.66 31 2 31 C1.01 30.34 0.02 29.68 -1 29 C-0.67 27.68 -0.34 26.36 0 25 C1.98 25.495 1.98 25.495 4 26 C4 25.34 4 24.68 4 24 C3.34 24 2.68 24 2 24 C2 21.69 2 19.38 2 17 C1.67 17 1.34 17 1 17 C1 18.98 1 20.96 1 23 C0.34 23.33 -0.32 23.66 -1 24 C-4.875 21.375 -4.875 21.375 -6 18 C-8.99332739 18.9977758 -9.94766315 19.7522025 -12 22 C-12.54269531 21.566875 -13.08539062 21.13375 -13.64453125 20.6875 C-14.35996094 20.130625 -15.07539062 19.57375 -15.8125 19 C-16.52019531 18.443125 -17.22789062 17.88625 -17.95703125 17.3125 C-20.01595999 15.72974317 -20.01595999 15.72974317 -23 16 C-24.69719127 16.94726954 -26.36935236 17.94228261 -28 19 C-28.495 18.01 -28.495 18.01 -29 17 C-26.8614515 14.8614515 -25.86724686 14.57344937 -23 14 C-22.814375 12.88625 -22.814375 12.88625 -22.625 11.75 C-22.02877475 9.1266089 -21.50802614 7.22235432 -20 5 C-17.875 4.25 -17.875 4.25 -16 4 C-16.75 9.75 -16.75 9.75 -19 12 C-18.505 12.495 -18.505 12.495 -18 13 C-17.34 11.68 -16.68 10.36 -16 9 C-15.01 9 -14.02 9 -13 9 C-13 8.34 -13 7.68 -13 7 C-13.99 6.505 -13.99 6.505 -15 6 C-14.34 6 -13.68 6 -13 6 C-12.67 5.01 -12.34 4.02 -12 3 C-12 3.66 -12 4.32 -12 5 C-10.68 5 -9.36 5 -8 5 C-7.67 4.01 -7.34 3.02 -7 2 C-6.34 1.67 -5.68 1.34 -5 1 C-5.61277612 3.96175123 -6.25372522 5.38058783 -8 8 C-7.01 8.66 -6.02 9.32 -5 10 C-4.67 9.01 -4.34 8.02 -4 7 C-3.67 6.34 -3.34 5.68 -3 5 C-2.34 5 -1.68 5 -1 5 C-0.67 3.35 -0.34 1.7 0 0 Z " fill="#D84815" transform="translate(714,321)"/>
<path d="M0 0 C3.74935039 2.49956693 4.26737517 4.98394922 5.53125 9.0859375 C6.01096848 10.57487554 6.49070561 12.06380757 6.97045898 13.55273438 C7.21931854 14.33865967 7.4681781 15.12458496 7.72457886 15.93432617 C9.03775466 20.0676076 10.39426321 24.18649605 11.75390625 28.3046875 C12.02767593 29.13413879 12.30144562 29.96359009 12.58351135 30.81817627 C19.80553454 52.55479143 29.05324354 73.3884556 39 94 C39.474375 94.98726074 39.94875 95.97452148 40.4375 96.99169922 C53.54424435 124.14071902 68.95159469 150.14057233 86 175 C86.90375537 176.32805047 87.80739196 177.65618177 88.7109375 178.984375 C94.53953988 187.54401396 94.53953988 187.54401396 100.6875 195.875 C103 199 103 199 103 201 C69.17706122 192.10093524 36.55322943 177.29735914 8 157 C6.79572636 156.15603101 5.59128909 155.31229547 4.38671875 154.46875 C3.13206345 153.58439508 1.87814642 152.69899174 0.625 151.8125 C-0.23266968 151.20595581 -0.23266968 151.20595581 -1.10766602 150.5871582 C-11.53255258 143.1233489 -11.53255258 143.1233489 -14.9375 138.0625 C-16.83629879 135.41494808 -18.61444792 133.36605221 -21.1875 131.375 C-35.69908103 119.49605093 -47.77985736 98.54631348 -50 80 C-51.44427964 63.4345502 -46.50381898 47.12992016 -36.3125 34 C-34.89445566 32.3167489 -33.45536652 30.65108822 -32 29 C-31.57525391 28.51499023 -31.15050781 28.02998047 -30.71289062 27.53027344 C-21.43392914 16.98599903 -11.31393969 8.27008789 0 0 Z " fill="#A02D0B" transform="translate(375,386)"/>
<path d="M0 0 C0.33 0 0.66 0 1 0 C-0.42461955 47.29736904 -7.54509002 111.51938748 -30 154 C-30.66 154 -31.32 154 -32 154 C-32.33 153.67 -32.66 153.34 -33 153 C-33.99 155.97 -33.99 155.97 -35 159 C-37.4375 158.25 -37.4375 158.25 -40 157 C-40.8125 154.875 -40.8125 154.875 -41 153 C-39.66666667 152.33333333 -38.33333333 151.66666667 -37 151 C-37.33 150.34 -37.66 149.68 -38 149 C-38.55945313 149.43570313 -39.11890625 149.87140625 -39.6953125 150.3203125 C-57.68179079 163.68004397 -77.3971087 166.39240236 -99.171875 163.3828125 C-121.90846378 159.54698294 -143.54531953 150.35804107 -164 140 C-161.05811768 136.77571444 -158.20361814 134.84101849 -154.328125 132.85546875 C-153.20059814 132.26870361 -152.07307129 131.68193848 -150.91137695 131.07739258 C-150.3147525 130.76992096 -149.71812805 130.46244934 -149.10342407 130.1456604 C-128.75967012 119.62859648 -109.45886249 107.55771624 -91 94 C-90.32001953 93.5040332 -89.64003906 93.00806641 -88.93945312 92.49707031 C-81.10022058 86.76670173 -73.45459268 80.89059414 -66.15917969 74.47631836 C-63.57255792 72.22130388 -61.17198157 70.344316 -58 69 C-58 68.34 -58 67.68 -58 67 C-56.58178711 65.59863281 -56.58178711 65.59863281 -54.58984375 63.953125 C-42.70178993 53.835855 -31.43500577 42.44818127 -22 30 C-20.83017578 28.52080078 -20.83017578 28.52080078 -19.63671875 27.01171875 C-13.80539242 19.61305236 -8.43449864 11.93859646 -3.15234375 4.140625 C-1 1 -1 1 0 0 Z M-36 146 C-36 146.99 -36 147.98 -36 149 C-35.34 148.34 -34.68 147.68 -34 147 C-34.66 146.67 -35.32 146.34 -36 146 Z " fill="#D44614" transform="translate(626,461)"/>
<path d="M0 0 C1.32 0.66 2.64 1.32 4 2 C4 3.65 4 5.3 4 7 C4.268125 6.195625 4.53625 5.39125 4.8125 4.5625 C5.204375 3.716875 5.59625 2.87125 6 2 C6.99 1.67 7.98 1.34 9 1 C9.99 1.66 10.98 2.32 12 3 C12.33 2.01 12.66 1.02 13 0 C13.91642281 2.50119791 14.08842201 3.72478246 13.26245117 6.2956543 C12.86002197 7.13008057 12.45759277 7.96450684 12.04296875 8.82421875 C11.59501953 9.76193115 11.14707031 10.69964355 10.68554688 11.66577148 C9.94401367 13.1615271 9.94401367 13.1615271 9.1875 14.6875 C8.68412109 15.7175415 8.18074219 16.74758301 7.66210938 17.80883789 C-10.93729424 55.37811631 -39.24643945 92.6872854 -72.28125 118.83984375 C-75.10045581 121.07981618 -77.82687799 123.40893886 -80.5625 125.75 C-85.71799748 130.05866807 -91.05793342 134.06056512 -96.5 138 C-97.27802979 138.56428711 -98.05605957 139.12857422 -98.85766602 139.70996094 C-102.16092858 142.07731714 -105.31859723 144.25553106 -109 146 C-108.24364919 141.63513749 -106.94961038 137.48828168 -105.59375 133.28125 C-105.09528436 131.71038546 -104.5976829 130.1392465 -104.10083008 128.56787109 C-103.83944244 127.74180359 -103.57805481 126.91573608 -103.30874634 126.06463623 C-96.72412475 105.18397402 -90.10275374 83.75604331 -86.5222168 62.11181641 C-86.34988525 61.41491699 -86.17755371 60.71801758 -86 60 C-85.01 59.505 -85.01 59.505 -84 59 C-83.67 58.01 -83.34 57.02 -83 56 C-82.34 56 -81.68 56 -81 56 C-81 54.35 -81 52.7 -81 51 C-79.02 51 -77.04 51 -75 51 C-75.495 50.54625 -75.99 50.0925 -76.5 49.625 C-78 48 -78 48 -78 46 C-77.34 46 -76.68 46 -76 46 C-75.67 44.02 -75.34 42.04 -75 40 C-74.34 40 -73.68 40 -73 40 C-72.505 39.01 -72.505 39.01 -72 38 C-71.030625 37.71125 -70.06125 37.4225 -69.0625 37.125 C-65.90453298 36.32642679 -65.90453298 36.32642679 -64.75 33.9375 C-64.5025 33.298125 -64.255 32.65875 -64 32 C-63.34 31.67 -62.68 31.34 -62 31 C-61.731875 30.360625 -61.46375 29.72125 -61.1875 29.0625 C-59.58799494 26.28441227 -57.99781972 25.9505282 -55 25 C-54.01 24.67 -53.02 24.34 -52 24 C-52 23.34 -52 22.68 -52 22 C-51.34 22 -50.68 22 -50 22 C-50 21.34 -50 20.68 -50 20 C-48 21 -48 21 -47.26171875 22.9609375 C-47.07222656 23.75757813 -46.88273438 24.55421875 -46.6875 25.375 C-46.48511719 26.16648437 -46.28273438 26.95796875 -46.07421875 27.7734375 C-46 30 -46 30 -47.45703125 31.7890625 C-47.96621094 32.18867187 -48.47539063 32.58828125 -49 33 C-48.01 33 -47.02 33 -46 33 C-45.34 31.02 -44.68 29.04 -44 27 C-44.495 26.566875 -44.99 26.13375 -45.5 25.6875 C-47 24 -47 24 -47 21 C-46.360625 21.185625 -45.72125 21.37125 -45.0625 21.5625 C-44.381875 21.706875 -43.70125 21.85125 -43 22 C-41.7018576 20.8509288 -41.7018576 20.8509288 -41 18 C-39.68 18 -38.36 18 -37 18 C-36.34 17.34 -35.68 16.68 -35 16 C-34.34 15.67 -33.68 15.34 -33 15 C-33 14.34 -33 13.68 -33 13 C-32.01 13.33 -31.02 13.66 -30 14 C-30.33 16.31 -30.66 18.62 -31 21 C-30.34 20.34 -29.68 19.68 -29 19 C-28.01 20.485 -28.01 20.485 -27 22 C-25.7922442 18.37673261 -26.45688872 17.35853631 -28 14 C-27.34 14 -26.68 14 -26 14 C-26.495 12.515 -26.495 12.515 -27 11 C-25.68 10.01 -24.36 9.02 -23 8 C-20.84622436 10.62198774 -19.59927826 12.64404172 -19 16 C-19 14.68 -19 13.36 -19 12 C-17 10.25 -17 10.25 -15 9 C-15.495 6.525 -15.495 6.525 -16 4 C-14.02 4.66 -12.04 5.32 -10 6 C-9.34 4.68 -8.68 3.36 -8 2 C-6.8553125 2.3403125 -6.8553125 2.3403125 -5.6875 2.6875 C-4.800625 2.790625 -3.91375 2.89375 -3 3 C-1.1645201 1.66621425 -1.1645201 1.66621425 0 0 Z M-23 13 C-22 15 -22 15 -22 15 Z " fill="#BF3B11" transform="translate(714,483)"/>
<path d="M0 0 C1.98 4.29 3.96 8.58 6 13 C8.31 12.34 10.62 11.68 13 11 C13.99 12.98 13.99 12.98 15 15 C15.66 14.34 16.32 13.68 17 13 C19.125 12.375 19.125 12.375 21 12 C21.12375 12.639375 21.2475 13.27875 21.375 13.9375 C21.684375 14.9584375 21.684375 14.9584375 22 16 C22.66 16.33 23.32 16.66 24 17 C24.495 15.515 24.495 15.515 25 14 C25.99 15.98 25.99 15.98 27 18 C30.0745356 17.2236068 30.0745356 17.2236068 32 15 C32.66 15 33.32 15 34 15 C34 16.32 34 17.64 34 19 C32.04783565 20.95216435 30.46800047 21.84826645 28 23 C26.02 21.35 24.04 19.7 22 18 C23.32 19.65 24.64 21.3 26 23 C25 25 25 25 23 28 C24.98 28.33 26.96 28.66 29 29 C29 28.34 29 27.68 29 27 C31 27 31 27 32.625 28.5 C33.07875 28.995 33.5325 29.49 34 30 C34.495 28.515 34.495 28.515 35 27 C35.54269531 27.63808594 36.08539062 28.27617188 36.64453125 28.93359375 C37.35996094 29.75988281 38.07539062 30.58617187 38.8125 31.4375 C39.52019531 32.26121094 40.22789062 33.08492187 40.95703125 33.93359375 C42.91109686 36.22164759 42.91109686 36.22164759 46 37 C46.103125 38.11375 46.20625 39.2275 46.3125 40.375 C46.539375 41.57125 46.76625 42.7675 47 44 C48.485 44.99 48.485 44.99 50 46 C49.505 44.02 49.505 44.02 49 42 C51.37013219 43.77759914 51.97677192 44.9128947 52.75 47.8125 C51.87657573 51.52455314 51.27039729 51.93946712 48.25 54.0625 C28.44818535 65.94358879 6.22214456 66.67817215 -15.875 61.38671875 C-35.11892381 56.34646449 -53.27882682 48.97382092 -71 40 C-68.05811768 36.77571444 -65.20361814 34.84101849 -61.328125 32.85546875 C-60.19995361 32.26822021 -59.07178223 31.68097168 -57.90942383 31.07592773 C-57.31271881 30.76839569 -56.71601379 30.46086365 -56.10122681 30.14401245 C-41.10604519 22.39613527 -26.27020723 14.08850489 -12.54052734 4.23486328 C-11.76789551 3.68427246 -10.99526367 3.13368164 -10.19921875 2.56640625 C-9.53108154 2.07213135 -8.86294434 1.57785645 -8.17456055 1.06860352 C-6 0 -6 0 0 0 Z M23 29 C23.66 29.66 24.32 30.32 25 31 C25 30.34 25 29.68 25 29 C24.34 29 23.68 29 23 29 Z " fill="#BE3A10" transform="translate(533,561)"/>
<path d="M0 0 C2.19938682 2.77022911 3.82591028 5.47765573 5.3125 8.68359375 C5.74199951 9.59979492 6.17149902 10.51599609 6.61401367 11.45996094 C7.07138916 12.44254883 7.52876465 13.42513672 8 14.4375 C23.40582116 46.98953821 41.32226088 79.16860697 63 108 C64.84678663 110.51121324 66.67548991 113.03507338 68.5 115.5625 C68.94633789 116.17158203 69.39267578 116.78066406 69.85253906 117.40820312 C73 121.77155967 73 121.77155967 73 124 C47.25886048 117.22731626 23.25073012 106.86023247 -0.0625 94.0625 C-1.05056641 93.53116455 -2.03863281 92.9998291 -3.05664062 92.45239258 C-3.95705078 91.94345459 -4.85746094 91.4345166 -5.78515625 90.91015625 C-6.57801025 90.46808838 -7.37086426 90.02602051 -8.18774414 89.57055664 C-10 88 -10 88 -10.82592773 85.44311523 C-11 83 -11 83 -10 81 C-9.34 81 -8.68 81 -8 81 C-8 79.35 -8 77.7 -8 76 C-9.32 75.67 -10.64 75.34 -12 75 C-11.505 74.13375 -11.01 73.2675 -10.5 72.375 C-8.9522239 68.89250377 -8.73197104 66.75240542 -9 63 C-8.34 63 -7.68 63 -7 63 C-7 62.34 -7 61.68 -7 61 C-7.66 60.67 -8.32 60.34 -9 60 C-9 57.69 -9 55.38 -9 53 C-8.34 53 -7.68 53 -7 53 C-6.67 52.34 -6.34 51.68 -6 51 C-6.66 51 -7.32 51 -8 51 C-8.08857895 47.81115797 -7.98002972 45.04898134 -7 42 C-6.505 41.505 -6.505 41.505 -6 41 C-6.66 40.67 -7.32 40.34 -8 40 C-8 39.34 -8 38.68 -8 38 C-5.03 37.505 -5.03 37.505 -2 37 C-2.66 35.35 -3.32 33.7 -4 32 C-2.68 31.67 -1.36 31.34 0 31 C0 29.68 0 28.36 0 27 C-0.33 27.66 -0.66 28.32 -1 29 C-3 29 -3 29 -4.625 27.5 C-5.07875 27.005 -5.5325 26.51 -6 26 C-6.33 26.99 -6.66 27.98 -7 29 C-7.33 28.01 -7.66 27.02 -8 26 C-7.360625 25.87625 -6.72125 25.7525 -6.0625 25.625 C-5.381875 25.41875 -4.70125 25.2125 -4 25 C-3.67 24.34 -3.34 23.68 -3 23 C-2.67 23.66 -2.34 24.32 -2 25 C-1.01 25 -0.02 25 1 25 C2.724342 22.22222764 2.724342 22.22222764 2.625 19.0625 C2.41875 18.381875 2.2125 17.70125 2 17 C2.04125 16.195625 2.0825 15.39125 2.125 14.5625 C1.96509025 11.28435005 0.82353659 9.70153569 -1 7 C-2 5.33333333 -3 3.66666667 -4 2 C-2.68 1.34 -1.36 0.68 0 0 Z " fill="#D44614" transform="translate(405,463)"/>
<path d="M0 0 C3.79141479 3.79141479 5.29564887 9.40765718 7.33276367 14.32128906 C8.18341502 16.36518485 9.05120768 18.40122802 9.91992188 20.4375 C10.46200836 21.73653281 11.00305883 23.03599855 11.54296875 24.3359375 C12.03821045 25.51720215 12.53345215 26.6984668 13.04370117 27.91552734 C13.97270306 30.9119557 14.32761783 32.1932269 13 35 C12.01 35.495 12.01 35.495 11 36 C11.433125 36.556875 11.86625 37.11375 12.3125 37.6875 C12.869375 38.450625 13.42625 39.21375 14 40 C14.556875 40.7425 15.11375 41.485 15.6875 42.25 C17.50740507 46.06313444 17.20392034 48.78564631 17 53 C17 53.99 17 54.98 17 56 C16.34 56.99 15.68 57.98 15 59 C14.21625 58.814375 13.4325 58.62875 12.625 58.4375 C10.02910225 57.74037734 10.02910225 57.74037734 8 59 C8.99 59.33 9.98 59.66 11 60 C11.33 60.33 11.66 60.66 12 61 C12.66 60.67 13.32 60.34 14 60 C14.6875 61.8125 14.6875 61.8125 15 64 C13.5625 65.75 13.5625 65.75 12 67 C12.33 67.99 12.66 68.98 13 70 C10.625 71.0625 10.625 71.0625 8 72 C7.01 71.505 7.01 71.505 6 71 C6.99 71.99 6.99 71.99 8 73 C8 76.92896395 6.99700137 80.19893228 6 84 C6.66 84 7.32 84 8 84 C7.835 84.94875 7.67 85.8975 7.5 86.875 C6.9473365 89.80168901 6.9473365 89.80168901 7 92 C7.99 92.99 7.99 92.99 9 94 C8.525625 94.721875 8.05125 95.44375 7.5625 96.1875 C6.04746091 98.91457037 5.49357476 100.95628895 5 104 C4.67 104.66 4.34 105.32 4 106 C4.495 106.556875 4.99 107.11375 5.5 107.6875 C7.24754367 110.38162983 7.26218749 111.85375007 7 115 C6.01 115.33 5.02 115.66 4 116 C4 116.99 4 117.98 4 119 C-4.601315 117.3625937 -12.45543438 110.0447607 -19.375 104.9375 C-20.39158691 104.19632935 -20.39158691 104.19632935 -21.42871094 103.44018555 C-27.32797733 99.0215853 -32.01587607 94.79060667 -33.875 87.375 C-34.11992187 86.45460938 -34.36484375 85.53421875 -34.6171875 84.5859375 C-35.00395389 81.97329106 -34.98195135 80.43832864 -34 78 C-33.01 77.505 -33.01 77.505 -32 77 C-32 75.68 -32 74.36 -32 73 C-32.66 73 -33.32 73 -34 73 C-34 71.02 -34 69.04 -34 67 C-33.01 66.505 -33.01 66.505 -32 66 C-32 63.03 -32 60.06 -32 57 C-31.01 57 -30.02 57 -29 57 C-29 56.01 -29 55.02 -29 54 C-29 53.01 -29 52.02 -29 51 C-29.495 49.515 -29.495 49.515 -30 48 C-29.67 47.01 -29.34 46.02 -29 45 C-27.68 45.66 -26.36 46.32 -25 47 C-25 44.3534665 -25.98139634 42.4191837 -27 40 C-25 38 -25 38 -22.4375 37.1875 C-21.2309375 36.5996875 -21.2309375 36.5996875 -20 36 C-19.10613836 33.45224694 -19.10613836 33.45224694 -19 31 C-18.01 31 -17.02 31 -16 31 C-16.66 30.34 -17.32 29.68 -18 29 C-17.67 28.01 -17.34 27.02 -17 26 C-16.01 26 -15.02 26 -14 26 C-12.7192798 22.15783941 -13.17730725 19.90779056 -14 16 C-12.68 16.66 -11.36 17.32 -10 18 C-9.690625 17.071875 -9.38125 16.14375 -9.0625 15.1875 C-8.375 13.125 -7.6875 11.0625 -7 9 C-6.35546875 8.85691406 -5.7109375 8.71382813 -5.046875 8.56640625 C-2.8333752 8.21357434 -2.8333752 8.21357434 -1.953125 6.15234375 C-1.72109375 5.42144531 -1.4890625 4.69054687 -1.25 3.9375 C-1.00765625 3.20402344 -0.7653125 2.47054688 -0.515625 1.71484375 C-0.34546875 1.14894531 -0.1753125 0.58304687 0 0 Z " fill="#BD3910" transform="translate(391,430)"/>
<path d="M0 0 C0.33 0 0.66 0 1 0 C0.10690285 29.6508254 -5.52009348 58.9278484 -11 88 C-11.33 88 -11.66 88 -12 88 C-12 86.02 -12 84.04 -12 82 C-12.99 82 -13.98 82 -15 82 C-15.33 82 -15.66 82 -16 82 C-15.01 82.33 -14.02 82.66 -13 83 C-13.11398665 84.62580966 -13.24155659 86.25067157 -13.375 87.875 C-13.44460938 88.77992188 -13.51421875 89.68484375 -13.5859375 90.6171875 C-14 93 -14 93 -16 95 C-16 93.35 -16 91.7 -16 90 C-16.99 89.67 -17.98 89.34 -19 89 C-19.33 88.67 -19.66 88.34 -20 88 C-20.99 88 -21.98 88 -23 88 C-23.66 89.65 -24.32 91.3 -25 93 C-25.99 92.67 -26.98 92.34 -28 92 C-28.495 93.485 -28.495 93.485 -29 95 C-31.52588702 92.63707344 -32.88820837 91.33537489 -34 88 C-34.33 88.66 -34.66 89.32 -35 90 C-35.66 90 -36.32 90 -37 90 C-37 90.66 -37 91.32 -37 92 C-37.66 92 -38.32 92 -39 92 C-39.66 91.34 -40.32 90.68 -41 90 C-42.485 89.505 -42.485 89.505 -44 89 C-44 88.01 -44 87.02 -44 86 C-44.99 86.99 -44.99 86.99 -46 88 C-46.2475 86.88625 -46.495 85.7725 -46.75 84.625 C-47.61783524 81.00066858 -47.61783524 81.00066858 -49.9375 79.5625 C-52.12607709 78.8684413 -52.12607709 78.8684413 -55 79 C-55.33 78.01 -55.66 77.02 -56 76 C-56.74957157 79.47147842 -56.74957157 79.47147842 -57 83 C-57.66 83 -58.32 83 -59 83 C-59.495 83.99 -59.495 83.99 -60 85 C-60.33 84.01 -60.66 83.02 -61 82 C-63.83967231 82 -66.23735711 82.40267181 -69 83 C-69.66 81.68 -70.32 80.36 -71 79 C-69.21371169 77.32722165 -67.4214925 75.66175557 -65.625 74 C-65.11710938 73.52304687 -64.60921875 73.04609375 -64.0859375 72.5546875 C-60.2265625 69 -60.2265625 69 -58 69 C-58 68.34 -58 67.68 -58 67 C-56.58178711 65.59863281 -56.58178711 65.59863281 -54.58984375 63.953125 C-42.70178993 53.835855 -31.43500577 42.44818127 -22 30 C-21.22011719 29.01386719 -20.44023438 28.02773438 -19.63671875 27.01171875 C-13.80539242 19.61305236 -8.43449864 11.93859646 -3.15234375 4.140625 C-1 1 -1 1 0 0 Z M-39 88 C-38 90 -38 90 -38 90 Z M-41 92 C-40.34 92.33 -39.68 92.66 -39 93 C-39.66 93.66 -40.32 94.32 -41 95 C-41 94.01 -41 93.02 -41 92 Z " fill="#DE4E19" transform="translate(626,461)"/>
<path d="M0 0 C1.32 0.66 2.64 1.32 4 2 C4 3.65 4 5.3 4 7 C4.268125 6.195625 4.53625 5.39125 4.8125 4.5625 C5.204375 3.716875 5.59625 2.87125 6 2 C6.99 1.67 7.98 1.34 9 1 C9.99 1.66 10.98 2.32 12 3 C12.33 2.01 12.66 1.02 13 0 C13.97776662 2.59179771 14.07609143 3.77286275 13.18310547 6.43847656 C12.53172607 7.77604004 12.53172607 7.77604004 11.8671875 9.140625 C11.39023437 10.12933594 10.91328125 11.11804688 10.421875 12.13671875 C9.65617188 13.67779297 9.65617188 13.67779297 8.875 15.25 C8.38773438 16.26191406 7.90046875 17.27382813 7.3984375 18.31640625 C0.82024455 31.80520084 0.82024455 31.80520084 -2 35 C-2.99 35 -3.98 35 -5 35 C-5.495 33.02 -5.495 33.02 -6 31 C-6.61875 31.78375 -7.2375 32.5675 -7.875 33.375 C-10 36 -10 36 -12 38 C-15 34.125 -15 34.125 -15 33 C-15.32380126 31.66431979 -15.65657551 30.33076989 -16 29 C-16.97110486 32.02121511 -17.13617383 34.00463263 -16 37 C-15.34 37.33 -14.68 37.66 -14 38 C-14.9590625 38.433125 -14.9590625 38.433125 -15.9375 38.875 C-18.15206079 39.82823451 -18.15206079 39.82823451 -19 42 C-20.485 42.495 -20.485 42.495 -22 43 C-22 43.66 -22 44.32 -22 45 C-22.66 45 -23.32 45 -24 45 C-24.495 45.99 -24.495 45.99 -25 47 C-25 43.60406522 -24.47834052 42.93380119 -22.5 40.3125 C-22.0359375 39.68988281 -21.571875 39.06726563 -21.09375 38.42578125 C-20.7328125 37.95527344 -20.371875 37.48476563 -20 37 C-20.99 37 -21.98 37 -23 37 C-23.474375 37.474375 -23.94875 37.94875 -24.4375 38.4375 C-26.26740325 40.26740325 -27.53364897 40.42451809 -30 41 C-30.495 41.99 -30.495 41.99 -31 43 C-31.99 43 -32.98 43 -34 43 C-34.66 41.68 -35.32 40.36 -36 39 C-36.763125 39.804375 -37.52625 40.60875 -38.3125 41.4375 C-41 44 -41 44 -44 45 C-44.99 44.505 -44.99 44.505 -46 44 C-46.33 44.99 -46.66 45.98 -47 47 C-49.8125 49.75 -49.8125 49.75 -53 52 C-55.375 51.8125 -55.375 51.8125 -57 51 C-57 50.34 -57 49.68 -57 49 C-57.99 50.98 -58.98 52.96 -60 55 C-60.99 55 -61.98 55 -63 55 C-63.495 54.505 -63.495 54.505 -64 54 C-64.33 54.66 -64.66 55.32 -65 56 C-65.66 56 -66.32 56 -67 56 C-67.33 56.66 -67.66 57.32 -68 58 C-68.66 58 -69.32 58 -70 58 C-70.66 58.99 -71.32 59.98 -72 61 C-74.3828125 62.38671875 -74.3828125 62.38671875 -77.125 63.6875 C-78.03507813 64.12449219 -78.94515625 64.56148437 -79.8828125 65.01171875 C-80.58148437 65.33785156 -81.28015625 65.66398438 -82 66 C-82.66 65.34 -83.32 64.68 -84 64 C-83.96712417 61.27130593 -83.43602229 58.7033382 -83 56 C-82.34 56 -81.68 56 -81 56 C-81 54.35 -81 52.7 -81 51 C-79.02 51 -77.04 51 -75 51 C-75.7425 50.319375 -75.7425 50.319375 -76.5 49.625 C-78 48 -78 48 -78 46 C-77.34 46 -76.68 46 -76 46 C-75.505 43.03 -75.505 43.03 -75 40 C-74.34 40 -73.68 40 -73 40 C-72.67 39.34 -72.34 38.68 -72 38 C-71.030625 37.71125 -70.06125 37.4225 -69.0625 37.125 C-65.90453298 36.32642679 -65.90453298 36.32642679 -64.75 33.9375 C-64.5025 33.298125 -64.255 32.65875 -64 32 C-63.34 31.67 -62.68 31.34 -62 31 C-61.731875 30.360625 -61.46375 29.72125 -61.1875 29.0625 C-59.58799494 26.28441227 -57.99781972 25.9505282 -55 25 C-54.01 24.67 -53.02 24.34 -52 24 C-52 23.34 -52 22.68 -52 22 C-51.34 22 -50.68 22 -50 22 C-50 21.34 -50 20.68 -50 20 C-48 21 -48 21 -47.26171875 22.9609375 C-47.07222656 23.75757813 -46.88273438 24.55421875 -46.6875 25.375 C-46.48511719 26.16648437 -46.28273438 26.95796875 -46.07421875 27.7734375 C-46 30 -46 30 -47.45703125 31.7890625 C-47.96621094 32.18867187 -48.47539063 32.58828125 -49 33 C-48.01 33 -47.02 33 -46 33 C-45.34 31.02 -44.68 29.04 -44 27 C-44.495 26.566875 -44.99 26.13375 -45.5 25.6875 C-47 24 -47 24 -47 21 C-46.360625 21.185625 -45.72125 21.37125 -45.0625 21.5625 C-44.0415625 21.7790625 -44.0415625 21.7790625 -43 22 C-41.7018576 20.8509288 -41.7018576 20.8509288 -41 18 C-39.68 18 -38.36 18 -37 18 C-36.34 17.34 -35.68 16.68 -35 16 C-34.34 15.67 -33.68 15.34 -33 15 C-33 14.34 -33 13.68 -33 13 C-32.01 13.33 -31.02 13.66 -30 14 C-30.33 16.31 -30.66 18.62 -31 21 C-30.34 20.34 -29.68 19.68 -29 19 C-28.34 19.99 -27.68 20.98 -27 22 C-25.7922442 18.37673261 -26.45688872 17.35853631 -28 14 C-27.34 14 -26.68 14 -26 14 C-26.495 12.515 -26.495 12.515 -27 11 C-25.68 10.01 -24.36 9.02 -23 8 C-20.84622436 10.62198774 -19.59927826 12.64404172 -19 16 C-19 14.68 -19 13.36 -19 12 C-17 10.25 -17 10.25 -15 9 C-15.495 6.525 -15.495 6.525 -16 4 C-14.02 4.66 -12.04 5.32 -10 6 C-9.34 4.68 -8.68 3.36 -8 2 C-6.8553125 2.3403125 -6.8553125 2.3403125 -5.6875 2.6875 C-4.800625 2.790625 -3.91375 2.89375 -3 3 C-1.1645201 1.66621425 -1.1645201 1.66621425 0 0 Z M-23 13 C-22 15 -22 15 -22 15 Z M-23 31 C-23 31.99 -23 32.98 -23 34 C-22.34 34.33 -21.68 34.66 -21 35 C-21.66 33.68 -22.32 32.36 -23 31 Z " fill="#CB4112" transform="translate(714,483)"/>
<path d="M0 0 C0.33 0.66 0.66 1.32 1 2 C1.66 2 2.32 2 3 2 C3 2.66 3 3.32 3 4 C3.61552734 4.09555176 4.23105469 4.19110352 4.86523438 4.28955078 C8.62578124 5.5410594 9.7879432 9.52665343 11.5 12.875 C19.09595935 27.13428297 27.91152741 40.65076899 37 54 C37.43199707 54.63566895 37.86399414 55.27133789 38.30908203 55.92626953 C44.81525752 65.53155619 44.81525752 65.53155619 51.6875 74.875 C54 78 54 78 54 80 C31.60851813 74.1086359 10.66452607 65.40624826 -10 55 C-10 54.34 -10 53.68 -10 53 C-9.01 52.34 -8.02 51.68 -7 51 C-4.7226499 48.18490007 -4.7226499 48.18490007 -5 45 C-4 45 -3 45 -2 45 C-1.67 44.01 -1.34 43.02 -1 42 C-2.485 42.495 -2.485 42.495 -4 43 C-4.66 41.02 -5.32 39.04 -6 37 C-5.030625 36.401875 -4.06125 35.80375 -3.0625 35.1875 C0.23052042 33.28872491 0.23052042 33.28872491 1 30 C0.649375 29.360625 0.29875 28.72125 -0.0625 28.0625 C-0.5265625 27.0415625 -0.5265625 27.0415625 -1 26 C-0.125 23.9375 -0.125 23.9375 1 22 C1.15811388 18.94729537 1.15811388 18.94729537 0 16 C0.66 15.01 1.32 14.02 2 13 C1.67257812 12.43796875 1.34515625 11.8759375 1.0078125 11.296875 C-0.11785494 8.73140036 -0.2068111 7.03157723 -0.125 4.25 C-0.10695313 3.45078125 -0.08890625 2.6515625 -0.0703125 1.828125 C-0.04710937 1.22484375 -0.02390625 0.6215625 0 0 Z M-4 37 C-4 37.66 -4 38.32 -4 39 C-3.34 38.67 -2.68 38.34 -2 38 C-2.66 37.67 -3.32 37.34 -4 37 Z " fill="#DE4F19" transform="translate(424,507)"/>
<path d="M0 0 C0 0.66 0 1.32 0 2 C1.65 2 3.3 2 5 2 C5.33 1.34 5.66 0.68 6 0 C6.144375 0.9075 6.28875 1.815 6.4375 2.75 C6.623125 3.8225 6.80875 4.895 7 6 C7.1546875 7.0828125 7.1546875 7.0828125 7.3125 8.1875 C8.25855792 10.6816527 9.80168799 11.58173419 12 13 C11.01 11.35 10.02 9.7 9 8 C9.66 8 10.32 8 11 8 C10.505 7.38125 10.01 6.7625 9.5 6.125 C8 4 8 4 8 2 C9.875 1.375 9.875 1.375 12 1 C12.66 1.66 13.32 2.32 14 3 C14.66 3 15.32 3 16 3 C16 4.65 16 6.3 16 8 C16.928125 8.226875 17.85625 8.45375 18.8125 8.6875 C22.67890247 10.27954808 23.07154845 11.38415335 25 15 C28.4479571 19.64101851 28.4479571 19.64101851 33 23 C33.33 22.34 33.66 21.68 34 21 C34.99 21.99 35.98 22.98 37 24 C36.34 24.66 35.68 25.32 35 26 C35 26.99 35 27.98 35 29 C35.33 29.33 35.66 29.66 36 30 C36.99 29.67 37.98 29.34 39 29 C39.33 28.34 39.66 27.68 40 27 C40.495 27.99 40.495 27.99 41 29 C41.99 28.505 41.99 28.505 43 28 C42.835 28.78375 42.67 29.5675 42.5 30.375 C41.9376293 32.88208039 41.9376293 32.88208039 42 35 C42.99 35 43.98 35 45 35 C46.63706438 36.43243134 47.90068798 37.85413547 49.125 39.65234375 C51.63913699 41.45937971 53.47932122 41.03503867 56.44921875 40.6015625 C57.12597656 40.48554687 57.80273438 40.36953125 58.5 40.25 C59.51513672 40.09917969 59.51513672 40.09917969 60.55078125 39.9453125 C63.47623075 39.49524335 66.18769621 38.9374346 69 38 C68.67 38.99 68.34 39.98 68 41 C37.42109055 51.59594769 -0.84515752 35.17631574 -28 22 C-30.00351025 21.00705152 -32.00512472 20.01018445 -34 19 C-30.87915994 15.54045672 -27.65463614 13.51406848 -23.5546875 11.328125 C-22.94360138 11.00084412 -22.33251526 10.67356323 -21.70291138 10.33636475 C-20.4188494 9.65064262 -19.13291095 8.96842391 -17.84521484 8.28955078 C-15.86990741 7.24731298 -13.90145229 6.1929417 -11.93359375 5.13671875 C-2.2867773 0 -2.2867773 0 0 0 Z " fill="#A22E0C" transform="translate(496,582)"/>
<path d="M0 0 C0.99 0 1.98 0 3 0 C5.59692651 6.11041531 4.96674234 10.75450785 3.125 16.9375 C2 19 2 19 -1 20 C-2.84046388 21.84046388 -3.22401416 24.56857771 -4 27 C-4.99 27 -5.98 27 -7 27 C-7 27.99 -7 28.98 -7 30 C-7 33 -7 33 -9 35.0625 C-9.66 35.701875 -10.32 36.34125 -11 37 C-11 37.66 -11 38.32 -11 39 C-11 39.99 -11 40.98 -11 42 C-11.99 42 -12.98 42 -14 42 C-14.33 44.31 -14.66 46.62 -15 49 C-15.66 48.01 -16.32 47.02 -17 46 C-17.45375 46.45375 -17.9075 46.9075 -18.375 47.375 C-19.58333333 48.58333333 -20.79166667 49.79166667 -22 51 C-21.34 51.33 -20.68 51.66 -20 52 C-19.01 51.505 -19.01 51.505 -18 51 C-18.33 52.98 -18.66 54.96 -19 57 C-20.98 56.01 -22.96 55.02 -25 54 C-25.33 55.98 -25.66 57.96 -26 60 C-26.99 60 -27.98 60 -29 60 C-29.33 58.68 -29.66 57.36 -30 56 C-30.33 57.32 -30.66 58.64 -31 60 C-33 59 -33 59 -33.8125 57.25 C-34.07907874 54.05105506 -32.88645127 52.51526836 -31 50 C-30.34 50 -29.68 50 -29 50 C-29.495 48.515 -29.495 48.515 -30 47 C-28.515 46.505 -28.515 46.505 -27 46 C-27.495 44.515 -27.495 44.515 -28 43 C-27.34 43 -26.68 43 -26 43 C-26 42.34 -26 41.68 -26 41 C-25.01 40.505 -25.01 40.505 -24 40 C-23.27306096 38.02111039 -22.60183749 36.02045442 -22 34 C-21.34 34 -20.68 34 -20 34 C-20 33.34 -20 32.68 -20 32 C-19.34 31.34 -18.68 30.68 -18 30 C-18.33 29.34 -18.66 28.68 -19 28 C-18.34 28 -17.68 28 -17 28 C-16.67 27.01 -16.34 26.02 -16 25 C-15.01 26.32 -14.02 27.64 -13 29 C-12.34 27.35 -11.68 25.7 -11 24 C-11.99 24.33 -12.98 24.66 -14 25 C-13.67 23.35 -13.34 21.7 -13 20 C-11.68 20 -10.36 20 -9 20 C-8.34 20.66 -7.68 21.32 -7 22 C-7 18.09397933 -7.27053683 15.45892635 -9 12 C-6.50935112 11.31292445 -4.62113708 11 -2 11 C-0.66018514 10.6937566 0.67511887 10.36548445 2 10 C1.34 10 0.68 10 0 10 C0 6.7 0 3.4 0 0 Z M-10 14 C-9.34 14 -8.68 14 -8 14 C-8.33 14.99 -8.66 15.98 -9 17 C-9.66 16.34 -10.32 15.68 -11 15 C-10.67 14.67 -10.34 14.34 -10 14 Z " fill="#AC320D" transform="translate(386,421)"/>
<path d="M0 0 C2.5859842 1.19353117 4.631424 2.47020936 6.9375 4.1875 C10.56019612 6.33154464 11.1172328 5.79646507 15 5 C17.8125 6.9375 17.8125 6.9375 20 9 C20 7.35 20 5.7 20 4 C21.9375 4.5625 21.9375 4.5625 24 6 C24.75 9.625 24.75 9.625 25 13 C25 12.01 25 11.02 25 10 C25.66 10 26.32 10 27 10 C27.33 9.34 27.66 8.68 28 8 C28.88935377 11.303314 29.46274105 14.62294375 30 18 C30 16.68 30 15.36 30 14 C30 12 30 10 30 8 C32.5 9.1875 32.5 9.1875 35 11 C35.3125 13.6875 35.3125 13.6875 35 16 C35.45375 15.195625 35.9075 14.39125 36.375 13.5625 C38 11 38 11 40 10 C40.144375 10.804375 40.28875 11.60875 40.4375 12.4375 C40.74135249 14.92103706 40.74135249 14.92103706 42 16 C41.71395102 17.67542976 41.38218767 19.34385343 41 21 C40.01 21.33 39.02 21.66 38 22 C37.9071875 23.0828125 37.9071875 23.0828125 37.8125 24.1875 C36.72858747 27.93950492 35.03685225 29.59876799 32 32 C29.6875 31.8125 29.6875 31.8125 28 31 C28.185625 30.360625 28.37125 29.72125 28.5625 29.0625 C28.7790625 28.0415625 28.7790625 28.0415625 29 27 C28.67 26.67 28.34 26.34 28 26 C28 26.66 28 27.32 28 28 C26.0625 27.4375 26.0625 27.4375 24 26 C23.25 22.375 23.25 22.375 23 19 C22.34 19.33 21.68 19.66 21 20 C18.36 16.7 15.72 13.4 13 10 C12.67 10.99 12.34 11.98 12 13 C9 11 9 11 8 10 C7.67 10.99 7.34 11.98 7 13 C5.02 12.01 3.04 11.02 1 10 C1.66 8.35 2.32 6.7 3 5 C2.2575 4.319375 2.2575 4.319375 1.5 3.625 C0 2 0 2 0 0 Z M1 11 C1.66 11 2.32 11 3 11 C2.67 11.66 2.34 12.32 2 13 C1.67 12.34 1.34 11.68 1 11 Z M42 14 C42.66 14 43.32 14 44 14 C44 14.66 44 15.32 44 16 C43.34 16 42.68 16 42 16 C42 15.34 42 14.68 42 14 Z " fill="#CA4011" transform="translate(555,579)"/>
<path d="M0 0 C3 1 3 1 4 2 C4.66 1.67 5.32 1.34 6 1 C6.6875 2.8125 6.6875 2.8125 7 5 C5.5625 6.75 5.5625 6.75 4 8 C4.33 8.99 4.66 9.98 5 11 C2.625 12.0625 2.625 12.0625 0 13 C-0.66 12.67 -1.32 12.34 -2 12 C-1.34 12.66 -0.68 13.32 0 14 C0 17.92896395 -1.00299863 21.19893228 -2 25 C-1.34 25 -0.68 25 0 25 C-0.165 25.94875 -0.33 26.8975 -0.5 27.875 C-1.0526635 30.80168901 -1.0526635 30.80168901 -1 33 C-0.34 33.66 0.32 34.32 1 35 C0.525625 35.721875 0.05125 36.44375 -0.4375 37.1875 C-1.95253909 39.91457037 -2.50642524 41.95628895 -3 45 C-3.33 45.66 -3.66 46.32 -4 47 C-3.505 47.556875 -3.01 48.11375 -2.5 48.6875 C-0.75245633 51.38162983 -0.73781251 52.85375007 -1 56 C-4 57 -4 57 -7 57 C-9.43169922 55.05464062 -11.01327173 52.96018482 -12 50 C-11.33333333 48.66666667 -10.66666667 47.33333333 -10 46 C-10.2784375 44.515 -10.2784375 44.515 -10.5625 43 C-10.7790625 41.515 -10.7790625 41.515 -11 40 C-10.2265625 38.9790625 -10.2265625 38.9790625 -9.4375 37.9375 C-8.7259375 36.9784375 -8.7259375 36.9784375 -8 36 C-8.81608777 33.37625345 -8.81608777 33.37625345 -10 31 C-9.67 30.34 -9.34 29.68 -9 29 C-9.33 28.01 -9.66 27.02 -10 26 C-9.67 25.360625 -9.34 24.72125 -9 24.0625 C-7.7604216 21.50586956 -8.31367052 20.65952675 -9 18 C-8.34 17.01 -7.68 16.02 -7 15 C-7.04125 14.05125 -7.0825 13.1025 -7.125 12.125 C-6.96596461 8.14911534 -5.77260009 6.77260009 -3 4 C-2.01 3.67 -1.02 3.34 0 3 C0 2.01 0 1.02 0 0 Z M-8 51 C-8.33 51.66 -8.66 52.32 -9 53 C-8.34 53 -7.68 53 -7 53 C-7.33 52.34 -7.66 51.68 -8 51 Z " fill="#C93F11" transform="translate(399,489)"/>
<path d="M0 0 C3.3 0.33 6.6 0.66 10 1 C10.625 3.875 10.625 3.875 11 7 C10.34 7.66 9.68 8.32 9 9 C8.67 9 8.34 9 8 9 C8.04125 10.0725 8.0825 11.145 8.125 12.25 C8.00966002 15.71019942 7.78342365 17.16750361 6 20 C5.67 20.66 5.34 21.32 5 22 C5.66 22 6.32 22 7 22 C7.33 23.32 7.66 24.64 8 26 C4.62902617 27.49821059 2.79557881 28 -1 28 C-1.625 26.1875 -1.625 26.1875 -2 24 C-1.34 23.01 -0.68 22.02 0 21 C0.66 21 1.32 21 2 21 C1.67 19.68 1.34 18.36 1 17 C0.01 17 -0.98 17 -2 17 C-2.66 15.02 -3.32 13.04 -4 11 C-4.99 11 -5.98 11 -7 11 C-6.34 9.35 -5.68 7.7 -5 6 C-4.34 6 -3.68 6 -3 6 C-3 5.34 -3 4.68 -3 4 C-2.34 4 -1.68 4 -1 4 C-0.67 2.68 -0.34 1.36 0 0 Z " fill="#AE320D" transform="translate(352,481)"/>
<path d="M0 0 C0.66 0.66 1.32 1.32 2 2 C2.66 2 3.32 2 4 2 C4 3.65 4 5.3 4 7 C4.928125 7.226875 5.85625 7.45375 6.8125 7.6875 C10.67890247 9.27954808 11.07154845 10.38415335 13 14 C16.4479571 18.64101851 16.4479571 18.64101851 21 22 C21.33 21.34 21.66 20.68 22 20 C22.99 20.99 23.98 21.98 25 23 C24.34 23.66 23.68 24.32 23 25 C23 25.99 23 26.98 23 28 C23 29.66666667 23 31.33333333 23 33 C22.01 33 21.02 33 20 33 C19.34 30.36 18.68 27.72 18 25 C17.34 25.66 16.68 26.32 16 27 C14 26.875 14 26.875 12 26 C11.33333333 24.66666667 10.66666667 23.33333333 10 22 C7.94999129 21.19471111 7.94999129 21.19471111 6 21 C6.185625 20.195625 6.37125 19.39125 6.5625 18.5625 C6.706875 17.716875 6.85125 16.87125 7 16 C6.67 15.67 6.34 15.34 6 15 C5.34 15.66 4.68 16.32 4 17 C3.7525 16.05125 3.505 15.1025 3.25 14.125 C2.33044533 10.91753905 2.33044533 10.91753905 -0.0625 9.75 C-0.701875 9.5025 -1.34125 9.255 -2 9 C-2.33 8.34 -2.66 7.68 -3 7 C-2.34 7 -1.68 7 -1 7 C-1.7425 6.071875 -1.7425 6.071875 -2.5 5.125 C-4 3 -4 3 -4 1 C-2 0 -2 0 0 0 Z M18 33 C18.66 33 19.32 33 20 33 C19.67 33.66 19.34 34.32 19 35 C18.67 34.34 18.34 33.68 18 33 Z " fill="#AF330D" transform="translate(508,583)"/>
<path d="M0 0 C0.66 0 1.32 0 2 0 C5.50817225 4.31775046 5.25708231 7.68696549 5 13 C5 13.99 5 14.98 5 16 C4.34 16.99 3.68 17.98 3 19 C-4.42857143 18 -4.42857143 18 -8 17 C-6.38731308 14.28775382 -4.75098126 11.62647188 -3 9 C-3 8.01 -3 7.02 -3 6 C-1.33333333 1.33333333 -1.33333333 1.33333333 0 0 Z " fill="#C83F11" transform="translate(403,470)"/>
<path d="M0 0 C0.99 0.33 1.98 0.66 3 1 C3 1.66 3 2.32 3 3 C3.639375 3.268125 4.27875 3.53625 4.9375 3.8125 C7 5 7 5 8 8 C8.66 8 9.32 8 10 8 C12.09230769 12.43076923 12.09230769 12.43076923 11.625 15.3125 C11.41875 15.869375 11.2125 16.42625 11 17 C10.67 16.67 10.34 16.34 10 16 C9.34 16.66 8.68 17.32 8 18 C7.401875 17.360625 6.80375 16.72125 6.1875 16.0625 C4.09189663 13.79689611 4.09189663 13.79689611 1 13 C0.67 13.66 0.34 14.32 0 15 C-2 13 -2 13 -2.265625 10.9765625 C-2.26046875 10.20054687 -2.2553125 9.42453125 -2.25 8.625 C-2.25515625 7.85414063 -2.2603125 7.08328125 -2.265625 6.2890625 C-1.97688045 3.8007639 -1.24139229 2.15765802 0 0 Z " fill="#CA4011" transform="translate(539,560)"/>
<path d="M0 0 C2.34778144 2.94009979 4.04182349 5.89021642 5.6640625 9.28125 C6.14617187 10.28800781 6.62828125 11.29476563 7.125 12.33203125 C7.62 13.37746094 8.115 14.42289062 8.625 15.5 C9.12773437 16.54542969 9.63046875 17.59085937 10.1484375 18.66796875 C14.19624452 27.16618725 14.19624452 27.16618725 15 31 C12 30 12 30 10.39453125 27.34765625 C9.87246094 26.26355469 9.35039062 25.17945313 8.8125 24.0625 C8.28269531 22.98097656 7.75289063 21.89945312 7.20703125 20.78515625 C6 18 6 18 6 16 C5.34 15.67 4.68 15.34 4 15 C4 14.01 4 13.02 4 12 C3.401875 11.79375 2.80375 11.5875 2.1875 11.375 C-0.85490688 9.46262996 -1.66171946 7.27878733 -3 4 C-3 3.01 -3 2.02 -3 1 C-2.01 0.67 -1.02 0.34 0 0 Z " fill="#CA471A" transform="translate(405,463)"/>
<path d="M0 0 C6.278744 5.22127132 11.96475764 10.90151538 17.68359375 16.72265625 C21.96021748 21.04568096 26.32373353 25.11131525 31 29 C30.67 29.66 30.34 30.32 30 31 C27.32495117 28.67614473 24.66055991 26.3404275 22 24 C21.21753906 23.31292969 20.43507813 22.62585938 19.62890625 21.91796875 C14.96558663 17.77694093 10.39972771 13.54381463 5.9375 9.1875 C5.01839844 8.29417969 4.09929687 7.40085937 3.15234375 6.48046875 C1.0434795 4.05010796 0.59863058 3.02194475 0 0 Z " fill="#DA5623" transform="translate(389,655)"/>
<path d="M0 0 C1.485 0.99 1.485 0.99 3 2 C-0.87697078 3.53197326 -4.75476156 5.06184711 -8.63330078 6.58984375 C-9.95058133 7.10913454 -11.26764247 7.6289823 -12.58447266 8.14941406 C-14.48541734 8.90058221 -16.3871616 9.64969427 -18.2890625 10.3984375 C-19.43068848 10.84880371 -20.57231445 11.29916992 -21.74853516 11.76318359 C-24.8093128 12.92746498 -27.88553914 13.98934714 -31 15 C-30 12 -30 12 -27.45556641 10.66552734 C-26.34874512 10.2267627 -25.24192383 9.78799805 -24.1015625 9.3359375 C-22.90015625 8.85382813 -21.69875 8.37171875 -20.4609375 7.875 C-19.18235861 7.37482884 -17.90371201 6.87483072 -16.625 6.375 C-15.3537667 5.86818958 -14.08292788 5.36038851 -12.8125 4.8515625 C-3.87182349 1.29060783 -3.87182349 1.29060783 0 0 Z " fill="#DA5522" transform="translate(473,335)"/>
<path d="M0 0 C0.33 0.66 0.66 1.32 1 2 C-4.91781611 9.08470943 -11.43141333 15.52848604 -18 22 C-18.66 21.34 -19.32 20.68 -20 20 C-13.4 13.4 -6.8 6.8 0 0 Z " fill="#B6431C" transform="translate(671,570)"/>
<path d="M0 0 C-2.87368163 1.91578776 -5.14892261 2.83619293 -8.40234375 3.91015625 C-9.45744141 4.26013672 -10.51253906 4.61011719 -11.59960938 4.97070312 C-13.25186523 5.51114258 -13.25186523 5.51114258 -14.9375 6.0625 C-16.03513672 6.42666016 -17.13277344 6.79082031 -18.26367188 7.16601562 C-27.10307041 10.08371825 -27.10307041 10.08371825 -31 11 C-30.67 10.01 -30.34 9.02 -30 8 C-27.45556641 6.81738281 -27.45556641 6.81738281 -24.1015625 5.703125 C-22.90015625 5.30222656 -21.69875 4.90132813 -20.4609375 4.48828125 C-19.83155273 4.28541504 -19.20216797 4.08254883 -18.55371094 3.87353516 C-16.63437783 3.25303177 -14.72348494 2.61053995 -12.8125 1.96484375 C-3.39343413 -1.13114471 -3.39343413 -1.13114471 0 0 Z " fill="#DB5320" transform="translate(508,325)"/>
<path d="M0 0 C1.51325464 3.02650929 0.31701478 4.91013597 -0.65234375 8.1015625 C-1.01650391 9.31328125 -1.38066406 10.525 -1.75585938 11.7734375 C-2.14958284 13.05733974 -2.54346512 14.3411933 -2.9375 15.625 C-3.3281422 16.91646473 -3.71812461 18.20812922 -4.10742188 19.5 C-5.06512499 22.66869673 -6.02958499 25.83517761 -7 29 C-7.33 29 -7.66 29 -8 29 C-7.85957123 27.35369672 -7.71250671 25.70795821 -7.5625 24.0625 C-7.48128906 23.14597656 -7.40007813 22.22945312 -7.31640625 21.28515625 C-7 19 -7 19 -6 18 C-5.67647018 16.46470393 -5.39127349 14.92125483 -5.125 13.375 C-3.17952128 3.17952128 -3.17952128 3.17952128 0 0 Z " fill="#CE4E1F" transform="translate(606,579)"/>
<path d="M0 0 C1.33985898 1.66142513 2.67082708 3.33001351 4 5 C4.60199219 5.74765625 5.20398438 6.4953125 5.82421875 7.265625 C6.45972656 8.06484375 7.09523438 8.8640625 7.75 9.6875 C8.36359375 10.45449219 8.9771875 11.22148438 9.609375 12.01171875 C11 14 11 14 11 16 C8.69 15.34 6.38 14.68 4 14 C4.33 12.35 4.66 10.7 5 9 C4.34 9 3.68 9 3 9 C0.56839395 5.63316085 0 4.26649636 0 0 Z " fill="#DB5320" transform="translate(467,571)"/>
<path d="M0 0 C0.33 0.99 0.66 1.98 1 3 C0.56655273 3.4031543 0.13310547 3.80630859 -0.31347656 4.22167969 C-2.29302934 6.06369005 -4.27152275 7.9068345 -6.25 9.75 C-7.27287109 10.70132813 -7.27287109 10.70132813 -8.31640625 11.671875 C-11.59823233 14.73066436 -14.85947331 17.79472018 -18 21 C-18.66 20.67 -19.32 20.34 -20 20 C-13.4 13.4 -6.8 6.8 0 0 Z " fill="#DC5C29" transform="translate(591,506)"/>
<path d="M0 0 C0.33 0 0.66 0 1 0 C2.52481974 8.76771348 2.13520165 17.20218719 1 26 C-1 24 -1 24 -1.13525391 21.56982422 C-1.08288574 20.5748291 -1.03051758 19.57983398 -0.9765625 18.5546875 C-0.925 17.47832031 -0.8734375 16.40195312 -0.8203125 15.29296875 C-0.75585938 14.16503906 -0.69140625 13.03710938 -0.625 11.875 C-0.56828125 10.73933594 -0.5115625 9.60367187 -0.453125 8.43359375 C-0.31135306 5.6217837 -0.15991439 2.81082719 0 0 Z " fill="#D85624" transform="translate(644,419)"/>
<path d="M0 0 C3.57440792 0.6078925 5.64022184 2.04849844 8.4375 4.3125 C9.21867187 4.9415625 9.99984375 5.570625 10.8046875 6.21875 C11.89136719 7.10046875 11.89136719 7.10046875 13 8 C14.010625 8.763125 15.02125 9.52625 16.0625 10.3125 C16.701875 10.869375 17.34125 11.42625 18 12 C18 12.66 18 13.32 18 14 C15.26460702 12.71277826 12.92322624 11.29913102 10.546875 9.43359375 C9.928125 8.94826172 9.309375 8.46292969 8.671875 7.96289062 C8.03765625 7.45951172 7.4034375 6.95613281 6.75 6.4375 C6.1003125 5.93025391 5.450625 5.42300781 4.78125 4.90039062 C3.16643491 3.62651864 1.58041476 2.31630802 0 1 C0 0.67 0 0.34 0 0 Z " fill="#DB5522" transform="translate(422,688)"/>
<path d="M0 0 C0.556875 0.70125 1.11375 1.4025 1.6875 2.125 C4.09124732 5.11344261 6.53810432 8.05940238 9 11 C7.68 10.67 6.36 10.34 5 10 C4.67 11.98 4.34 13.96 4 16 C1.11388804 11.0523795 0 5.66834163 0 0 Z " fill="#DC5925" transform="translate(301,484)"/>
<path d="M0 0 C2.65218242 1.25881488 5.29623869 2.53114044 7.9375 3.8125 C8.69224609 4.16892578 9.44699219 4.52535156 10.22460938 4.89257812 C10.94326172 5.24384766 11.66191406 5.59511719 12.40234375 5.95703125 C13.06741943 6.27647705 13.73249512 6.59592285 14.41772461 6.92504883 C16 8 16 8 17 11 C12.46152802 9.65072455 8.68067754 7.80840652 4.625 5.375 C3.56539063 4.74335937 2.50578125 4.11171875 1.4140625 3.4609375 C0.61742187 2.97882812 -0.17921875 2.49671875 -1 2 C-0.67 1.34 -0.34 0.68 0 0 Z " fill="#D75220" transform="translate(477,725)"/>
<path d="M0 0 C0.99 0 1.98 0 3 0 C3 0.66 3 1.32 3 2 C3.72574219 2.09410156 4.45148438 2.18820312 5.19921875 2.28515625 C8.4306455 3.10991371 10.21631743 4.36658157 12.8125 6.4375 C13.60269531 7.05496094 14.39289063 7.67242188 15.20703125 8.30859375 C16.09455078 9.14583984 16.09455078 9.14583984 17 10 C17 10.66 17 11.32 17 12 C12.66498025 10.52818439 9.28143997 8.2017333 5.6875 5.4375 C4.86282227 4.8197168 4.86282227 4.8197168 4.02148438 4.18945312 C2.65866955 3.1550682 1.32624296 2.08087744 0 1 C0 0.67 0 0.34 0 0 Z " fill="#DB5623" transform="translate(440,702)"/>
<path d="M0 0 C0.66 0 1.32 0 2 0 C0.41039668 6.23440168 -1.27600901 12.16287645 -4 18 C-4.66 18 -5.32 18 -6 18 C-4.41039668 11.76559832 -2.72399099 5.83712355 0 0 Z " fill="#CA4A1C" transform="translate(741,446)"/>
<path d="M0 0 C1.32 0.33 2.64 0.66 4 1 C4.25 3.3125 4.25 3.3125 4 6 C2.125 7.5625 2.125 7.5625 0 9 C-1.2516467 11.08334635 -1.2516467 11.08334635 -2 13 C-3.42944945 10.64561267 -4.08661261 9.51967567 -3.625 6.75 C-3.41875 6.1725 -3.2125 5.595 -3 5 C-3 5.66 -3 6.32 -3 7 C-2.34 6.67 -1.68 6.34 -1 6 C-0.34227572 2.97065509 -0.34227572 2.97065509 0 0 Z " fill="#DE511B" transform="translate(644,462)"/>
<path d="M0 0 C0.33 0 0.66 0 1 0 C0.67 5.61 0.34 11.22 0 17 C-0.33 17 -0.66 17 -1 17 C-1.66 14.03 -2.32 11.06 -3 8 C-3.99 8 -4.98 8 -6 8 C-5.02471263 6.66382648 -4.04466681 5.3311249 -3.0625 4 C-2.24458984 2.88625 -2.24458984 2.88625 -1.41015625 1.75 C-0.94480469 1.1725 -0.47945312 0.595 0 0 Z " fill="#DC5B28" transform="translate(626,461)"/>
<path d="M0 0 C6.6 0 13.2 0 20 0 C20 0.33 20 0.66 20 1 C19.04287109 1.09087891 19.04287109 1.09087891 18.06640625 1.18359375 C17.24011719 1.26738281 16.41382813 1.35117187 15.5625 1.4375 C14.32693359 1.55931641 14.32693359 1.55931641 13.06640625 1.68359375 C11.01337975 1.78930815 11.01337975 1.78930815 10 3 C8.31391034 3.07205511 6.62499341 3.08386068 4.9375 3.0625 C4.01839844 3.05347656 3.09929687 3.04445313 2.15234375 3.03515625 C1.44207031 3.02355469 0.73179687 3.01195312 0 3 C0 2.01 0 1.02 0 0 Z " fill="#DC622F" transform="translate(424,273)"/>
<path d="M0 0 C4.07343271 2.96249651 7.20566166 6.38359352 10.44921875 10.1953125 C12.02681009 12.07711254 12.02681009 12.07711254 14 14 C13.67 14.99 13.34 15.98 13 17 C10.82121168 14.74053233 8.65921169 12.46567034 6.5 10.1875 C5.87996094 9.54490234 5.25992187 8.90230469 4.62109375 8.24023438 C4.03457031 7.61826172 3.44804687 6.99628906 2.84375 6.35546875 C2.29912109 5.78465576 1.75449219 5.21384277 1.19335938 4.62573242 C0 3 0 3 0 0 Z " fill="#DB5522" transform="translate(317,482)"/>
<path d="M0 0 C5.68502535 1.64566523 10.76681636 4.29032784 16 7 C16 7.33 16 7.66 16 8 C13.36 8.33 10.72 8.66 8 9 C8 8.01 8 7.02 8 6 C5.36 4.68 2.72 3.36 0 2 C0 1.34 0 0.68 0 0 Z " fill="#DC5824" transform="translate(566,300)"/>
<path d="M0 0 C-5.95914368 3.97276245 -12.73455444 7.37624629 -20 7 C-17.16142754 4.16142754 -13.6940834 3.1848649 -10 1.8125 C-8.89398438 1.38420898 -8.89398438 1.38420898 -7.765625 0.94726562 C-2.24553571 -1.12276786 -2.24553571 -1.12276786 0 0 Z " fill="#DC5623" transform="translate(492,344)"/>
<path d="M0 0 C5.72210596 1.86763181 11.37661751 3.85289032 17 6 C16.67 6.66 16.34 7.32 16 8 C10.3856009 6.43551329 5.13189662 4.83604813 0 2 C0 1.34 0 0.68 0 0 Z " fill="#DB5521" transform="translate(547,292)"/>
<path d="M0 0 C0.99 0 1.98 0 3 0 C3.66 2.64 4.32 5.28 5 8 C3.02 8.99 3.02 8.99 1 10 C-0.04005702 6.61981469 -0.08004482 3.5219721 0 0 Z " fill="#B23A13" transform="translate(386,421)"/>
<path d="M0 0 C3 0 3 0 4.75390625 1.64453125 C5.35074219 2.35996094 5.94757813 3.07539062 6.5625 3.8125 C7.16191406 4.52019531 7.76132812 5.22789062 8.37890625 5.95703125 C10 8 10 8 12 11 C8.7173068 9.50923566 6.06922559 7.61379679 3.25 5.375 C2.45078125 4.74335937 1.6515625 4.11171875 0.828125 3.4609375 C0.22484375 2.97882812 -0.3784375 2.49671875 -1 2 C-0.67 1.34 -0.34 0.68 0 0 Z " fill="#DA5522" transform="translate(351,516)"/>
<path d="M0 0 C5.76044212 0.60636233 10.72014369 2.75658279 16 5 C16 5.66 16 6.32 16 7 C10.63904723 5.41078475 5.29156027 3.81027062 0 2 C0 1.34 0 0.68 0 0 Z " fill="#DB5522" transform="translate(519,396)"/>
<path d="M0 0 C8.40215965 -0.11039334 16.64736824 0.04541351 25 1 C25 1.33 25 1.66 25 2 C20.38 2.33 15.76 2.66 11 3 C11 2.34 11 1.68 11 1 C7.37 1 3.74 1 0 1 C0 0.67 0 0.34 0 0 Z " fill="#DF5C27" transform="translate(449,274)"/>
<path d="M0 0 C2.97 0 5.94 0 9 0 C9.33 1.98 9.66 3.96 10 6 C6.51329166 4.8905928 3.22515763 3.73662334 0 2 C0 1.34 0 0.68 0 0 Z " fill="#D55120" transform="translate(414,560)"/>
<path d="M0 0 C-5.25432063 2.45946923 -10.30860098 3.90301833 -16 5 C-16 4.34 -16 3.68 -16 3 C-13.89936424 2.30178583 -11.79434263 1.61675528 -9.6875 0.9375 C-8.51574219 0.55464844 -7.34398437 0.17179687 -6.13671875 -0.22265625 C-3 -1 -3 -1 0 0 Z " fill="#DB5522" transform="translate(525,320)"/>
<path d="M0 0 C3.91703377 1.30567792 4.31757187 2.80094602 6.25 6.375 C7.06210937 7.84066406 7.06210937 7.84066406 7.890625 9.3359375 C9 12 9 12 8 15 C5.84821844 12.23612808 4.01629579 9.43466931 2.3125 6.375 C1.87550781 5.59898437 1.43851562 4.82296875 0.98828125 4.0234375 C0 2 0 2 0 0 Z " fill="#D95522" transform="translate(333,575)"/>
<path d="M0 0 C3.93053185 0.56549393 6.53407537 1.71382558 9.8125 3.9375 C10.60269531 4.46214844 11.39289062 4.98679687 12.20703125 5.52734375 C12.79871094 6.01332031 13.39039063 6.49929688 14 7 C14 7.66 14 8.32 14 9 C10.82010194 7.46205865 7.78518026 5.743521 4.75 3.9375 C3.85796875 3.41027344 2.9659375 2.88304687 2.046875 2.33984375 C1.37140625 1.89769531 0.6959375 1.45554687 0 1 C0 0.67 0 0.34 0 0 Z " fill="#DB5521" transform="translate(599,434)"/>
<path d="M0 0 C3 1 3 1 4.203125 3.36328125 C4.54859375 4.33652344 4.8940625 5.30976563 5.25 6.3125 C5.60578125 7.27800781 5.9615625 8.24351562 6.328125 9.23828125 C7.00546613 12.02246834 6.98017307 13.35478935 6 16 C4.9955866 13.7101766 3.99632388 11.4183401 3 9.125 C2.71382813 8.47402344 2.42765625 7.82304687 2.1328125 7.15234375 C0 2.2265625 0 2.2265625 0 0 Z " fill="#DB5623" transform="translate(268,400)"/>
<path d="M0 0 C-1.36911804 3.1489715 -2.8752136 5.0478487 -5.5 7.25 C-6.41265625 8.03117188 -6.41265625 8.03117188 -7.34375 8.828125 C-9 10 -9 10 -11 10 C-9.63088196 6.8510285 -8.1247864 4.9521513 -5.5 2.75 C-4.8915625 2.22921875 -4.283125 1.7084375 -3.65625 1.171875 C-2 0 -2 0 0 0 Z " fill="#B64119" transform="translate(645,597)"/>
<path d="M0 0 C0.66 0 1.32 0 2 0 C2 0.66 2 1.32 2 2 C1.34 2 0.68 2 0 2 C0 1.34 0 0.68 0 0 Z M-2 1 C-1.01 1.99 -0.02 2.98 1 4 C0.34 4 -0.32 4 -1 4 C-1.66 5.98 -2.32 7.96 -3 10 C-3.99 9.67 -4.98 9.34 -6 9 C-6 8.34 -6 7.68 -6 7 C-5.34 7 -4.68 7 -4 7 C-3.34 5.02 -2.68 3.04 -2 1 Z " fill="#B0340D" transform="translate(630,601)"/>
<path d="M0 0 C0.66 0.33 1.32 0.66 2 1 C1.38125 1.2475 0.7625 1.495 0.125 1.75 C-2.37818306 3.22246063 -2.83045281 4.41028837 -4 7 C-4.99 7.495 -4.99 7.495 -6 8 C-6.65555119 10.52733235 -6.65555119 10.52733235 -7 13 C-7.33 13 -7.66 13 -8 13 C-8.5 9.875 -8.5 9.875 -8 6 C-5.59682455 3.57047394 -2.91082436 1.7737836 0 0 Z " fill="#DF602D" transform="translate(259,318)"/>
<path d="M0 0 C7.48291572 6.15034169 7.48291572 6.15034169 10 10 C6.7451198 9.41978222 5.06347592 8.47352859 2.75 6.125 C2.22921875 5.61195313 1.7084375 5.09890625 1.171875 4.5703125 C0 3 0 3 0 0 Z " fill="#DB5623" transform="translate(318,504)"/>
<path d="M0 0 C-1.14950951 3.44852854 -1.80036151 4.3569424 -5 6 C-8.25 5.1875 -8.25 5.1875 -11 4 C-11 3.34 -11 2.68 -11 2 C-10.2575 2.226875 -9.515 2.45375 -8.75 2.6875 C-5.95202843 3.30258426 -5.95202843 3.30258426 -3.8125 1.5625 C-2 0 -2 0 0 0 Z " fill="#D45221" transform="translate(513,737)"/>
<path d="M0 0 C0.66 0.33 1.32 0.66 2 1 C-6.261959 6.74031891 -6.261959 6.74031891 -11 6 C-7.57874946 3.12614955 -4.16111563 1.54115394 0 0 Z " fill="#DC5522" transform="translate(451,359)"/>
<path d="M0 0 C6.435 2.97 6.435 2.97 13 6 C13 6.33 13 6.66 13 7 C8.24451757 7.74304413 5.43931262 5.73243053 1.57421875 3.2890625 C1.05472656 2.86367188 0.53523438 2.43828125 0 2 C0 1.34 0 0.68 0 0 Z " fill="#D95421" transform="translate(417,578)"/>
<path d="M0 0 C1.93742341 -0.02703381 3.87495479 -0.04641125 5.8125 -0.0625 C6.89144531 -0.07410156 7.97039062 -0.08570313 9.08203125 -0.09765625 C12 0 12 0 15 1 C15 1.66 15 2.32 15 3 C9.9697924 2.47462276 4.98114761 1.89405214 0 1 C0 0.67 0 0.34 0 0 Z " fill="#DD5C28" transform="translate(466,384)"/>
<path d="M0 0 C4.30764815 1.56641751 8.06171464 3.68336156 12 6 C9.46100862 6.9435441 8.39090725 7.16906025 5.859375 6.07421875 C5.16328125 5.61660156 4.4671875 5.15898438 3.75 4.6875 C3.04359375 4.23761719 2.3371875 3.78773438 1.609375 3.32421875 C1.07828125 2.88722656 0.5471875 2.45023438 0 2 C0 1.34 0 0.68 0 0 Z " fill="#DB5623" transform="translate(393,564)"/>
<path d="M0 0 C3 1 3 1 4.75 3.9375 C5.1625 4.948125 5.575 5.95875 6 7 C5.67 7.66 5.34 8.32 5 9 C3 8 3 8 2.0625 6.0625 C1.04654078 3.68028507 1.04654078 3.68028507 -2 2 C-1.34 2 -0.68 2 0 2 C0 1.34 0 0.68 0 0 Z " fill="#D34E1E" transform="translate(428,511)"/>
<path d="M0 0 C1.60080151 4.00200378 0.29279692 7.04556236 -1 11 C-1.66 10.67 -2.32 10.34 -3 10 C-2.25 2.25 -2.25 2.25 0 0 Z " fill="#DB5724" transform="translate(642,408)"/>
<path d="M0 0 C0.66 0.33 1.32 0.66 2 1 C1 3 1 3 -1.06640625 3.8515625 C-2.30197266 4.23441406 -2.30197266 4.23441406 -3.5625 4.625 C-4.38878906 4.88539063 -5.21507812 5.14578125 -6.06640625 5.4140625 C-6.70449219 5.60742188 -7.34257812 5.80078125 -8 6 C-8.33 5.34 -8.66 4.68 -9 4 C-7.54618103 3.30300448 -6.08677047 2.61766134 -4.625 1.9375 C-3.40683594 1.36322266 -3.40683594 1.36322266 -2.1640625 0.77734375 C-1.44992187 0.52082031 -0.73578125 0.26429688 0 0 Z " fill="#DC5724" transform="translate(462,354)"/>
<path d="M0 0 C5.445 1.485 5.445 1.485 11 3 C9.02 3.99 9.02 3.99 7 5 C3.25 3.625 3.25 3.625 0 2 C0 1.34 0 0.68 0 0 Z " fill="#DB5623" transform="translate(535,288)"/>
<path d="M0 0 C1.32 0.33 2.64 0.66 4 1 C4.33 3.31 4.66 5.62 5 8 C4.01 8.33 3.02 8.66 2 9 C2 8.34 2 7.68 2 7 C1.34 7 0.68 7 0 7 C0 4.69 0 2.38 0 0 Z " fill="#C13B10" transform="translate(676,511)"/>
<path d="M0 0 C-7.28571429 3.57142857 -7.28571429 3.57142857 -12 2 C-7.72170329 -0.29194467 -4.74957752 -1.52664992 0 0 Z " fill="#DB5724" transform="translate(567,322)"/>
<path d="M0 0 C0.66 0.33 1.32 0.66 2 1 C2 1.99 2 2.98 2 4 C-1.33333333 7 -1.33333333 7 -4 7 C-2.92598892 4.08482708 -2.22189824 2.22189824 0 0 Z " fill="#BC431A" transform="translate(629,607)"/>
<path d="M0 0 C2.97 1.32 5.94 2.64 9 4 C9 4.66 9 5.32 9 6 C5.27566618 4.7874262 1.62197194 3.49140021 -2 2 C-1.34 1.34 -0.68 0.68 0 0 Z " fill="#DC5723" transform="translate(550,407)"/>
<path d="M0 0 C2.97 0.495 2.97 0.495 6 1 C6 1.33 6 1.66 6 2 C4.35 2 2.7 2 1 2 C0.67 1.34 0.34 0.68 0 0 Z M-3 2 C-0.525 2.495 -0.525 2.495 2 3 C1.67 3.99 1.34 4.98 1 6 C0.01 5.34 -0.98 4.68 -2 4 C-2.33 4.66 -2.66 5.32 -3 6 C-3 4.68 -3 3.36 -3 2 Z " fill="#E05822" transform="translate(732,319)"/>
<path d="M0 0 C0 0.66 0 1.32 0 2 C-3.3 2.66 -6.6 3.32 -10 4 C-10 3.34 -10 2.68 -10 2 C-3.375 0 -3.375 0 0 0 Z " fill="#DC5724" transform="translate(543,314)"/>
<path d="M0 0 C4.29 0.33 8.58 0.66 13 1 C8.99186716 3.00406642 7.33794733 3.46148376 3 3 C2.01 2.01 1.02 1.02 0 0 Z " fill="#DC5A27" transform="translate(695,313)"/>
<path d="M0 0 C3.82097239 0.53069061 6.06171403 1.49701566 9 4 C6 5 6 5 2.8125 3.5625 C1.884375 3.046875 0.95625 2.53125 0 2 C0 1.34 0 0.68 0 0 Z " fill="#DB5421" transform="translate(445,593)"/>
<path d="M0 0 C-0.33 0.66 -0.66 1.32 -1 2 C-2.77734375 2.484375 -2.77734375 2.484375 -4.9375 2.75 C-5.64777344 2.84796875 -6.35804688 2.9459375 -7.08984375 3.046875 C-9 3 -9 3 -11 1 C-7.26562152 0.12132271 -3.83225427 -0.08912219 0 0 Z " fill="#DC5723" transform="translate(589,317)"/>
<path d="M0 0 C4.60209225 -0.17700355 6.78370866 -0.10814567 11 2 C7.37 2.33 3.74 2.66 0 3 C0 2.01 0 1.02 0 0 Z " fill="#D34513" transform="translate(688,313)"/>
<path d="M0 0 C0.99 0.33 1.98 0.66 3 1 C4.1875 3.5625 4.1875 3.5625 5 6 C2.525 5.01 2.525 5.01 0 4 C0 2.68 0 1.36 0 0 Z " fill="#D65A29" transform="translate(473,581)"/>
<path d="M0 0 C2.9375 1.3125 2.9375 1.3125 6 3 C6.33 3.99 6.66 4.98 7 6 C3.62496331 4.8141763 1.35277269 3.72426311 -1 1 C-0.67 0.67 -0.34 0.34 0 0 Z " fill="#CB4A1D" transform="translate(395,548)"/>
<path d="M0 0 C3.82946843 1.45255699 5.12050295 3.42895561 7 7 C6.01 7 5.02 7 4 7 C0 2.65714286 0 2.65714286 0 0 Z " fill="#DB5724" transform="translate(308,472)"/>
<path d="M0 0 C2.31 1.65 4.62 3.3 7 5 C6.67 5.66 6.34 6.32 6 7 C3.36 5.35 0.72 3.7 -2 2 C-1.34 1.34 -0.68 0.68 0 0 Z " fill="#DB5723" transform="translate(616,443)"/>
<path d="M0 0 C-3.18762365 2.12508244 -5.26512223 2.5020163 -9 3 C-9 2.34 -9 1.68 -9 1 C-3.375 -1.125 -3.375 -1.125 0 0 Z " fill="#DD5926" transform="translate(508,325)"/>
<path d="M0 0 C0.66 0.33 1.32 0.66 2 1 C0.25 6.75 0.25 6.75 -2 9 C-3 6 -3 6 -1.5625 2.8125 C-1.046875 1.884375 -0.53125 0.95625 0 0 Z " fill="#D85624" transform="translate(579,651)"/>
<path d="M0 0 C0.66 0.33 1.32 0.66 2 1 C1.34 2.98 0.68 4.96 0 7 C-0.99 6.67 -1.98 6.34 -3 6 C-3.33 5.01 -3.66 4.02 -4 3 C-2.68 2.01 -1.36 1.02 0 0 Z " fill="#D24D1D" transform="translate(532,557)"/>
<path d="M0 0 C1.2380014 3.57644848 0.74926071 6.33694766 0 10 C-2 8 -2 8 -2.25 5.5625 C-2 3 -2 3 0 0 Z " fill="#D95725" transform="translate(619,518)"/>
<path d="M0 0 C0.66 0.33 1.32 0.66 2 1 C2.66 0.67 3.32 0.34 4 0 C3.67 1.98 3.34 3.96 3 6 C1.35 4.68 -0.3 3.36 -2 2 C-1.34 2 -0.68 2 0 2 C0 1.34 0 0.68 0 0 Z " fill="#A52F0C" transform="translate(364,472)"/>
</svg>
